<svg xmlns="http://www.w3.org/2000/svg" width="1010.619" height="920.543" viewBox="0 0 1010.619 920.543">
  <path id="Union_2" data-name="Union 2" d="M-13831.3-328.455l-3.2-.49-2.147-1.572-2.106-.446-5.417-.265-.526-.357-.364-.954-.711-.2-2.993.887-1.783-.578-2.629-4.014,1.466-1,2.739.4,1.348.711,1.879.376.044-2.173-1.761-1.421-.961,1.687-6.606-.821-.549-.376-2.721-5.391-3.271-5.056-.526-.512-1.554.066-1.278-2-.917-1.885-1.716-6.146-1.071-1.13-1.26-.357-1.554-9.714.185-1.841.456-.578.663,1.153,4.367,3.241,1.075,4.835,2.055-5.59-1.3-.887-1.027.088-4.411-4.7-.479-1.329.044-1.955-.364-1.462-1.58-3.13-3.222-2.95-2.493-4.283-6.677-15.9.229-1.13-.685-3.373-.755-1.377-.457-3.193,2.015-1.775.044-3.682,1.506-.976,5.557.644,3.248,2.327,3.933-.622,1.51,1.245,5.053,1.6,8.274,4.769,7.958,3.638,5.255.464,2.334-.685,2.151,1.175-.114-1.108,1.94-2,1.76-.6,1.3.4.549,2.11,1.3.641,2.08-.044-.732-1.02-1.738-.376-.5-.468-.113-1.528,1.119-1,3.8-1.661,3.222,1.042,5.192-1.02,1.506,1.307,1.782-1.042,2.493-4.194.549-.331,1.58-.379.593.843,2.585,1.134.869-.044,1.576-.887.8-1.311.435-1.93.5-.534,1.05.048,1.624.729,3.524,2.53,1.3,1.664,1.373,2.994-1.579,5.457.184,1.642,1.027,1.311.093,2.416-1.076,3.815.162,2.729.848,2.375-1.237,6.477.824,7.1,1.51,2.375.137,3.679-1.3,1.8-.892-.733-.113-.777.662-.821.3-2.128-1.764-4.592-1.072-1.709-2.883,5.546-1.875,13.154-1.119,1.112-.364,1.86.272,3.373-1.782,1.8-1.006,3.285.343.53,1.075-.066-.457-.954.729-.53,1.58.932.641,1.219.136,2.287-.938.6-.387,2.865,1.325,2.905-.228,1.863-.619.044-1.76-1.51-1.782.755-.939,1.351-2.287-2.747-1.624-3.218-.32-1.576,1.374-2.371.8-.225.6.534.114.8-.391.773,1.532,1.6,2.128-.155.777-.644-1.83-3.1-5.808-3.439-.847.133-1.37,1,.479,2.239.777,1.642-.663,1.285-2.444.777-.571-1.374.479-.291-.364-3.329-2.242-1.4.776,1.908-.549,3.417-1.439,1.709-.663,2.394.5,2.309-.368,2.151-.844.534-.869-.11-1.988-1.245-1.808-2.062-.343-2.084-.526-.2-.523.825-.025,2.217,3.134,2.773-1.006,2.441-1.3,1.974-1.237,3.484-.364,2.394-.522.446-2.059,1Zm10.518-4.172-1.576.335-1.3-2.644,4.39-5.255,1.6,4.058-1.1,3.859-.435.357Zm1.325-11.047,1.6-2.707.983,1.466.891,4.014-.066.379-1.693.331Zm18.041-17.591,1.439-1.068,1.281.114,1.12,2.128-.114.331-1.738.022-2.1,2.817Zm-78.123-61.051-.114-1.532,1.487-1.709,2.243,2.486-3.182,1.064Zm85.988-8.366-.435-.619-5.763.711-2.217-.935.048-1.219,1.646-1.307,1.69-.088,1.738.508,3.473-1.709,3.384,3.907-.044.331-1.716.644-1.734,1.307Zm-7.383-6.875-.641-2.353.136-.667-2.835-5.166-3.543-3.064,3.016-3.859,2.129-.887,4.916,6.367.913.644,1.9.486.206.91,1.164,6.19-.089.843-.685.622-3.134.556-1.212.574Zm-103.046-3.749-.32-1.62.46-.331v-2.176l-1.418-1.8.066-1.709.435-5.034,1.944-1.4.3-.821-.255-1.8,1.054-.287,2.217,1.311,1.031,1.44.342,5.082.594,3.259-.229,1.709-.755,1.642-4.6,3.148Zm61.025-30.77-.688-1-1.809-4.592-2.6-3.174-1.922-.8-1.212.376-.342.954-2.445-.2-2.015-3.951.6-.932-.777-1.418-2.194-.335-1.716,1.112-1.256.2-1.031-.578-3.723-3.66.408-2.861,2.2-.887.869-1.488-1.738-3.859-1.027-.641-4.687.331-1.05,3.417-4.529,4.526-2.2.42-1-.155-3.477-3.929h2.95l2.606-1.13,3.635-6.209-.8-2.865-3.063-4.592-1.44-.711-2.312,1.024-3.314,3.082-4.068,2.95-3.5.357-.435.42.137,1.108,3.432.578,1.923-.644,1.142-.821,1.712.468.368.887-.276,1.351-1.281,1.908-.615.446-2.124-.49-3.819.8-.8.468-7.475,4.9-5.443,6.5-2.739.733-.917.622-.549,1.351-3.222,2.309-.939-.243-1.532-1.753-1.4-.8-5.141-1.6-1.167-1.153-2.1-1.267-1.9-.243-4.184-1.642-6.654-4.99-3.862-1.488-2.743.644-.457.508-2.239-.044-2.427-1.351-2.423-1.952-3.564-.755-1.738-.022-1.782.49-1.466,1.2v.954l.755,1.44-1.966.534-2.9-1.377-2.15-2.526-4.319-3.929-2.221-1.418-3.358-1.51v-.059l-2.754-.273-1.967.574-1.808-.066-4.184-2.173-4.319-4.216-2.928-5.745-2.905-4.283-1.782-1.219-1.4.066-4.456-5.815-1.558-3.016.776-1.55-.065-1.223-1.168-2.817.457-2.773,1.764-1.418.957-2.4-.021-4.018-.913-3.171-4.346-10.27-6.856-8.875-4.529-4.725-2.651-2.088,1.211.379,6.769,5.745,4.481,5.969,1.9,3.793-.272-2.062-1.146-3.13-.935-1.351-2.95-3.307-8.643-8.031-.044-2.618,1.531-.6,1.875,1.572-.232,3.7.391.512,2.331-.243.641-2.574.3-3.925-.412-2.821-3.564-1.7-1.922,1.841-1.37.4-1.466-.066-1.256.534-.5,1.2.254.777,1.414.442.482.578-1.12,1.4-6.7-.552-1.757.711-1.488,1.753-1.351.91-8.96.464-2.036-1.488,1.487-2.548,3.292-1.6,3.793-3.973.711-3.881-.3-1.02.25-1.863,1.215-2.574-.824-4.747.57-2.618-.206-1.285-1.506-2.53-3.98-4.725-1.37-4.791-3.156-5.214-.593.133-1.51,3.417.659,1.285-.364,1.223-2.354,2.349-.869,2.905-.342,5.413-3.134,9.895-.022,2.441-1.826,1.44-3.524-1.55-1.8-.446-.961.177-4.665,1.709-1.05,1.664-.6.376-3.45-.508-1.923,1.642-1.414.508-.8-.376-.707-1.153.914-1.443,1.689-1.62.6-1.4.413-4.128,1.163-1.664,2.081.8,2.128-.552,2.2-.133.435.663,2.124.932,1.234-.644.5-1.219,1.1-6.964-.435-5.439.3-5.391-1.031-3.66.369-.486h1.211l.729-1.377,1.259-4.036.207-2.084,4.341-5.391,2.792-2.662,1.049-.291.413-1.042-.8-3.392-2.515-4.68.755-2.176,1.418-.976,1.325-.512,1.6-.04.688-.534-.185-1.466-.755-1.4-1.348-.556-1.439-6.345-1.3-2.817-.688-3.439-1.326-.976-.2,4.636.57.313.571.976.162,3.038-.825,4.128-1.3.066-3.155.976-2.651,2.795-2.56,4.946-.14,2.375-.457,1.333-3.749,6.809-1.689,1.374-3.021.11-1.76-1.042-1.624,2.353.457.309-.958.976-7.044,3.616-4.136,3.152-1.418,1.418-.136.932-1.237,2.265-2.468,3.859-2.014.865-2.125,3.528-2.563,1.554-1.527,2.95-1.765,5.166.619.291,1.1-.133,3.313-2.265.347,1.532-.391,5.745-1.189.49-.663-1.223-2.08-2.239-1.488-.887-1.554.221-1.1,2.508-.891-.022-.939-1.753-3.266-4.15-3.683-3.679-1.944-1.51-.8-.247-2.56.865.983-2.637,1.417-1.977.114,1.819,3.248,3.373,1.3.865,2.471-.777-2.515-.976-.32-.91-.137-.755.409-.887-1.1-5.988-1.9-4.9-.294-3.285-1.672-2.5-3.978-4.349-4.779-3.771.688-2.773-.254-2-1.234-3.417-2.515-5.034-2.836-1.068-4.6.711-1.962,1.086-1.51-1.639.021-.737-1.83-4.721-3.016-6.658,1.988.133.983.887.343,1.444,1.689-2.243.5-1.462-.5-2.53-1.76-2.419-1.554-1.307-.707-.11-3.937,1.2-1.6,1.488-.938-.18.048-2.305.707-1.576,1.259.49.412-.667-3.089-4.172-2.489-1.418-1.555-1.355.272-1.042-1.689-.508-.619.486-.364,1.443-2.036,1.241-7.91-.53-.755-.18-1.738-1.815-2.287-.8-3.5-3.218-1.186-.622-4.986-.574-2.379.464-1.852,1.664-2.147.733-1.554.11-1.716-.42-4.184-4.106-6.4-4.5-10.035-5.038-5.373-1.952-.824.092-2.537,2-4.184,1.572-1.26.158-13.168-.954-2.836.085-5.28.4-2.423.6-15.043,1.241-5.715.91.136-155.681-.136-225.378v-59.656l2.217.711,2.379,2-.276,4.526.412.49,1.624-1.955-.938-6.01.275-.556,2.56.689,3.2,1.576,5.122,5.546.206,1.2,1.37-.512-1.69-2.151-.913-1.841-.32-1.841.549-1.042.272-1.664,3.818.644,1.58-.512,1.988-1.863-4.437,1.355-2.238-1.4-1.782-2.265-.416-1.153.917-.442,1.966-.2,1.624-1.112.092-.53-2.791.91-2.972-.534-2.1-1.175-2.4-2.22.3-1.974,1.483-2.751,1.532-1.974,5.97-3.638,1.348-6.168-.137-1.13,1.164-4.459,1.76-1.775.232,1.554.869.49,2.4-.423,3.042-2,2.493-2.552-.254-.91-1.554-2.062-.844-.689-.847-.177-.206-.534.228-4.349.413-1.086,1.027-.442.342.622.733.331.938-.2,1.6-1.108.641-1.352-.229-3.263.251-.821,3.841-1.664,2.286,2.53,2.2-.155-2.1-.6-.707-2.592.662-1.576.181-1.952-.755-.556,1.215-.486,3.518,1.086,3.155,5.17v-.8l1.418-1.753-3.429-2.243.777-1.753.961-.464,3.5.11.229-.777-.25-2.106-.688-1.311.641-.91,2.217.11,2.471,1.554,3.244.155,2.287,1.6,1.4.2,10.882-.711,3.248,1,4-2.659,3.409.066,1.393,2.574-.844,1.775,1.348-1.333.181-.578-.5-2.861.479-.865,3.313-1.153,2.607.932,1.646-.133-.958-.11-1.76-1.267-.276-1.13.184-7.034,1.4-2.128-3.753-2.707-1.256-1.731-1.031-.619-1.874-.335-3.542.578-3.064,1.6-.482-.048-2.4-2.327-.482-1.6-2.606-1.351-2.331.2-.158-.265,2.718-3.152,2.747-1.219,2.629,2.5,1.874,4.3.958.088.755-1.329-1.072-3.24-1.145-2,.869-.2,2.353.777,1.6-.821,4.048,3.285.254,1.064,3.929,4.879,1.352.287,1.142-.865,2.537-3.682,1.075.092,1.944,2.018,3.727,6.544.913.711,1.69.486,1.4-.91h1.234l1.259,1.775,3.521,1.443,1.694.044,1.211-.379,2.4-1.263.917-1.2,2.7.442.276.755-1.716.954-.387.578.114.6.776.711,1.783.733,1.373-.622.729-.932.574-.088,3.358,2.486-.3.464.347,1.978.479.376,4.047-.578,1.278.512,2.356.2,2.059-.243,1.826-1.355,2.449-.133,2.467,3.329,3.134,1.576,2.147,1.727,2.7.247.961.42-.137-.464,1.006-2.53,1.531-1.488,1.282-.53,1.439.619,3.679-.42,1.9-1.488-.574-.309-1.418.821-.251-.6.527-1.841,2.286-.6,1.69.048,3.156-2.441-.093-1.709.914.022.847.954-.751,1.175-4.231,3.484,1.053,1.2-2.86,2.843-.114.773.482,1.156,1.163,1.064,1.26-.534.364-1,2.036-1.617,3.451-.979-2.1,2.574.848,1.245,1.826-.821.435.729-1.988,2.8.685,1.639.733.667,1.03-.644,1.875-.2.342.578,1.713-.155,1.325-1,1.738-4.283-.663-.843-2.353.287-1.51-.622-.114-.6,2.581-2.486,4.209-2.729,2.766-.486-.57,1.841,1.554,4.235,1.76,2.486,1.12-.022.961-.667-.066-.53-1.624-.578.137-.468,2.014-.486,2.512,1.241,2.537,3.329-4.319,2.927-1.462,1.642-2.515,3.926-.575,2.975-3.13-1.134-.25,1.642,1.531,2.751-.021,2.375-.413,2.327-1.737,2.53-.229-.777-2.015.667.092-4.371-.387-.376-.776.177-.987,2.574-2.125,1.8-1,.066-.343-.954-1.211-.468-2.585.976-1.646,1.311-.891,1.484.069.689,1.006.755-.663,1.444-1.1.887-.456,2.773,1.075,3.082.957.512,1.374-.335,1.075-1.175-.141,1.841-.776,2.574-1.576,2.349-.686,4.459-.688,1.289-2.879,1.885-3.271,4.1-2.011,3.373-.048,1.8-3.107,2.04-1.006-.022,1.532,4.3,1.049,1.532,1.65,1.351,3.174,1.108,4.508,2.8,2.3,2.04,6.654,3.347.711.6.593,3.038,1.374,1.554,6.171,2.861,2.537,2.04,2.31,2.441,6.562.265,2.63,1.333,5.759,3.97,2.954,1.223,1.369-.044,2.563.818,2.261,1.09,3.02,4.658,3.521,2.905v.818l3.789,3,2.375.888,4.872,1.13,3.8-.221,1.189.843,3.862,1.572,4.161.578,3.245,4.371.526,3.237,1.256,2.353,1.189,1.134,1.9.641,2.489.291,2.449,1.572,2.011,1.974,4.916,1.377,1.69.976,2.4,2.084.983.4,2.813.155,6.563-1.153,3.406-1.223,2.124-1.108,3.433-2.574,1.874-.644,1.3-2.305,1.4-5.236.368-3.749,5.9-7.431,2.283-5.015.733-3.638,2.765-7.056-.641-4.191,1.488-9.184,4.319-9.607.777-3.038-2.445-6.522-1.12-6.989.365-2.04,1.417-3.528.185-2.751-.549-1.93-2.493-2.883-.206-2.975,1.809-7.276,3.634-6.853-.275-1.086-1.142-1.245-1.12-4.257.206-.711.321-.556,2.537-1.55.961-1.134,1.211-3.259,1.484.442.8,1.333.026,1.974,1.049,1.554.207-1.046-1.4-3.948-1.1-.777-3.017-4.393.733-.574-.482-.357-1.624-.11-.206,1.443.78,1.02-1.439.442-.869-.376.044-.552,2.331-4.9,2.173-2.906-.391-.843,1.123-3.108,1.071-1.55,1.076-.468.618,2.928,2.651-.508.206-.6-2.011-1.908-.092-1,.549-2.839,3.818-10.65.892-5.435-.5-4.279.229-.6.913-.644,3.933-.667,1.4-1.793,1.123-2.729,1.849-.07,2.334,1.068-.776,1.153-1.65,1.466-.18,2.239,1.575-1.952.892.066,3.362,2.773,1.075,2.283,1.918,7.589-.641,2.928.686,4.99-.181,2.865,2.7,2.305,1.716.133,1.624-.707.707.265,1.672,1.775-2.4,3.749-.5,2.062-.114,2.685,1.281.354.777-.2,2.194,1.042.686.733.092,2.574,1.1,1.108.938.088,1.69,1.245-1.37,3.082-.32,2.6,1.072.534,2.448-.269.251.49-.387,5.391.57,5.056.181.887.987.91.637,1.333-.206,2.305-1.393,5.682,1.761,4.434,2.1,2.154.32,3.992.961,3.307,1.12,2.327.847.887,1.782.932,3.086.026,3.521-2.662,7-3.108,1.027-2.239.983.221,1.554,2.261-.294,2.353,1.186,3.126,1.558,1.8,3.749,1.4,1.69.11,1.558,3.351,6.123,2.681,2.726,2.066-.162,1.462-1.874,3.219.092,1.462.983,1.576.32,1.841-1.009,2.865,1.4,2.681,1.348,4.459v4.5l1.259,1.223,1.3,2.95-.412,5.1-.939,1.263-.158,2.574.229.733,1.3.8,8.48,10.274.825-.667,2.309-.379.593.711-1.918,3.528.113.777,1.761,2.927,1.94,4.415,1.329,4.724.457,3.484-.457,2.4.365,2.574-.158,1.664-2.287,4.7.181,2.416,5.03,6.389,3.02,1.108-.185,2.817-1.119,2.53-.32,2.684.229.843,1.439,1.863,2.173,1.642.618,1.153,2.9,1.841,2.217,1.024,2.721.063,3.042,2.953,1.69.066,2.949.932,1.668,1.532,2.836.574,4.438-.331.364-.755-1.119-1.885,1.417,1.576,2.4,4.191.983,4.883.593,1.175,1.26,1.311,1.348.309,1.142-.269-.387-2.062.184-.887,1.506.022.733.755.3,2.817,1.187,1.086,1.487.622,3.108-.133,3.063.865,1.966,2.305-.8.313.206.689,1.462,1.749,1.967,1.554,1.3-.556.092-1.506-.777-.689.343-.887,1.716.622,3.749,3.259,2.375.423.848,1.13,1.579,4.3.936.243.755,2.04-1.4-.331-1.186-1.175-1.01-.468-1.211.49-1.826,2.195,1.531,4,2.994,3.038,1.782,1.2,2.655.91,3.292,2.486,1.348,1.664-.254,1.908.872,3.193,1.234,1.02.961,3.064,1.414,2.419,1.418,1.307-.32,4.9,2.265,7.855,1.716,4.036,1.576,2.2,1.075.843.066,2.64-.752,1.108,1.669-.821,1.325-1.064.619-1,3.885,4.684v.4l1.531,1.421-1.281-4.283-1.62-3.237.022-1.223.961-2.46.979-1.245,1.1-.287.869.354,1.9,2.839,1.12,3.086,3.02,1.2,3.933,2.618,2.81,1.241-1.439-3.3-.022-1.955.685-1.351,1.809.309,1.76,2.552-.732,1.642.184,1.263,3.358,4.636-1.576,10.362,1.4,2.795-.3,3.727,1.646,3.241,2.011,1.064,1.852.265.707,1.576,1.694,1.241,1.189,3.329,1.76.932h.821l1.168.8,2.629,3.148,1.69.49,1.325,1.02-.387.6.158.733.689.265,1.211-1.153.044-1.418.6-.556,1.1.309,2.581,2.883,3.613,3.13,1.9,5.479,3.017,4.791,3.612,2.685,3.5,1.333,1.233,1.374.733,1.709.25,3.174,4.069,6.544,3.406,1,2.445.155.961,3.9-.295,2.353-1,1,.136,3.1.549,1.488.821.755.755.2,1.325,3.152,3.568,1.572.093.644-1.189,2.508-1.624,6.433.456,1.731.619,7.917.685,1.62.343,9.475-1.532.464-1.51,2.062.755,3.682,2.722,2.044,2.011,2.441,1.558,5.166,2.1,2.861.732,1.93-.549,3.616,1.234,3.02,1.142,1.55-1.853,1.466-2.718,1.02-3.317.6-1.872,2.405.885.058,1.9-2.441,3.314-.6,2.721-1.02,1.853-1.466,1.786,1.576.339,1.8-.8,5.925.46,3.1,1.142,1.51-.461,5.5-3.906,4.968-2.744,7.81.686,1.93-2.766,15.286-1.215,4.482-4.614,12.6-.32,7.431.387,1.352.868.11.435,1.709-2.537,8.252-.479,3.263-2.607,8.363-2.194,4.349-5.03,6.168-1.146,2.883.733,3.749-.3,3.97-4.319,3.55-1.853,2.084-3.818,2.309-.206,1.219.618,1.289-4.754,1.62-3.5,1.749-3.546,5.17-2.354,5.656-.549.446-1.256.088-1.167.91-.25,1.307,1.049.91-.8,3.086-2.835,3.682-1.076,7.763-.593,2.088-.891.663-1.443-.155-1.941.755,1.37.354,1.006.91-2.011,3.174-2.243,1.62-2.217,3.171-2.331,6.592,1.006,1.2-1.233,5.457-1.6.976-.5,1.687.869,2.464,1.734,1.749-.387,1.952-.662.556-.825-.865.3-.6-.343-1.352-.663-.066-1.576.954-.184.976.641,1.51-1.4,1.506-2.651,1.421-1.348,2.464-.141,1.241-1.826,5.148-1.26,1.974-4.8,10.2-.615,5.082-.048,6.433-1.439,1.819-1.326,7.144-1.417,4.99-1.576,3.859.114,4.371,2.467,2.773.32,2.084-.021,1-.733-.221-1.049.755.044,3.506.824,3.417-44.012-21.52-2.239-.177,2.011-3.373.25-2.151-2.286-4.526-1.576-1.952-1.282-9.806-2.7-1.664-4.161-1.731-2.128.8-3.5-.644-2.309.379-.05.06,2.271-.373,3.5.644,2.125-.8,4.161,1.731,2.7,1.664,1.277,9.806,1.58,1.952,2.287,4.526-.254,2.151-2.011,3.373,2.242.177,44.009,21.52-1.944,1.2-2.835.243-2.788,4.128-2.239,1.108-3.02,1.444-3.66.354-12,.066-4.161.578-4.091-.155-4.6.309-8.573,2.464-5.078,2.438-5.417,4-4.183,3.793-3.959,3.815-6.031,6.813-2.379,2.04-5.558.689-5.438,1.329-1.944-.6-2.265.133-1.027.42-.869,1.263,2.766,4.9,2.857-1.955.526-1.86.892.4.368,8.341-1.466,1.8-.777.376Zm-64.134-111.965,3.819,2.817,4.253,2.195,1.919,2.574,2.515,2.176,1.418.442.57.578,1.281,2.839,5.215,5.921,3.061,1.731.964.247,4.387-1.2-.006-.04-4.292,1.17-.961-.243-3.064-1.731-5.21-5.921-1.281-2.839-.571-.578-1.418-.442-2.515-2.176-1.923-2.574-4.249-2.195-3.818-2.817-1.761-.622-1.031.221-1.528-1.108-.412-.622.571-1.683-.962-1.444-2.01-.49-1.853-1.108-1.142-2.438-.667-3.66.6-2.909.022-1.841-.32-.464-5.281-2.795-3.7-.243-2.928-1.156-.343-.8-1.554-1-1.418.468-.034.047,1.36-.449,1.554,1,.347.8,2.924,1.156,3.7.243,5.28,2.795.321.468-.022,1.838-.593,2.909.663,3.66,1.142,2.438,1.852,1.108,2.015.49.957,1.444-.57,1.687.412.619,1.532,1.108,1.027-.221Zm70.464,17.083,2.217,1.687,5.534,1.687,3.337.221,4.161-1.421,2.242-.2.053-.063-2.2.2-4.161,1.421-3.34-.225-5.531-1.683-2.217-1.687-2.562-.379-1.555.2-.065.067,1.531-.2Zm-26.293-4.769,1.809,1.374,2.924,2.729,1.738.711,7.088,1.307,5.145.446,2.607-1.086.055-.056-2.573,1.076-5.141-.446-7.089-1.311-1.738-.707-2.928-2.729-1.8-1.377-.619-.066-1.874.4-2.173,1.153-2.173-.2-.843-.667h-3.042l-3.111.777-.049.056,3.068-.767h3.041l.848.667,2.172.2,2.169-1.153,1.879-.4Zm87.131,2.526,1.169-1.767-1.3,1.724Zm-3.086-1.307.593.486,1.261.415-1.866-.918Zm-3.978-6.525.663,1.756,2.288,3.292-2.288-3.314-.663-1.752Zm7.888-.928.343,3.815-.341-3.822Zm-7.844-3.174-.041,3.875.045-3.875,1.186-5.678ZM-13767.07-586.616Zm-14.542-.2,6.517-4.657h0Zm9.42-3.06.16.182-.16-.185-1.873-1.028Zm-174.875-30.881,1.984,1.329,3.454,5.634.114,4.172,2.15,1.93,1.326,3.439-.07.574.847.954,2.1.4.059-.073-2.073-.4-.844-.954.066-.574-1.325-3.439-2.147-1.93-.113-4.172-3.454-5.634-1.989-1.329-2.857-1.267-3.889.777-3.679-.932-2.194.821-.033.044,2.136-.8,3.683.932,3.885-.777Zm-28.693-3.8,1.163,1.108.755.2,4.275.309,4.069,1.841,2.766,1.642.435.578,1.215-.622.025-.034-1.148.59-.435-.578-2.766-1.642-4.069-1.841-4.275-.313-.755-.2-1.167-1.108v-.053l-.582-.746v.233Zm257.409-136.722,1.212-.287,1.189-1.223,2.238-4.437,3.549-1.525-.179-.334-4.275,1.838-2.243,4.437-1.189,1.223-.651.154Zm-204.416-4.658h144.54l1.9-.91,2.905-3.528,7.932-6.544,2.438-.651-.6-.1-2.747.733-7.933,6.544-2.905,3.528-1.9.91h-144.605l-49.842-.022-1.915.043h0l2.891-.022Zm215.78-.711,4.754-2.217.8-4.459-2.238-4.927,2.4-1.841,2.788-1.329,4.938-1.576,1.006-.667.5-1.241,1.307-1.062-.8-.112-1.418,1.153-.5,1.241-1,.667-4.942,1.576-2.787,1.329-2.4,1.845,2.243,4.923-.8,4.459-4.324,2.016Zm-29.562-8.54,3.16-.636-.317-.141-3.743.753Zm-23-.932,7.638-.644,3.564-1.329,2.833-.338-.381-.085-3.358.4-3.567,1.329-6.994.59Zm75.723-7.3,4.417-.445-.687-.044-4.093.413ZM-13868.4-490.291l-1.212-.512-3.841.313.07-.331,1.738-1.642,2.3-.446.667.423,1.325,3.082-.206.11Zm-.892-3.925-.32-1.4.619-1.974,3.977.8,1.006,1.153-.272.442-1.6.026-1.624,1.62Zm-196.675-72.411-3.274-.6-.913.287-.272,1.09-.711.4-2.949-.265-3.27.49-4.662.133-.8-1.289-3.52-2.839-.114-1.042,1.163-3.329,9.1-2.618,1.944-.022,2.331-.53,4.894-2.11,5.188.423,1.462,1.352-.021,2.4.342.446,2.379.309,2.445,1.351,1.466.11,1.532-2.283,3.771,1,1.211,1.6.022,1.554-1.8,1.572-2.949-1.4-3.977-.291-3.5,1.6-.456.622.32,2.04-.711.689-3.244,1.554Zm-492.265-27.044-4.982-2.04-9.49-.044-1.3,1.175-.571.022-3.679-1.153-3.042.464-3.521-.972-6.035-3.907-6.035-1.351-1.488-3.4-2.467-2.773-4.117-4.084-3.771-2.438-4.508-2.287-1.8-.2-1.8.42-1.146,1.444-2.813-2.905.026-2.508-1.3-8.963-.093-5.012,1.076-4.839,1.049.291,1.532,2.217,2.949,1.219,2.357-.2,2.011-.711.824-.464,7.019-9.806-1.075-8.076-1.852-8.875.57-1.926,1.9-2.287-.088.91-1.418,1.532-.048,1.153,1,2.773.688,1,.457-.309-.044-1.554,1.142-4.08-.733-7.144.574-3.664-.435-2.725.137-5.7-.939-4.99-.593-1.576-6.061-10.716-1.713-4.968-1.439-3.241-3.547-5.988-2.993-7.431.184-.755-.776-5.634-1.646-5.5-.5-.423.113-10.76.892-5.034-1.233-4.194-.641-1-.387-2.574-1.3-2.994-5.351-6.168-.686-2.018-.184-4.482-2.011-3.948-4.85-7.034-1.874-1.108-1.923-2.662-1.483-6.5.32-2.014.82-1.889-.479-2.817-1.211-4.1-3.385-6.812-3.428-6.234-5.3-7.431-7.567-7.807-1.4-4.283,1.141-2.221-.158-2.46.093-.644.479-.335.412,5.192.755,1.51.777-4.261,3.683,4.415.5,1.444.3,4.548.57,1.642,1.83,2.261.777.155.066-.689,1.6-1.064,1.054.247,1.782-2.574.136-4.57-1.782-2.309-3.406-2.173-2.515-2.53-1.443-5.767-2.516-3.951.438-2.195,1.506-2.331.711.512,2.309,4.036,2.63,2.2.913,2.508-.593,3.148-.689.733.07,2.261.733,2.062,1.255.114.848-.887,1.988-3.727,1.3,6.256.685,1.7,2.743,3.572,3.112-2.371.662-2.154-.755-1.042-.479-1.885.844-5.17.869.4.435-.821.021-3.263-5.553-5.7-2.95-5.369-2.7-6.632-2.629-1.554-2.239-6.164-.206-1.178.272-2.394-1.531-2.464-3.131-3.55-.895-2.53-.136-5.211,1.009-2.53.549-3.241,2.124-6.654,1.717-3.329,3.521-2.684.614-2.239.347-2.994-.549-3.461,1.439-4.261-.276-2.53-1.348-3.616-2.036-2.795-.364-2.106,3.568-7.011,3.313-9.25,2.4-3.461,1.466-.8,1.826-.313.324.622-1.237,2.261-1.211,6.813,1.6,3.281-.777,4.791,1.072,1.068,5.42-2.221.686-2.773,1.51-3.749,4.095-6.9.637-2.132,7.251-3.9,2.718-.2,4.779-2.309,5.119-1.907,4.164-4.769,1.507-1.13,3.134-1.311,2.949-4.3,5.829-2.64.641-1.639,1.576-.843,1.51-.18,4.113-1.418,3.248-1.952,2.516-2.062,2.011.42,1.075,1.042,1.1.291,4.732-2.464,2.448.821.8.887,1.738.755,1.852.331,1.576-.022,6.931-1.377,4.091-1.731,5.439-5.078,2.721-1.576.343.644,1.053.022,7.7-1.241,2.788.155,3.567-1.156,3.705-4.3.732-1.93,2.489-1.845,2.7-.243,6.084,1.466,3.656,1.374,5.053-2.53,11.271-1.594,2.423-.777,13.445-5.435,3.7-1.863,6.2-5.015,5.258-6.9,3.749-7.833,3.429-4.482-.295-2.04.892-1.907.593-.556,1.624.379,1.233-.644,1.83-1.421,1.325-1.885,1.532-.729,5.192-3.973.751-1.775-.136-1.374-.733-.667-1.966-.534-1.12-1.617-.272-4.75-1.466-3.682.07-4.9.777-2.994,2.032-3.4,3.046-2.8,1.689-1.042,3.152-.022-1.256-2.729,1.054-1.377.685-.265.549.508h.593l2.792-.932.25-.707-.641-.91.6-2.419.707-.777,1.3-.265,1.3-1.4.137-1.374.526-.821,1.761-.622,1.693,1.642-.526.645-1.233-.133-.825,2.773,1.576,2.084,1.9,1.153.5,1.908,4.757,8.632,6.1,9.471.549,2.062.456-2.195-.843-1.6.092-1.974,1.37-4.036-1.12-3.329.457-1.908,1.58-.044,3.151,3.7,1.83,1.6.892.376.619-.331-.962-.446-1.142-1.374-.895-3.462,2.356-2.618-.824-.42-1.9.552-.387-.265-1.212-2.508-2.721-2.861.136-2.729-2.787.044-1.9-1.664,1.693-.066,3.657.8,1.69-2.486.206-1.285-.251-.976-2.765-.534-.9-.773-.066-2.2.343-.711,3.866-.821,1.985,1.51-.545,1.178-1.281.331,2.651,2.707,1.3.265.045-.976,1.785-2.353,3.017.423,1.325.574.663.423.892,2.062.688.468,2.559.133,1.282-1.421,2.261,1.064,2.563.247,3.727-.512,2.651,1.13,1.418-.574-1.922-.177-2.924-1.333-2.036-.468-1.3-.088-2.033.578h-1.531l-.435-.442-.619-2.684,1.348-2.975,1.006-.221,1.192,1.753,1.849-1.241-.18-2.287.729-2.6,2.791-2.729-1.4-.552-1.348.376-2.014,3.329-1.164.022-2.173-1.819-.707-4.883,2.125-4.725.777-.331,2.309,1.285,1.853-.932.435-.619-.276-4.772,1.053-.243,5.145,2.552,2.011,1.885,4.666,2.195-2.607-2.239-.137-.556,1.187-2.106-.523-.534-2.128-.022-2.468.887-.276-1.418.917-1.245.958-.442.71.442.983-1.639-.776-.2-3.248,2.088-.686-.022-.729-1.885.8-1,1.071-.486,1.466.42.523-.155,1.3-.888-.364-.843,1.487-1.02,1.713,3.749.435.269.254-1.064-.324-2.132,2.932,1.665.066.887.982.464,2.31-.11.5-.464-.432-.357-.755.066-.662-.574.729-.689-2.7-1.863-2.445-1.175.821-.932.663-.221-2.651-3.819,2.673-3.7,2.31-1.863,1.3.534,4.985.11.251-3.016-.479-2.909.316-1.661.641-.468,2.743,1.263-2.146,8.831.456-.464,1.532-5.126,2.994,1.484-.457,2.662.479.869,1.466.887,2.2-2.375,1.163-.8.711-4.238,1.9-3.749.092-1.55-1.624-4.04-1.576-.976,1.234-.265,1.988.287,1.716.843-.206,1.863-1.281.53.847,2.71,1.053.287,1.326,1.307.637-.976-.456-1.307.982-2.22,2.424-1.863,1.764-.243-1.168,2.773,2.813,3.528.8.221,2.559-2.618,2.129-3.749-1.075-4.349,2.787-1.086,2.424-.552,1.531,1.2,1.418,1.775-.435.932,1.76,2.106.619-.954.022-.8,2.172-.088,4.548,1.421,2.379,3.259,3.406,2.22,7.432,10.027,1.075-.512,4.205,3.506.457,2.419-1.187,1.664-1.764,5.767.254,2.618-.161,4.725-1.3,2.53,1.189-.667.688-.932.869-5.457,1.233.486,1.874,1.8.729,2.349.118-2.394-1.669-2.821-.8-3.1,2.836-3.771.5.088.663,3.171,2.354.066.25-1.13-.983-1.731-.776-3.259,3.683-1.02,11.521,2.8v59.652l.137,225.373-.295,155.778-5.145,2.176-5.921,3.347-9.217,4.062-4.228,1.642-6.812,1.285-9.991,3.749-5.214.887-10.859.49-7.133-.667-5.465-1.532-2.743,1.311-2.4-.512-4.113,2.176-7.225,5.767-1.761.755-3.523.729-7.612,4.084-2.879,2.5-3.293,1.933-8.528,1.352-2.993,1.153-2.291,1.819-2.08,2.574-2.582,7.276-1.163,4.772-2.379,1.617-2.243,2.287-.843,1.642-.026.777-1.1,1.175-3.727,2.464-4.275-.313-.641.247-1.484,1.948-1.146.847-1.69.53-1.668-3.815-2.059-.843-4.3,1.421-2.857-.4-3.385.133-.456.446-3.543.354-1.97-.376-1.393.53-.891,1-.276,1.466-3.292.331-.961-.309.526-1.086-.732-2.508-1.44-1.8-.5-.177-1.922.331-1.37,1.267-2.014.552-6.4-2.239-1.532-.11-3.107-.066-7.066,1.2h-4.688l-1.756.91-6.246.843-3.063,1.642-4.069-1-6.149-.313-4.754,1.421-1.83,1.952-3.042,1.572-1.3,1.444-2.055,3.506-.343,1.775-3.523,3.351-2.9,1.664-3.222-1.112-4.161-.376-4.279,2.817-.5.733.869.932-.869.954-2.014,1.2-4,1.267-1.462,1.462-.755,1.93-2.63,1.907-4.96,2.574-6.058,1.064-.1.6.6.622,3.428.733-1.531.84-1.875-.331-1.852-1.418-1.418-.512-1.554.088-.777.534-.571,2.018Zm889.109-207.734.137-2.305.961-5.281.961-.225,1.713.291-1.646,5.277-.526,3.042-1.164.133Zm-.755-13.489v-3.638l2.125-1.13.549.4-1.278,4.7.251,4.15Zm-996.449-28.771-3.679-5.413-1.853-3.616-1.145-4.172.162-2.327.982-1.377,1.234.287-.5,1.178.088.729,2.928,8.12,2.516,4.437.5,1.753-.5.976Zm988.491-8.941-1-1.311-1.348-4.769,1.325-3.148,1.669-2.688-.022-2.283-.343-.578,1.027-2.084,2.585-2.018,1.142-2.176.207-1.175-.251-.91-1.487-2.349-.479-.269.935-1.687,2.129-1.351.206,5.413.571,1.219,1.188.755.251.932-6.058,13.846-1.1,3.48.365,2.154-.435,1.219Zm-46.295-54.021-.961-2.062-1.669-1.466-.961-2.084-.229-1.819,1.1-.243,3.477,2.128.479.777,1.6,2.972.3,2.044-.667.773-1.119.2Zm-888.628-74.691-.618.574-.181-.2.022-1.355,2.537-3.325.821-.49.3.155.343,1.753-.114.777-1.44,2.176-.82.619Zm765.719-60.657-.482-2.305-1.1-1.444-1.142-.53-.619-1.108,1.027-.247,3.524,1.6,2.055,2.883-.729,1.377-.824.42Zm-169.3-34.7,2.537-2.305,1.281.888.409,1.841-2.924-.066-.6,1.086Zm-6.5-9.648.667-2.552,1.414-1.907,2.08-1.532,4.3-.508,1.348-.711,4.779.755.137,1.462-1.075.49-1.624.331-1.075-.843-2.283.887.364.777-1.532,2.464-2.765,1.02-3.591.645-.892.685Zm-52.073-22.783-1.554-2.243.456-1.285,1.418-1.352,1.12,1.352.938,2.95-.641,1.576-.32.022Zm-12.369-3.863.5-2.084,1.417-.932.707.313-.435,2.729-1.554.287Zm-297.651-5.365-1.329-1.2.206-1.108.618-.954,1.624-.641,2.147,3.48-3.064,1.112Zm14.2-19.745.159-1.885.574-1.418,1.163-1.178,1.146,1.245-.57,2.707-.892.42-.276.8Zm289.72-8.875-2.949.423-6.309-1.532.869-4.235-.184-1.823.57-2.062.711-1.175,3.358-.622.8-.6-.707-1.554,2.081-1.687,1.075.066-.185,1.131-.961.644.917,2.574,2.354.4.824-.843-.25-.843.456-.6.821-.225.733.512.18.91-2.444,2.441-1.3.821-1.532,3.3.044,2.287.711.6,3.318.486.913-.821.387-.622,1.075-.066-.641,3.108-1.3.486Zm-13.581-10.782-.8-1.351-.641.42.391,1.178h-1.054l-.39-.468.231-2.062,2.173-1.665,1.05.177,1.1,1.444-.342,1.576-.825,1.285-.958.354Zm-130.182-46.274h0Zm-2.423-1.952-4.548-1.823-4.573-3.48-1.853-4.728-1.325-4.769.184-1.8.526-.4,3.451,2.928,1.031,1.62,3.266,1,3.477-.8,1.348-1.219,2.607,1.086,2.9-2.173.755-.07.5,1.664,1.281,1.775.11-.622-.843-2.062.3-1.219,1.646-1.267,3.634,1.422,2.744,3.506.206,1.841-6.334,6.455-.8.11-3.064,1.908-4.209,3.064Zm-13.26-2.044-5.737,1.421-1.37-.265-.391-.6-.184-.644,1.373-2.416,1.142.663.939.044.913-.865-.07-3.391-.408-1.046,2.032-3.439,2.194-.442,3.661,8.875,1.76.442,1.853,1.62-.574,1.219-3.017.357Zm145.338-3.215,2.265-1.753,1.875-.088,3.292-2.486-.229,1.219-2.489,1.841-4.714,2.4Zm8.05-5.726,3.362-4.724,2.125-4.169,1.119-.578-1.212,4.526-4.047,5.5-.549.49-.891.088Zm-97.81-2.349-.868-2.331-.729-4.058,1.9-.711,1.189,3.793-.044,2.4-.711,1.664Zm236.078-14.465-.114-1.532,1.487-.954,1.027-.2,1.212,1.775-.158.91-1.189.287-.711.932Zm2.238-11.78-.526-.8.961-1.421,1.374-.243.821.376.574.979-1.487,1.819Z" transform="translate(14673.001 1248)" fill="#ffeec0"/>
</svg>
