<svg xmlns="http://www.w3.org/2000/svg" width="69.252" height="121.452" viewBox="0 0 69.252 121.452">
  <path id="Path_586" data-name="Path 586" d="M175.495,132.127l-.043-72.174V41.014l.47.155.664.574-.081,1.38,0,.057.036.044.128.157.114.139.113-.14.505-.626.04-.05-.01-.064-.285-1.884.013-.027.665.184.959.486,1.548,1.727.057.342.029.177.167-.064.427-.164.183-.07-.119-.155-.518-.679-.269-.559-.088-.523.149-.292.01-.02,0-.023.062-.388,1.042.181.036.006.035-.012.491-.164.031-.011.024-.023.619-.6-.145-.245-1.316.414-.618-.4-.525-.687-.078-.227.146-.073.586-.061.038,0,.031-.022.506-.356.05-.035.01-.06.028-.171.04-.241-.231.078-.833.28-.863-.159-.618-.356-.68-.648.078-.534.446-.85.453-.6,1.835-1.153.053-.033.013-.061.42-1.979,0-.024,0-.024-.04-.336.347-1.367.314-.325.029.2.01.07.061.036.27.157.047.027.053-.01.747-.135.03-.006.025-.017.947-.641.013-.009.011-.012.776-.819.057-.059-.021-.079-.078-.292-.007-.026L185.1,28.2l-.484-.662-.011-.014-.013-.011-.263-.221-.028-.023-.035-.008-.185-.04-.025-.068.069-1.343.1-.27.139-.062.042.079.023.043.044.021.228.107.045.021.048-.011.292-.064.029-.006.025-.017.5-.356.032-.023.016-.035.2-.434.016-.034,0-.037-.069-1.02.052-.174,1.036-.462.641.73.048.055.073-.005.683-.05.03-.286-.576-.169-.187-.706.188-.46.008-.02,0-.022.057-.626.007-.081-.065-.049-.032-.024.092-.038.992.316.954,1.611.272.46v-.74l.41-.523.1-.124-.131-.088-.967-.651.173-.4.218-.109,1.052.034.114,0,.031-.11.071-.249.008-.028,0-.029-.078-.676,0-.026-.012-.023-.174-.343.1-.152.569.029.736.477.033.021.04,0,.967.048.677.487.029.021.035.005.434.064.016,0h.016l3.361-.226.984.312.068.022.059-.04,1.207-.828.927.019.36.685-.233.5.237.164.42-.427.025-.025.011-.034.057-.185.01-.033-.006-.034-.148-.869.1-.184.929-.333.762.281.03.011.032,0,.513-.043,0-.291-.26-.031-.474-.351-.069-.292.056-2.2.412-.649.073-.115-.109-.081L202.76,14.5l-.378-.536-.017-.024-.025-.016-.321-.2L202,13.709l-.028-.005-.584-.107-.025,0-.025,0-1.1.185-.024,0-.021.011-.915.492-.053-.005-.684-.684-.139-.476-.017-.059-.054-.029-.811-.434-.038-.021-.044,0-.5.045.68-.812.733-.336.726.713.572,1.354.034.08.087.008.3.028.1.009.046-.084.235-.427.03-.055-.019-.06-.335-1.039,0-.014-.007-.013-.262-.472.042-.01.693.236.06.02.056-.029.411-.217,1.147.959.067.294.007.032.02.026,1.224,1.566.033.041.052.011.42.093.067.015.054-.042.356-.278.019-.014.013-.02.742-1.11.193.016.554.593,1.151,2.084.014.025.023.018.285.228.023.018.027.008.527.157.066.02.057-.038.4-.267h.263l.348.506.024.035.039.017,1.1.463.025.011h.028l.527.014h.025l.024-.008.377-.121.013,0,.012-.007.747-.406.029-.015.019-.026.231-.312.666.113.016.046-.428.245-.03.017-.019.029-.121.185-.032.049.011.058.035.192.009.047.035.033.242.228.019.018.024.01.555.235.06.025.059-.028.427-.2.033-.015.022-.029.192-.252.058-.009.891.679-.023.037-.029.047.009.054.107.634.009.055.043.035.15.121.05.04.064-.009,1.22-.179.362.148.021.008.022,0,.733.064h.015l.015,0,.641-.078.039,0,.032-.024.534-.407.637-.036.722,1,.02.028.031.016.961.5.657.545.035.029.045,0,.816.076.277.125.288.13-.087-.3-.029-.1.284-.737.435-.435.314-.135.39.173.037.016.04,0,1.146-.135.042,0,.033-.026.591-.477.168-.136-.189-.106-.178-.1-.074-.041-.073.043-.285.17.123-.445.61-.165.506.014h.053l.042-.033.982-.783,0,0-1.221,1.036-.112.095.1.112.241.283-.8.816-.033.034-.007.047-.036.249-.006.039.015.037.149.37.012.03.023.022.363.342.07.066.088-.039.392-.171.058-.025.021-.06.1-.282.579-.475.6-.176-.369.466-.066.083.059.088.263.4.069.1.114-.053.448-.207.023.039-.567.821-.045.065.03.073.213.527.012.03.024.022.228.214.083.078.1-.062.292-.188.454-.05.059.1.047.081.093-.009.534-.05.042,0,.034-.026.413-.32.032-.025.015-.037.541-1.374.03-.077-.05-.066-.206-.27-.051-.067-.083.011-.694.088-.361-.153-.007-.039.739-.733,1.273-.851.6-.108-.109.362-.014.046.016.045.484,1.36.006.018.011.016.548.8.045.065.079,0,.349-.007h.045l.037-.026.3-.214.071-.051-.011-.087L235.365,20l-.011-.089-.084-.031-.283-.1.379-.095.7.358.68.919-1.222.853-.015.01-.012.014-.456.527-.008.009-.006.01-.783,1.26-.015.023,0,.027-.146.783-.812-.3-.169-.063-.026.179-.078.527-.007.048.023.043.459.849-.007.712-.121.705L233,27.7l-.027-.093-.145.05-.429.146.024-1.193v-.062l-.044-.044-.121-.121-.058-.058-.08.019-.242.057-.076.018-.028.074-.293.791-.6.52-.153.01-.07-.2-.022-.063-.062-.025-.377-.149-.054-.021-.054.021-.8.313-.022.008-.018.015-.513.42-.02.017-.013.023-.278.477-.024.041,0,.047.021.221.006.063.05.039.222.172-.146.327-.316.263-.042.035-.008.054-.143.89-.006.036.012.034.334.989.018.054.05.027.3.164.05.028.056-.014.427-.107.044-.011.03-.034.048-.054-.011.144-.232.79-.479.737-.018.027,0,.032-.21,1.407-.185.358-.866.584-.019.013-.015.019-1.018,1.317-.006.008-.005.008-.626,1.082-.019.032V38.5l-.012.5-.867.587-.266-.006-.21,0,.069.2.477,1.381.006.018.01.016.328.491.011.017.016.013.513.434.02.017.025.009.974.35,1.378.881.71.647.014.013.017.009,2.056,1.067.169.148.176.925.007.038.025.03.427.5.02.023.028.013,1.905.91.768.637.712.776.041.044.061,0,2.01.084.781.407,1.786,1.268.013.009.014.006.918.391.03.013h.033l.4-.013.763.252.658.326.918,1.46.012.019.017.015,1.045.889v77.766l-52.144.007-10.3-.007Zm62.061-83.859-.343-.254-.429-.638.107-.311.3-.3.23.286.268.871Zm-4.081-1.444-.052-.026.117-.5.326-.221.045.02-.1.664ZM236.265,36.1l-1.022-.272-.029-.008-.03,0-.89.131-1.8-.45.243-1.223,0-.021,0-.022-.054-.557.166-.617.177-.3.981-.187.034-.007.028-.021.249-.192.091-.07-.046-.105-.176-.4.518-.433.116.007-.022.142-.247.171-.091.063.036.105.285.826.028.082.085.015.733.128.077.014.054-.057.256-.27.058-.061-.023-.081-.058-.2.069-.094.14-.039.124.089.031.16-.7.716-.392.254-.036.023-.018.039-.477,1.061-.013.03v.033l.014.733v.065l.049.043.221.192.032.028.042.006,1.032.157.07.011.052-.048.285-.263.015-.014.011-.018.081-.134.068,0-.146.731Zm-5.146-3.525,0-.055,0-.045-.022-.039-.249-.434-.079-.137-.131.089-.2.135-.065.044.03-.281.577-.455.205.036.268.363-.088.416-.217.349Zm-.67-.134h-.057l-.039-.048.02-.188.016.049Zm-40-14.967-.666-.553-.017-.014-.02-.008-1.4-.576-1.376-1.08-.56-1.471-.4-1.5.048-.488.019-.015.967.845.309.5.029.046.052.016,1.018.32.038.012.039-.009,1.082-.256.038-.009.028-.026.35-.326.724.311.079.034.068-.053.87-.672.073-.007.123.418.007.023.014.02.4.569.2.289.062-.347.036-.2.007-.041-.016-.039-.246-.619.07-.3.406-.321,1.015.409.805,1.06.052.483-1.89,1.985-.2.028-.031,0-.027.017-.954.612,0,0,0,0Zm38.178-.546,0-.072-.02-.39.062,0,.151.175-.166.267Zm-41.766-.207-1.247-.478-.044-.017-.045.012-1.754.447-.333-.067-.076-.121-.035-.128.325-.591.226.135.032.019.037,0,.292.014.064,0,.046-.044.285-.278.045-.044v-.063l-.021-1.089v-.026l-.009-.024-.1-.27.566-.986.5-.1,1.093,2.733.028.069.072.019.513.133.47.424-.1.219Zm44.1-1.253v-.051l.613-.489.459-.022Zm2.49-1.758.012-.149,1.024-1.484.006-.009,0-.009.641-1.3.013-.007-.287,1.1-1.235,1.731-.124.113Zm-30.4-.977-.052-.055-.256-.707-.2-1.172.332-.128.318,1.044-.013.718Z" transform="translate(-175.452 -10.675)" fill="#192857"/>
</svg>
