<svg xmlns="http://www.w3.org/2000/svg" width="127.447" height="90.549" viewBox="0 0 127.447 90.549">
  <path id="Path_590" data-name="Path 590" d="M381.427,371.147l-.476-.224-.331-.5-1.014-2.655-.014-.039-.026-.032-1.477-1.854-.042-.052-.062-.027L376.9,365.3l-.092-.039-.095.031-.687.22-.126.04-.044.125-.126.362-1.031-.087-1.008-2.039.259-.419.08-.13-.072-.135-.44-.83-.063-.117-.132-.021-1.244-.195-.1-.016-.086.058-.924.616-.562.092-.47-.272-1.995-2.019.194-1.39,1.1-.46.084-.035.045-.079.492-.868.066-.116-.053-.122-.985-2.255-.032-.074-.068-.043-.584-.376-.075-.048-.089.006-2.657.194-.183.013-.052.176-.578,1.934-2.463,2.537-1.115.221-.427-.068-1.528-1.78h1.148l.052-.023,1.477-.661.08-.036.043-.076,2.06-3.628.054-.1-.029-.106-.453-1.672-.011-.04-.023-.035L361.7,348.84l-.039-.06-.064-.032-.816-.415-.115-.058-.117.053-1.309.6-.041.019-.033.031-1.867,1.79-2.235,1.67-1.909.2-.094.01-.067.067-.246.246-.092.092.015.129.078.647.023.2.2.034,1.944.337.067.012.065-.022,1.089-.376.038-.013.033-.024.543-.4.72.2.129.323-.13.662-.671,1.031-.212.157-1.085-.256-.059-.014-.059.012-2.164.467-.043.009-.038.023-.454.272-.006,0-.006,0-4.238,2.864-.032.022-.025.031-3.03,3.731-1.473.405-.045.012-.038.026-.518.363-.066.046-.029.075-.283.719-1.662,1.226-.327-.088-.814-.96-.029-.034-.039-.023-.79-.466-.026-.015-.029-.009-2.853-.913-.615-.627-.023-.023-.027-.017-1.192-.739-.049-.03-.057-.008-1.042-.138-2.306-.932-3.742-2.893-.03-.023-.035-.014-2.19-.868-.078-.031-.082.02-1.555.376-.083.02-.056.064-.177.2-1.077-.022-1.295-.745-1.356-1.126-.05-.042-.063-.014-2.021-.441-.027-.005h-.027l-.985-.013h-.039l-.037.01-1.011.285-.055.016-.044.037-.829.7-.095.079v.745l.029.057.28.552-.7.2-1.5-.734-1.181-1.433-.011-.013-.012-.012L308.42,353.6l-.017-.015-.019-.012-1.257-.83-.017-.011-.018-.008-1.75-.81.051-69.57.571.56.05.049.067.018.427.117.024.006.026,0,2.375.178,2.249,1.048,1.51.924.215.295.136.186.2-.108.686-.363.055-.029.036-.05.745-1.025,1.09-.42,2,.523.06.015.061-.012,2.118-.436,1.519.693,1.06.731,1.892,3.182.063,2.367,0,.112.083.077,1.172,1.084.707,1.889-.031.273-.013.116.076.088.479.557.06.07.091.018,1.192.233.16.031.1-.127.635-.8.038-.047.013-.059.442-1.957.166-.236.6-.2.7.466.163.392.043.1.1.042,1.659.674.039.016.043,0,2.041.139,2.885,1.573.1.149-.012.969-.332,1.673-.01.049.009.049.376,2.138.006.034.014.03.648,1.426.034.074.069.043,1.049.648.035.021.04.01,1.038.26.418.647-.284.864-.039.121.069.107.233.363.026.04.039.029.868.648.1.073.119-.027.507-.112.886.322,2.132,1.621.017.013.019.01,2.356,1.253,1.053,1.453.017.023.021.019,1.426,1.27.042.038.053.017.74.239.245.254.707,1.615.015.036.026.03,2.955,3.46.029.035.039.023,1.737,1.01.031.019.035.009.545.142.07.019.07-.02,2.488-.7.221-.062-.029-.228-.214-1.71.463-1.681.167-.2,1.647-.424h1.6l.406.329.062.051.08.008,1.231.116.081.008.072-.039,1.2-.656.983-.215.231.026.953.748,1.649,1.585.035.034.046.019.985.415.026.011.028.005,4.017.765.013,0h.013l2.916.259.067.006.062-.026,1.477-.635.05-.021.038-.04.427-.45.75-.1,1.345.2,1.2.942.038.03.046.015,3.136.985.03.01.031,0,1.892.129.055,0,.052-.018,2.328-.819,1.237-.113.112-.011.071-.088,1.245-1.554,1.162-.2,1.936.367.075.014.071-.028,1.1-.427,2.239.96,1.405.893.71,5.6.01.073.045.058.877,1.118,1.25,2.549-.128,1.124-1.112,1.922-.211.365.42.034,1.218.1,24.481,12.336-.651.414-1.542.136-.128.012-.071.108-1.542,2.351-1.2.614h0l-1.668.821-2.013.2-6.791.038h-.019l-.018,0-2.335.334-2.3-.09h-.029l-2.6.181-.029,0-.028.008-4.86,1.439-.022.006-.021.01-2.877,1.426-.023.011-.02.015-3.071,2.332-.011.009-.01.009-2.372,2.216,0,0,0,0-2.242,2.229-.008.007-.007.008-3.409,3.965-1.273,1.126-3.068.391-.016,0-.015,0-3.011.759-1.03-.327-.047-.015-.05,0-1.283.078-.046,0-.042.018-.583.246-.074.031-.044.067-.493.739-.09.134.078.142,1.568,2.863.143.262.244-.172,1.62-1.141.078-.055.025-.093.215-.785.072.034.2,4.611-.732.926ZM366.31,360.186l-.544-.236-.061-.027-.067.006-1.613.134.611-.595,1.124-.223.216.142Zm.474-1.91L366.07,358l-.135-.609.259-.854,1.927.4.361.427-.714.01-.11,0-.077.079Z" transform="translate(-304.842 -281.153)" fill="#192857" stroke="#707070" stroke-width="1"/>
</svg>
