<svg xmlns="http://www.w3.org/2000/svg" width="107.765" height="95.355" viewBox="0 0 107.765 95.355">
  <path id="Path_589" data-name="Path 589" d="M381.479,301.527,366.744,294.1l-.028-.014-.031,0-.512-.042.56-.968.017-.029,0-.033.086-.758.005-.047-.021-.042-.781-1.594-.007-.015-.01-.013-.512-.653-.432-3.41-.01-.075-.064-.04-.922-.586-.011-.007-.012-.005-1.422-.61-.06-.026-.061.023-.684.265-1.15-.218-.028-.005-.028,0-.789.133-.06.01-.038.048-.746.931-.7.064-.02,0-.019.007-1.391.489-1.089-.075-1.845-.579-.735-.576-.033-.026-.042-.006-.875-.133-.022,0-.023,0-.531.07-.056.008-.039.041-.274.289-.823.354-1.71-.152-2.4-.456-.551-.232-.979-.94-.006-.006-.006,0-.617-.485-.036-.028-.045,0-.211-.023-.026,0-.026.005-.641.141-.023,0-.02.011-.7.382-.645-.061-.251-.2-.044-.036h-1.117l-.02.005-1.063.274-.05.013-.033.039-.156.188-.022.027-.009.033-.3,1.078-.009.031,0,.032.116.926-1.325.373-.265-.069-1-.585-1.748-2.047-.428-.978-.011-.026-.02-.021-.2-.2-.028-.029-.038-.012-.452-.146-.821-.732-.646-.892-.022-.03-.033-.017-1.442-.767-1.295-.985-.019-.015-.023-.008-.6-.219-.044-.016-.046.01-.28.062-.441-.329-.084-.13.171-.521.024-.073-.042-.064-.328-.508-.034-.053-.062-.015-.663-.166-.57-.352-.362-.8-.218-1.239.2-.994,0-.014v-.015l.008-.648v-.05l-.028-.041-.11-.164-.022-.033-.035-.019-1.805-.985-.031-.017-.035,0-1.24-.084-.914-.371-.091-.22-.019-.045-.041-.027-.531-.351-.066-.043-.075.025-.484.164-.05.017-.03.043-.148.211-.018.026-.007.031-.265,1.176-.3.379-.568-.111-.207-.24.015-.133,0-.038-.013-.036-.453-1.211-.013-.036-.028-.026-.685-.634-.037-1.4v-.042l-.021-.036-1.18-1.985-.018-.03-.029-.02-.68-.469-.012-.008-.013-.006-.977-.445-.048-.022-.051.011-1.292.266-1.222-.319-.05-.013-.048.019-.75.289-.044.017-.028.038-.455.626-.258.137-.067-.091-.019-.025-.027-.017-.945-.578-.008,0-.008,0-1.391-.649-.027-.013-.029,0-1.446-.108-.2-.055-.32-.314.039-49.549.849-.007,17.033.008h49.438l.034-.017.648-.32.032-.016.022-.028.983-1.23L377.453,212l.868-.239.1.018.1.206.031.065.069.02.742.219.029.009.03,0,2.61-.227.022,0,.021-.008,1.2-.462,1.1-.135.16.037.616.638.012.012.014.009.586.4.039.026h.047l1.414.039h.019l.018,0,1.23-.255,2.072.945,2.1,1.809.1,1.4,0,.029.012.026.344.766.025.055.055.025.187.086.051.023.054-.013.414-.1.046-.011.032-.034.407-.43.017-.018.011-.022.74-1.51,1.27-.564.243.468.025.048.049.023.523.25.069.033.069-.033,1.625-.781.075-.036.014-.081.273-1.571.008-.048-.02-.044-.716-1.621.71-.561.928-.456,1.677-.551.021-.007.019-.013.344-.235.041-.028.018-.046.157-.4.4-.334.25.036.517.532.034.034.047.011,1.391.3.025.005.026,0,1.573-.163,1.385.093.087.006.052-.069.611-.81,1.072-.2.015,0,.014-.005.93-.36.023-.009.02-.016.526-.428.467.425.1.555-.27,2.061,0,.022,0,.022.156,1.094.005.04.024.032.355.483-.148,1.831L411,216.038l-.016.021-.008.025-.938,2.75-.018.052.018.052.221.64-.937,5.336-.411,1.565-1.576,4.432-.008.023v.024l-.109,2.617v.025l.007.025.133.477.029.1.105.014.188.025.111.453-.855,2.865,0,.012,0,.012-.163,1.137-.883,2.922-.737,1.5-1.708,2.159-.015.019-.009.023-.391,1.016-.016.043.009.045.246,1.3-.1,1.31-1.425,1.207-.01.008-.008.01L401.1,251l-1.284.8-.062.039-.012.072-.07.43-.008.049.021.045.136.292-1.458.512-.011,0-.01.005-1.2.617-.037.019-.023.035-1.211,1.821-.009.014-.006.015-.79,1.955-.117.1-.378.027-.05,0-.039.032-.4.32-.047.037-.011.059-.086.461-.017.089.068.06.287.255-.242.96-.95,1.272-.025.033-.006.041L392.7,264.2l-.186.672-.211.162-.428-.048-.04,0L391.8,265l-.664.266-.449.18.468.125.43.115.218.2-.6.979-.741.552-.022.016-.015.023-.758,1.117-.012.018-.007.02-.8,2.321-.029.085.057.069.295.362-.391,1.781-.49.308-.052.032-.017.059-.172.594-.014.049.016.048.3.867.012.034.025.026.536.557-.106.551-.067.057-.1-.11.054-.113.025-.052-.014-.056-.117-.477-.027-.11-.112-.012-.227-.023-.055-.006-.047.029-.539.336-.06.038-.013.07-.063.344-.008.047.018.043.18.438-.391.436-.882.487-.042.023-.022.042-.461.867-.014.028,0,.031-.045.419-.613,1.779-.42.68-.005.009,0,.009-1.641,3.594-.011.023,0,.025-.211,1.79v.018l-.015,2.212-.46.6-.024.031-.007.038-.452,2.509-.48,1.743-.536,1.351-.012.031v.033l.039,1.54v.057l.038.044.813.942.1.675,0,.124-.046-.014-.078-.024-.066.048-.359.266-.066.049v.082l.016,1.235v.018l0,.017Zm-7.4-24.547-.084.062-2.227,1.641-.05.037-.012.061-.406,2,0,.015v.015l-.015,1.446v.03l.01.028.227.617.007.018.011.016,1.133,1.68.013.018.017.014.2.172.023.02.029.01.852.289.119.04L374,285.1l.407-.633.016-.025.006-.03.063-.312,0-.023,0-.023-.185-2.122.471-1.882.364-.512.559-.266.742.1.074.01.055-.049.375-.336.157-.141-.178-.114-.523-.336-.015-.01-.017-.006-.74-.266-.418-.5-.019-.022-.025-.014-.992-.563Z" transform="translate(-305.202 -207.1)" fill="#192857" stroke="#707070" stroke-width="1"/>
</svg>
