<svg xmlns="http://www.w3.org/2000/svg" width="107.909" height="125.94" viewBox="0 0 107.909 125.94">
  <path id="Path_600" data-name="Path 600" d="M405.712,481.5l-.24-.54-.1-.218-.236-.038-2.877-.452-1.918-1.448-.077-.058-.094-.021-1.962-.426-.035-.008-.036,0-4.93-.249-.275-.191-.293-.789-.077-.207-.211-.061-.661-.192-.125-.036-.125.038-2.661.812-1.383-.461-2.145-3.376.879-.618,2.31.347,1.191.647.056.031.064.013,1.749.362.517.107.011-.527.043-2.09,0-.211-.162-.135-1.642-1.365-.408-.339-.256.464-.752,1.361-5.761-.738-.332-.234-2.49-5.084-.01-.02-.012-.019-3.05-4.863-.026-.042-.035-.035-.491-.491-.136-.136-.193.008-1.195.053-1.045-1.68-.826-1.755-1.59-5.871-.028-.1-.073-.079-1-1.088-.082-.09-.118-.034-.905-.263-1.4-9.013.139-1.441.252.452.045.079.072.055,3.946,3.017.968,4.492.325,1.5.518-1.449,1.919-5.375.112-.315-.273-.192-1.216-.853-.132-.092-.16.014-.743.066-3.911-4.295-.392-1.12.041-1.8,0-.058-.014-.055-.341-1.408-.011-.046-.021-.043-1.472-3.008-.035-.071-.058-.055-2.959-2.791-2.279-4.034-6.169-15.147.189-.96.016-.084-.017-.085-.639-3.242-.012-.063-.031-.058-.668-1.254-.384-2.766,1.706-1.55.141-.129,0-.19.039-3.31,1.081-.72,4.907.585,2.936,2.171.148.11.183-.03,3.469-.565,1.254,1.064.066.055.082.027,4.668,1.52,7.68,4.562.018.011.018.01,7.423,3.5.07.033.077.007,4.906.448.085.007.082-.025,2-.607,1.842,1.039.735.415-.083-.84-.087-.868,1.6-1.7,1.4-.492.843.266.453,1.789.048.193.178.09,1.216.618.1.05.11,0L408,405.06l.818-.018-.467-.671-.683-.982-.1-.14-.167-.037-1.5-.336-.259-.247-.079-1.091.837-.769,3.32-1.5,2.845.948.111.037.114-.023,4.627-.938,1.244,1.112.242.216.277-.168,1.663-1,.1-.058.056-.1,2.271-3.937.36-.225,1.108-.274.383.56.069.1.112.051,2.41,1.088.1.044.106-.006.81-.042.106-.005.091-.054,1.472-.853.1-.058.058-.1.747-1.259.036-.061.016-.069.38-1.74.251-.274.69.03,1.395.648,3.2,2.369,1.147,1.509,1.2,2.689-1.429,5.1-.024.082.01.084.17,1.579.013.121.075.1.875,1.148.077,2.118-.984,3.6-.019.068,0,.072.149,2.624,0,.061.02.058.751,2.173-1.131,6.115-.011.064.007.064.768,6.827.007.056-.525-1.411-.015-.039-.022-.036-1-1.642-.411-.674-.355.7-2.688,5.333-.033.066-.01.072-1.729,12.506-.944.963-.093.095-.025.13-.341,1.792-.011.058,0,.059.24,3.045-1.526,1.586-.075.077-.03.1-.939,3.157-.056.189.1.168.32.511.139.222.261-.017,1-.064.64-.04-.271-.582-.276-.594.161-.121,1.111.677.5.98.108,1.853-.663.437-.168.111-.026.2-.362,2.751-.016.123.049.112,1.189,2.684L432,468.4l-.031,0-1.5-1.328-.21-.185L430,467l-1.663.725-.118.052-.072.106-.542.807-1.729-2.144-1.468-3-.256-1.3,1.112-1.983.336-.1.258.239.067.48-.3.627-.131.27.2.22,1.429,1.536.144.154.211-.016,1.983-.15.143-.011.109-.093.725-.618.276-.236-.18-.315-1.707-2.987-.055-.1-.1-.059-5.419-3.306-.138-.085-.16.026-.79.128-.106.018-.087.064-1.28.961-.223.167.057.273.447,2.154.011.049.021.045.637,1.388-.442.885-1.719.562-.241-.6.133-.082.235-.146-.029-.274-.341-3.2-.023-.209-.176-.113-2.091-1.344-1.147-.737.5,1.267.682,1.724-.475,3.049-1.268,1.55-.061.073-.024.091-.619,2.3-.027.1.022.1.453,2.138-.3,1.8-.491.318-.553-.073-1.719-1.106-1.563-1.84-.3-1.883-.04-.248-.234-.091-.49-.192-.34-.133-.193.31-.49.79-.065.1v.123l-.022,2.133,0,.2.145.132,2.7,2.462-.811,2.026-1.193,1.864-.029.044-.017.05-1.152,3.348-.013.039-.006.04-.318,2.143-.326.283Zm10.574-4.205-1.219-.565-.134-.061-.144.031-1.133.247-.947-1.976,3.442-4.249,1.17,3.059-.95,3.441Zm1.682-7.939-1.353-2.832,1.022-1.782.482.74.794,3.683Zm15.351-16.989.065-2.556,1.041-.793.783.069.775,1.52-1.183.015-.22,0-.129.178Zm6.29-14.024-.339-.287-.057-.4.5-.642.074-.094.016-.118.277-2.048.015-.109-.039-.1-1.086-2.92.025.039,1.347,2.184.118,3.277Zm-79.066-47.648-.057-.042-.079-1.092.942-1.117,1.325,1.515Zm80.211-7.246-.027-.624-.005-.125-.069-.1-.405-.6-.152-.223-.267.034-5.256.667-1.683-.729.025-.675,1.271-1.042,1.359-.074,1.548.468.168.051.156-.08,2.933-1.485,2.731,3.248-1.262.488-.06.024-.051.04Zm-5.253-6.56-1.727-.951-.523-1.982.108-.54.031-.154-.074-.138-2.645-4.97-.037-.069-.059-.053-3-2.674,2.5-3.3,1.561-.671,4.379,5.846.039.053.054.039.854.618.066.048.079.021,1.512.4.132.605,1.076,5.882-.061.584-.426.4-2.8.51-.061.011-.054.026Zm-97.425-4.206-.418-.308-.215-1.119.208-.155.175-.132v-2.458l-.09-.118-1.226-1.6.057-1.475.388-4.635,1.655-1.225.108-.08.045-.127.277-.789.035-.1-.014-.105-.184-1.35.431-.122,1.826,1.111.838,1.21.312,4.763,0,.024,0,.024.543,3.069-.2,1.512-.628,1.411Z" transform="translate(-336.002 -356.24)" fill="#192857" stroke="#707070" stroke-width="1"/>
</svg>
