<svg xmlns="http://www.w3.org/2000/svg" width="102.859" height="133.429" viewBox="0 0 102.859 133.429">
  <path id="Path_588" data-name="Path 588" d="M360.795,133.162l-.063-.029-.238-.53-.077-1.115,0-.052-.039-.034-1.675-1.445-.013-.012-.016-.007-1.657-.756-.037-.017-.04.008-.977.2-1.043-.029-.413-.281-.493-.511-.025-.026-.036-.008-.181-.042-.022,0-.022,0-.889.109-.015,0-.014.005-.927.357-1.978.172-.5-.147-.079-.167-.027-.058-.063-.011-.169-.03-.028,0-.027.007-.726.2-.027.007-.021.018-2.1,1.783-.009.008-.007.009-.751.94-.451.223H306.707l-13.18-.006h0l-.659.015-.012-21.965v-.124H273.162V43.972l1.073.875.015.012.018.007.629.242.008,0,.008,0,1.288.308.018,0h.018l.959-.058.278.2.012.009.013.006,1.022.429.015.006.016,0,1.048.15.81,1.124.134.854,0,.02.009.018.333.641.009.017.014.014.315.308.02.02.026.009.5.175.013,0h.013l.63.075.612.406.523.529.023.023.031.009,1.284.37.423.252.626.56.016.014.019.008.26.109.02.008h.021l.744.042h.015l.014,0,1.735-.315.011,0,.01,0,.9-.332.008,0,.008,0,.562-.3.009,0,.008-.006.891-.689.477-.169.045-.016.023-.042.345-.629.007-.014,0-.015.369-1.427,0-.01v-.01l.093-.986,1.538-2,.009-.012.006-.014.6-1.367.005-.013,0-.014.191-.981.728-1.913.011-.03,0-.032L295.5,39.31l.387-2.468,1.136-2.6,0-.01,0-.01.206-.828.009-.037-.013-.036-.643-1.766-.291-1.872.091-.524.37-.95.007-.018v-.019l.048-.75V27.4l-.005-.02-.145-.526-.007-.026-.017-.021-.633-.755-.05-.751.47-1.95.955-1.855.021-.041-.011-.045-.073-.3-.007-.03-.021-.023-.282-.316-.28-1.1.041-.147.062-.111.644-.406.017-.011.013-.015.254-.308.014-.017.007-.02.28-.777.233.072.171.292.005.505v.036l.02.03.278.423.168.256.058-.3.054-.284.006-.032-.011-.031-.369-1.076-.013-.037-.032-.023-.272-.2-.723-1.085.106-.086.123-.1-.126-.1-.127-.1-.03-.023-.037,0-.429-.03H297.1l.281-.61.567-.782.042-.058-.029-.066-.083-.185.275-.785.255-.38.11-.049.132.646.025.121.121-.024.7-.139.071-.014.023-.069.054-.163.025-.074-.056-.054-.5-.488-.019-.209.14-.748,1.007-2.893,0-.01,0-.011.236-1.481,0-.017,0-.017-.13-1.137.037-.1.188-.136,1.011-.176.048-.008.03-.039.369-.49.01-.013.006-.015.266-.668.379-.014.46.216-.119.182-.424.388-.036.033,0,.049-.048.611-.033.411.254-.324.376-.48.129.01.837.712.268.587.5,2.029-.163.77,0,.021,0,.021.18,1.348-.047.768,0,.061.046.04.714.629.031.027.041,0,.453.036.032,0,.029-.013.382-.172.112.043.358.393-.585.942-.011.017,0,.02-.133.562,0,.012v.012l-.03.732,0,.1.094.027.339.1.033.009.033-.009.161-.043.517.253.134.148.023.656,0,.048.033.034.29.3.032.033.046,0,.213.021.342.259-.324.751-.007.017,0,.018-.085.707-.01.086.077.039.284.145.033.017.037,0,.561-.063.012.025-.1,1.435v.022l.151,1.378v.011l.048.242.008.039.028.027.243.232.145.311-.051.586-.367,1.539-.009.037.014.036.465,1.209.009.023.017.018.526.554.081,1.044v.012l0,.012.254.9,0,.01,0,.009.3.635.008.018.013.014.224.242.014.015.018.01.472.254.027.014h.031l.816.006h.043l.034-.027.919-.717,1.837-.84.043-.019.019-.043.23-.517.112.026.358.537-.073.6,0,.03.01.028.314.852.007.02.014.017.411.49.021.025.03.011.992.381.017.007h.019l.373.025.381.845.019.043.043.019,1.607.725.653.511-.032.3-.483.854-.018.032,0,.037.024.4,0,.031.016.026.248.409.075.447-.256.75-.017.049.024.047.364.721.348,1.187v1.261l.037.036.316.316.323.754-.1,1.325-.227.317-.021.029,0,.036-.042.7v.022l.006.021.06.2.013.044.039.025.327.206,2.23,2.783.079.1.1-.081.192-.16.506-.085.06.074-.469.889-.019.036.006.04.03.212,0,.024.012.021.462.791.507,1.188.346,1.271.117.921-.117.634,0,.02,0,.02.095.687-.039.417-.6,1.262-.014.03,0,.033.048.659,0,.037.023.03,1.33,1.741.022.028.033.013.712.27-.041.655-.288.67-.007.017,0,.018-.085.731,0,.023.006.023.061.23.006.023.015.019.381.508.01.013.013.01.553.431.151.29.015.029.027.018.768.5.007,0,.007,0,.587.278.024.011h.026l.67.017.769.769.034.034.048,0,.43.017.737.24.421.4.025.024.035.007.75.157.017,0h.018l1.173-.09.072-.006.031-.065.051-.108.529.951.256,1.311,0,.016.007.015.157.32.008.017.012.013.333.357.026.027.037.009.357.085.029.007.029-.007.3-.073.114-.027-.021-.116-.1-.539.024-.117.243,0,.128.137.074.726,0,.046.034.032.315.3.016.015.02.009.393.169.026.011h.029l.8-.035.754.219.387.468-.053.021-.1.042.031.108.054.187.007.024.016.019.387.478.008.01.01.008.52.423.059.048.07-.031.345-.151.07-.031,0-.076.024-.411,0-.059-.044-.04-.143-.131.018-.047.315.118.974.873.026.023.035.006.58.106.184.253.411,1.156.022.061.063.017.185.05.1.277-.109-.027-.29-.3-.015-.016-.02-.009-.266-.127-.05-.024-.051.021-.32.133-.029.012-.02.024-.484.6-.044.055.025.066.4,1.088.009.024.018.018.792.828.009.009.01.007.471.326.014.009.016.006.683.241.843.655.315.4-.06.468,0,.024.006.023.23.871.01.038.03.025.3.254.243.8,0,.013.007.012.375.659.009.016.013.013.333.317-.081,1.278v.021l.006.02.6,2.14,0,.007,0,.007.453,1.1.005.013.008.011.417.6.01.014.014.011.239.194.016.623-.178.27-.258.391.418-.212.441-.224.012-.006.011-.009.351-.29.016-.014.011-.018.072-.119.889,1.1v.118l.039.037.405.387.334.319-.129-.444-.338-1.167,0-.01,0-.009-.416-.856.005-.281.24-.634.223-.291.208-.056.155.065.473.729.291.826.018.053.052.021.786.322,1.029.706.009.006.01,0,.744.338.29.132-.124-.294-.371-.878-.005-.478.127-.258.334.059.4.595-.167.385-.014.032.005.035.048.345,0,.03.017.025.86,1.223-.41,2.774-.005.038.017.035.354.731-.076.982,0,.034.015.031.435.883.017.035.035.019.532.29.019.011.022,0,.422.062.16.366.013.03.026.02.417.316.3.871.016.045.042.023.466.254.028.015h.21l.262.185.684.845.024.03.037.011.424.126.245.194-.043.069-.027.043.01.049.042.2.014.065.062.025.181.073.075.03.058-.057.32-.314.036-.035v-.05l.011-.336.069-.066.186.054.659.758.005.006.006.005.931.831.491,1.462,0,.013.007.012.8,1.306.012.02.018.014.955.732.014.01.016.006.9.352.293.337.178.429.065.845,0,.029.015.025,1.076,1.783.025.041.046.014.9.272.014,0h.014l.555.036.227.953-.071.577-.237.242-.038.039,0,.054.036.846v.019l.006.018.145.405.01.028.022.021.218.205.023.021.03.008.14.038.327.8.019.046.045.02.881.4.01.072-.3.65,0,.011,0,.011-.429,1.753-.007.03.008.03.118.461.162,2.147,0,.02.008.018.173.421.087,2.465-.315.1-.04.012-.024.034-.4.562-.031.044.01.052.2,1,.009.046.037.028.708.547.507.634.4,1.385.006.02.012.017.547.766.177.481-.14.954,0,.033.012.031.326.822.006.014.009.012.234.328-.384.313-.69.267-.865.161-.047.009-.029.039-.461.611-1.015-.068h-.021l-1.208.125-1.02-.224-.4-.414-.03-.03-.042-.006-.29-.042-.055-.008-.043.036-.375.315-.024.02-.011.029-.119.3-.22.15-1.289.424-.008,0-.008,0-.738.363-.012.006-.01.008-.635.5-.075.06.039.088.577,1.308-.194,1.115-1.146.551-.314-.15-.223-.429-.054-.1-.107.047-1.131.5-.041.018-.02.041-.584,1.192-.276.292Zm13.437-10.68-.065-.143.034-.591.239-1.351.149-.036.29.05-.395,1.3,0,.008v.008l-.124.736Zm-.13-3.436-.136-.381v-.9l.427-.234.014.01-.317,1.2-.005.019v.02Zm-2.162-10.722-.131-.028-.224-.3-.339-1.236.331-.81.436-.723.018-.03v-.035l-.006-.623V104.5l-.016-.028-.058-.1.232-.484.661-.532.021-.017.012-.024.3-.592.008-.017,0-.019.054-.321,0-.027-.007-.026-.066-.248,0-.017-.009-.015-.393-.641-.017-.027-.028-.016-.022-.012.176-.325.352-.231.046,1.255v.025l.01.022.151.332.015.033.03.02.274.179.044.167-1.586,3.734,0,.006,0,.006-.29.949-.009.028,0,.029.092.555ZM359.89,93.885l-.293-.273-.244-.54-.011-.024-.019-.017-.422-.381-.236-.527-.045-.366.131-.03.85.537.11.183.412.788.068.481-.112.135ZM327.437,56.839l-.337-.13-.114-.562-.006-.027-.016-.022-.29-.393-.018-.025-.028-.013-.266-.128-.068-.125.073-.018.861.4.483.7-.141.274Zm-45.022-9.378-.042-.088.53-.5.217.155.065.3-.616-.014-.077,0-.036.068Zm-1.756-2.576-.028-.165.163-.647.35-.486.509-.386,1.1-.135.024,0,.021-.011.32-.173,1.127.184.02.216-.192.09-.358.076-.238-.193-.057-.046-.068.027-.6.242-.121.048.054.119.069.152-.349.578-.681.259-.938.173-.031.005-.024.019Zm16.225-28.157-.106-.048,0-.042.173-.374-.025.18-.007.05.03.041.1.138Zm3.585-12.041L300.2,4.47l-.021-.291.312-.206.166-.033.247.373-.02.119-.235.059-.043.011-.026.036Zm.619-3.323-.331-.141-.075-.117.18-.275.271-.05.146.069.09.159Z" transform="translate(-272.662 -0.26)" fill="#192857" stroke="#707070" stroke-width="1"/>
</svg>
