<svg xmlns="http://www.w3.org/2000/svg" width="80.532" height="124" viewBox="0 0 80.532 124">
  <g id="Ñëîé_1" data-name="Ñëîé 1" transform="translate(-0.06 -0.08)">
    <g id="Group_290" data-name="Group 290" transform="translate(0.06 0.08)">
      <path id="Path_601" data-name="Path 601" d="M4,346.911c.1-.156.235-.36.351-.575a4.471,4.471,0,0,1,.559-.8c.066-.076.062-.214.09-.323a1.262,1.262,0,0,0-.033-.781.3.3,0,0,1,.051-.292,1.064,1.064,0,0,0,.156-.359,1.625,1.625,0,0,1,.2-.484c.129-.241.231-.5.358-.737a2.077,2.077,0,0,1,.256-.365.289.289,0,0,1,.181-.079c.394-.039.789-.069,1.185-.1.131-.012.264-.018.394-.036a6.016,6.016,0,0,1,1.6.169.2.2,0,0,1,.122.042c.173.222.448.3.658.464.02.016.055.031.055.049.009.273.2.212.37.2.13-.406.5-.52.833-.661.141-.059.33.1.347.265a2.112,2.112,0,0,1-.007.26c0,.06-.028.147,0,.177.125.124.077.281.1.442.169.047.231.193.3.344a2.6,2.6,0,0,0,.255.386c.024.033.066.075.1.075.141,0,.281-.009.422-.015.064-.2.284-.225.4-.368.026-.033.023-.088.048-.122a.943.943,0,0,1,.146-.167c.045-.039.125-.048.151-.093.051-.087.122-.084.2-.092.1-.01.2-.033.348-.06l.178.131c-.029.1-.055.184-.082.27.165.08.26.231.456.226.067,0,.169.107.2.187.057.15.088.307.244.392.05.244.24.345.454.436,0,.038.015.089,0,.123a.35.35,0,0,0,.07.434.277.277,0,0,1,.056.27.3.3,0,0,0,.092.352c.069.052.064.209.079.321s.015.227.021.335a.238.238,0,0,0,.322-.126c.116-.26.225-.286.464-.1a.539.539,0,0,0,.063.567c.092.141.168.29.261.43a.252.252,0,0,0,.45.008,1.1,1.1,0,0,0,.091-.161.542.542,0,0,1,.289-.32c.082-.033.141-.151.184-.243a.654.654,0,0,1,.375-.385.3.3,0,0,0,.214-.3c.011-.262.1-.511.093-.784,0-.147.161-.3.246-.45a1.706,1.706,0,0,0,.314-.633.858.858,0,0,0,.022-.156.481.481,0,0,1,.251-.462.458.458,0,0,0,.215-.372c.007-.07,0-.141.007-.212.01-.312.145-.4.445-.287.008.014.024.028.026.044.026.342.026.355.365.377.174.012.22.126.272.245a.65.65,0,0,1,.024.183c.019.183.052.21.234.181a.858.858,0,0,0,.1-.029,1.763,1.763,0,0,0,.127.14.525.525,0,0,0,.54.12.352.352,0,0,1,.221-.025c.172.083.332.192.534.313-.122.155-.22.285-.324.411-.09.108-.2.2-.277.319s-.087.283-.007.338a.249.249,0,0,0,.317-.026c.063-.048.131-.091.19-.144a.379.379,0,0,1,.43-.093c.212.078.374.014.661-.181.155.323.306.648.469.967a2.092,2.092,0,0,0,.3.494,1.4,1.4,0,0,1,.384.875.854.854,0,0,0,.727.794,4.054,4.054,0,0,1,.7.3,1.127,1.127,0,0,0,.57.185.175.175,0,0,1,.211.181,1.222,1.222,0,0,1-.041.388,1.754,1.754,0,0,0,.009.931,9.927,9.927,0,0,0,.6,1.635,1.324,1.324,0,0,1,.123.639.444.444,0,0,0,.668.426,1.176,1.176,0,0,0,.253-.188,1.834,1.834,0,0,1,.943-.441.848.848,0,0,1,.417.027,7.582,7.582,0,0,1,.81.238.344.344,0,0,1,.2.408.484.484,0,0,0,.11.415,2.977,2.977,0,0,1,.373.509,3.1,3.1,0,0,1,.169.605c.026.1.041.2.059.3.147.074.236-.006.326-.075l1.76-1.362c.174-.135.348-.272.526-.4a.317.317,0,0,0,.146-.314c-.051-.553-.093-1.106-.137-1.66-.01-.13-.012-.261-.02-.425l.825.249a2.32,2.32,0,0,0,.088.3c.079.182.188.216.357.12a1.794,1.794,0,0,0,.15-.106l.616.055a.356.356,0,0,1,.042.068.2.2,0,0,0,.268.139c.067-.02.144-.007.209-.031a.3.3,0,0,1,.292.051,2.653,2.653,0,0,0,.443.183.146.146,0,0,1-.042.072.948.948,0,0,0-.4.717c-.032.289-.088.577-.094.866a1.421,1.421,0,0,0,.632,1.27c.2.136.4.266.579.42a2.413,2.413,0,0,1,.7.98c.1.257.155.279.392.146a3.038,3.038,0,0,0,.517-.362A3.089,3.089,0,0,1,41,354.865a1.391,1.391,0,0,0,.917-.986c.077-.26.131-.528.2-.813a.684.684,0,0,1,.594.227,1.982,1.982,0,0,0,.345.274.5.5,0,0,1,.2.265c.125.265.122.256.42.229a4.149,4.149,0,0,0,1.378-.294c.113.218.225.407.311.607a.572.572,0,0,0,.552.363,4.363,4.363,0,0,1,1.424.162,2.5,2.5,0,0,0,.819.947.915.915,0,0,0,.308.131c.274.057.552.1.873.15-.077.087-.124.143-.174.2-.207.217-.417.429-.619.651-.1.111-.087.188.03.322.179.207.36.412.539.618.045.051.081.11.129.175-.073.057-.131.111-.2.152a1.3,1.3,0,0,0-.6,1.007c-.027.218-.074.435-.1.653a.778.778,0,0,1-.318.527,3.179,3.179,0,0,1-.3.221.4.4,0,0,0-.2.43,2.228,2.228,0,0,0,.143.533.446.446,0,0,0,.667.191.558.558,0,0,1,.424-.073,2.254,2.254,0,0,0,.5.013.355.355,0,0,1,.356.178.284.284,0,0,1-.058.364.723.723,0,0,0-.17.589c.024.246-.056.325-.3.313a.6.6,0,0,0-.442.137,1.212,1.212,0,0,1-.17.126.594.594,0,0,0-.332.607c.017.244-.075.312-.351.309a.585.585,0,0,0-.542.207.515.515,0,0,0-.1.544.947.947,0,0,1,.071.565.545.545,0,0,0,.09.374,1.2,1.2,0,0,1,.193.726,1.129,1.129,0,0,0,.308.741,3.458,3.458,0,0,1,.7,1.266c.206.62.426,1.235.631,1.855a1.306,1.306,0,0,1,.069.413c0,.672-.012,1.344-.041,2.015a2.157,2.157,0,0,1-.141.642c-.454,1.234-.918,2.465-1.381,3.7-.266.709-.531,1.419-.805,2.126a2.924,2.924,0,0,0-.038,1.845c.117.452.208.911.309,1.368a.451.451,0,0,1,.021.207c-.039.134-.084.242.087.331.054.028.058.159.077.245.126.568.245,1.138.375,1.705.087.375.189.747.29,1.142l-.671-.122c-.173-.031-.345-.073-.519-.094-.129-.016-.291-.065-.279.175l-.281-.048c-.041-.146.034-.3-.112-.4-.041-.031-.007-.165-.007-.27-.108-.022-.2-.049-.293-.059a3.344,3.344,0,0,1-1.2-.272.338.338,0,0,0-.5.182.161.161,0,0,1-.112-.193c.014-.2.012-.2-.176-.231-.5-.086-1.009-.167-1.513-.251-.4-.067-.8-.138-1.2-.2-.112-.018-.227-.019-.362-.03-.052.127-.107.246-.147.368a.445.445,0,0,1-.283.321,4.338,4.338,0,0,0-.432.207c.012.171.02.346.037.518.02.2.048.4.073.6,0,.009.006.019,0,.026a.76.76,0,0,0,0,.66.055.055,0,0,1-.007.05c-.15.146-.046.294,0,.441a1.65,1.65,0,0,0,.069.228,1.326,1.326,0,0,1,0,.675.646.646,0,0,0,.1.417,3.1,3.1,0,0,1,.26.6.43.43,0,0,0,.179.25c.05.03.115.083.12.132a1.821,1.821,0,0,1,.007.753.536.536,0,0,0,.029.427,3.674,3.674,0,0,0,.346.767.149.149,0,0,1,.011.127.951.951,0,0,0,.024.649.261.261,0,0,1-.082.3c-.081.067-.137.157-.047.25a.509.509,0,0,1,.1.371.835.835,0,0,0,.06.3.217.217,0,0,0,.316.092.893.893,0,0,1,.637-.067,3.112,3.112,0,0,1,.069.48.711.711,0,0,0,.114.5.243.243,0,0,1,.018.151,2.938,2.938,0,0,1-.037.341.311.311,0,0,1-.077.184.283.283,0,0,0-.069.4,2.174,2.174,0,0,0,.218.328c.119.167.134.247-.006.4a.612.612,0,0,0-.136.7.253.253,0,0,1,0,.179,1.508,1.508,0,0,0-.032.91,2.92,2.92,0,0,1,.074.493.7.7,0,0,1-.123.364.56.56,0,0,0-.076.318,1.266,1.266,0,0,0,.536.988,1.469,1.469,0,0,0,.528.207.585.585,0,0,0,.083.018.425.425,0,0,1,.047.4c-.018.067-.053.13-.075.2-.083.248-.021.346.252.4.106.2.2.422.327.618a.55.55,0,0,1,0,.547,2.646,2.646,0,0,1-.092.27.93.93,0,0,1-.2.3,2.637,2.637,0,0,0-.43.5,1.2,1.2,0,0,0-.16.631.959.959,0,0,1-.2.563.431.431,0,0,0-.045.473c.114.291.245.575.374.86a1.486,1.486,0,0,0,.12.174.288.288,0,0,1-.055.421,3.56,3.56,0,0,1-.293.228.48.48,0,0,0-.174.649c.055.165.1.333.146.5a.531.531,0,0,1-.081.378c-.093.188-.173.383-.26.573a.945.945,0,0,1-.1.183,1.01,1.01,0,0,0-.169.549,1.154,1.154,0,0,0,.1.339.491.491,0,0,1-.067.171.364.364,0,0,0-.013.492c-.058.218-.1.4-.156.586a.716.716,0,0,1-.083.22.67.67,0,0,0-.1.581.453.453,0,0,1-.147.476c-.2.188-.249.327-.024.651a.533.533,0,0,1,.067.656.641.641,0,0,0-.06.147.183.183,0,0,0,.084.246c.158.093.309.2.46.3a.692.692,0,0,1,.1.122,5.594,5.594,0,0,1-.335.609.942.942,0,0,0-.125.874c.01.034.018.068.03.11a.289.289,0,0,0,.1.02c.333-.047.51.214.714.388.16.136.072.556-.117.687a.621.621,0,0,0-.29.559.494.494,0,0,0,.179.42.472.472,0,0,1,.218.374c0,.056.092.112.156.184a3.359,3.359,0,0,1-.276.4.22.22,0,0,0-.028.307c.057.088.122.173.147.21a2.727,2.727,0,0,0,0,.479.412.412,0,0,1-.322.551c-.05.014-.1.021-.158.031-.019.053-.063.11-.05.151.048.158-.037.264-.115.38a.5.5,0,0,0-.045.173.8.8,0,0,1-.041.2.7.7,0,0,0-.017.684.678.678,0,0,1,.045.461c-.034.162-.071.324-.108.485-.006.025-.012.06-.03.071-.21.124-.165.309-.122.493.06.251.079.274.331.429-.007.051-.015.11-.024.169a.465.465,0,0,0,.061.355.35.35,0,0,1,.031.412c-.231.088-.412.15-.585.226a.741.741,0,0,1-.4.107.162.162,0,0,0-.188.111.169.169,0,0,1-.06.085.38.38,0,0,0-.175.479.621.621,0,0,1-.146.069.212.212,0,0,0-.179.17c-.042.152-.1.3-.128.457a.6.6,0,0,1-.3.445.575.575,0,0,0-.278.335c-.064.179-.217.322-.222.53a.139.139,0,0,1-.074.1.557.557,0,0,0-.269.28,1.2,1.2,0,0,1-.418.432.639.639,0,0,0-.17.194c-.086.123-.162.253-.247.376a.54.54,0,0,0-.132.308.374.374,0,0,1-.092.184,1.089,1.089,0,0,0-.2,1.013.51.51,0,0,1-.068.449.631.631,0,0,0-.031.741c.074.117.01.278-.128.393-.108.091-.224.16-.2.342.007.054-.115.146-.2.184a1.416,1.416,0,0,0-.651.831.353.353,0,0,0,.166.453,4.976,4.976,0,0,1,.454.38c-.079.325-.141.606-.218.883a.666.666,0,0,1-.141.244,2.655,2.655,0,0,0-.5.7.227.227,0,0,1-.405.04,1.36,1.36,0,0,1-.153-.386.778.778,0,0,0-.735-.51.446.446,0,0,1-.441-.226c-.064-.089-.134-.227-.217-.239a1.459,1.459,0,0,0-.464.057.451.451,0,0,0-.117.061c-.216.112-.252.112-.377-.108a1.841,1.841,0,0,1-.2-.485.518.518,0,0,0-.266-.368,1.85,1.85,0,0,1-.7-.546,1.632,1.632,0,0,0-.32-.3.332.332,0,0,0-.473.012.583.583,0,0,1-.491.148,1.233,1.233,0,0,0-.913.176c-.158-.091-.25-.193-.193-.388a1.528,1.528,0,0,0,.026-.316c.014-.206,0-.23-.183-.288a1.984,1.984,0,0,0-.327-.1.939.939,0,0,0-.413,0,.639.639,0,0,1-.6-.079,1.044,1.044,0,0,0-.46-.179,2.234,2.234,0,0,1-.5-.16,1.669,1.669,0,0,0-1.445.188.369.369,0,0,0-.117.167c-.045.094-.08.194-.128.313a2.824,2.824,0,0,1-.465-.074.307.307,0,0,1-.237-.266,1.1,1.1,0,0,0-.519-.814,4.558,4.558,0,0,1-.755-.658c-.107-.092-.2-.2-.3-.3a3.383,3.383,0,0,1-.813-1.129.314.314,0,0,0-.17-.147c-.205-.08-.414-.148-.625-.213-.246-.076-.267-.1-.274-.344a.705.705,0,0,0-.391-.637.846.846,0,0,1-.325-.332,1.064,1.064,0,0,0-.343-.392l-.529-.375a1.207,1.207,0,0,0,.072-.141.391.391,0,0,0-.2-.484,1.123,1.123,0,0,0-.624-.188.173.173,0,0,1-.124-.036c-.279-.291-.7-.494-.624-1.011a.57.57,0,0,0-.1-.293c-.1-.193-.2-.386-.319-.569a.2.2,0,0,1,0-.265.357.357,0,0,0-.009-.457,1.821,1.821,0,0,1-.16-.5.152.152,0,0,1,.126-.2c.385-.078.455-.78.2-1.027-.15-.142-.284-.3-.542-.264a.832.832,0,0,1-.407-.157c-.039-.021-.056-.1-.065-.156-.045-.26-.088-.521-.122-.783a.258.258,0,0,0-.247-.259.453.453,0,0,1-.4-.353,2.21,2.21,0,0,0-.413-.538c-.06-.073-.13-.136-.188-.2.017-.041.018-.062.03-.072a1.033,1.033,0,0,0,.37-.675.529.529,0,0,1,.151-.273.715.715,0,0,0,.245-.536c.152-.184.278-.33.4-.481.148-.19.257-.388.084-.624a.251.251,0,0,1-.028-.1c-.076-.415-.153-.831-.226-1.247a.564.564,0,0,1,.012-.157c.031-.284-.007-.57,0-.851.008-.317-.055-.631-.026-.945a.578.578,0,0,1,.289-.394,1.034,1.034,0,0,0,.425-.552,2.191,2.191,0,0,1,.158-.274.335.335,0,0,0,.045-.2.8.8,0,0,1,.074-.489.652.652,0,0,0-.151-.775,1.48,1.48,0,0,1-.229-.384c-.156-.3-.218-.332-.566-.26-.034.007-.069.009-.141.019a3.137,3.137,0,0,1-.1-.421,1.751,1.751,0,0,0-.18-.631,1.2,1.2,0,0,1-.092-.356,1.294,1.294,0,0,0-.279-.646.472.472,0,0,1,.042-.681,1.3,1.3,0,0,1,.169-.168.553.553,0,0,0,.17-.708,2.437,2.437,0,0,0-.508-1.007.464.464,0,0,1-.117-.2.765.765,0,0,0-.4-.473,8.614,8.614,0,0,0-.813-.374.161.161,0,0,0-.218.093c-.075.14-.155.278-.233.416a.783.783,0,0,1-.12.205,1.453,1.453,0,0,0-.336.8,3.988,3.988,0,0,1-.232.559,2.9,2.9,0,0,1-.179.375.4.4,0,0,1-.174.131.363.363,0,0,1-.146,0,.635.635,0,0,0-.045.806c.049.074.094.149.137.227a.354.354,0,0,1-.051.441.672.672,0,0,0-.2.469,2.566,2.566,0,0,1-.1.546.63.63,0,0,1-.167.293.843.843,0,0,0-.212.871,2.07,2.07,0,0,0,.074.227c.034.116.1.226.01.351a.906.906,0,0,1-.4.377.167.167,0,0,1-.243-.129.56.56,0,0,1-.013-.207,2.608,2.608,0,0,1,.073-.47.637.637,0,0,0-.155-.632.355.355,0,0,0-.321-.137,4.284,4.284,0,0,1-.494-.026.3.3,0,0,1-.145-.062c-.266-.2-.53-.406-.794-.611a.535.535,0,0,1-.075-.074c-.168-.192-.334-.385-.5-.577a1.055,1.055,0,0,1-.246-.489c-.043-.206-.115-.405-.177-.607a.186.186,0,0,0-.055-.089,1.194,1.194,0,0,1-.394-.839c0-.009,0-.017,0-.026A.7.7,0,0,0,8,407.131a.435.435,0,0,1-.319-.377.674.674,0,0,0-.245-.455.588.588,0,0,0-.658-.131,1.549,1.549,0,0,1-.174.064c-.216.074-.216.07-.37-.117a.47.47,0,0,0-.168-.11.71.71,0,0,1-.317-.265.7.7,0,0,0-.477-.387.206.206,0,0,1-.092-.05c-.164-.131-.325-.265-.489-.4a.811.811,0,0,0-.174-.112c-.119-.053-.218-.114-.227-.263a.176.176,0,0,0-.046-.093c-.179-.212-.361-.422-.541-.635a.572.572,0,0,1-.086-.131,1.574,1.574,0,0,0-.122-.291.712.712,0,0,1,.066-.917.863.863,0,0,0,.1-.535c0-.1-.016-.19.088-.254a.169.169,0,0,0,.064-.111,2.528,2.528,0,0,1,.427-.842,2.21,2.21,0,0,0,.223-1.656,1.167,1.167,0,0,1,.047-.771c.069-.175.09-.317-.1-.437-.053-.034-.077-.115-.111-.175-.017-.03-.019-.079-.042-.093-.248-.143-.352-.413-.542-.607s-.21-.2-.452-.078a1.211,1.211,0,0,1-.152.054.245.245,0,0,1-.044-.068c-.047-.19-.045-.384-.307-.463a1.552,1.552,0,0,0-.574-.147,3.816,3.816,0,0,1-.711-.046c-.168-.021-.231-.139-.193-.3a1,1,0,0,0,.041-.232c-.007-.3,0-.389-.323-.373-.13.007-.168-.042-.328-.286a.714.714,0,0,1,.186-.093c.241-.04.3-.1.3-.34,0-.132.009-.264.007-.4,0-.1-.012-.2-.022-.354a6.341,6.341,0,0,0,.58-.462c.218-.215.406-.461.6-.7.067-.08.116-.176.182-.257a.6.6,0,0,0,.014-.736.906.906,0,0,0-.225-.131c-.019-.042-.047-.116-.083-.185a.356.356,0,0,1-.01-.329,1.277,1.277,0,0,0-.016-.9,1.907,1.907,0,0,0-.8-1.05.7.7,0,0,1-.2-.208c-.141-.232-.267-.472-.4-.706.013-.02.02-.042.033-.046a.777.777,0,0,0,.516-.523.483.483,0,0,1,.338-.3c.274-.1.544-.205.818-.3a.194.194,0,0,0,.149-.162.586.586,0,0,1,.265-.38,1.129,1.129,0,0,0,.384-.557.663.663,0,0,0-.063-.484c-.049-.141-.136-.27-.174-.412a.443.443,0,0,0-.337-.335.281.281,0,0,1-.243-.3.438.438,0,0,0-.1-.207c-.329-.49-.661-.978-.991-1.467a.4.4,0,0,1-.022-.091c.1-.092.208-.2.325-.3.349-.308.346-.307.313-.771a2.26,2.26,0,0,0-.314-1.05,2.687,2.687,0,0,1-.2-.57,1.406,1.406,0,0,0-.327-.564.793.793,0,0,1-.237-.8,1.682,1.682,0,0,0,.012-.475,1.213,1.213,0,0,1,.1-.513,3.277,3.277,0,0,0,.183-.632.645.645,0,0,0-.136-.571c-.1-.12-.179-.264-.284-.383a.558.558,0,0,1-.126-.416c0-.147-.026-.294-.036-.442-.021-.289-.04-.579-.056-.869a1.343,1.343,0,0,0-.016-.367.409.409,0,0,1,.09-.43A.322.322,0,0,0,.579,373a.864.864,0,0,1-.359-.855.979.979,0,0,0-.132-.658.284.284,0,0,1-.02-.2,1.521,1.521,0,0,1,.957-1.079c.1-.047.2-.111.3-.168a.314.314,0,0,0,.147-.482,5.047,5.047,0,0,0-.3-.5.827.827,0,0,1-.169-.646A.485.485,0,0,0,.9,368a2.042,2.042,0,0,1-.309-.49,1.164,1.164,0,0,1-.012-.726.112.112,0,0,1,.041-.065,4.093,4.093,0,0,1,.442-.274.386.386,0,0,0,.259-.387.666.666,0,0,1,.042-.258c.1-.233.2-.461.308-.69a.247.247,0,0,0-.018-.249c-.083-.145-.152-.3-.227-.448a.45.45,0,0,1,0-.431,1.013,1.013,0,0,0,.1-.59.453.453,0,0,1,.219-.5.606.606,0,0,0,.256-.354,7.435,7.435,0,0,1,.328-.748.325.325,0,0,1,.188-.125.522.522,0,0,0,.381-.39,1.488,1.488,0,0,1,.316-.509.313.313,0,0,0,.1-.347.493.493,0,0,1,.027-.522.522.522,0,0,0,.05-.308,1.6,1.6,0,0,1,.106-.616c.058-.15-.044-.242-.16-.292-.343-.147-.367-.437-.372-.756a4.23,4.23,0,0,1,.89-.257c.051-.012.1-.017.155-.028.212-.044.275-.106.274-.314,0-.246-.023-.491-.029-.737-.009-.361-.009-.723-.019-1.085a.344.344,0,0,1,.18-.33,5.086,5.086,0,0,1,.632-.327.444.444,0,0,0,.306-.422.525.525,0,0,1,.317-.5.383.383,0,0,0,.167-.523.526.526,0,0,0-.264-.272.415.415,0,0,1-.268-.359,3.933,3.933,0,0,1,.007-1.132.594.594,0,0,1,.067-.17c.22-.483.094-.571-.3-.863-.124-.093-.2-.151-.218-.317a.429.429,0,0,0-.427-.386c0-.031-.007-.054,0-.064a1.745,1.745,0,0,0,.166-1.475.264.264,0,0,0-.071-.138,1.025,1.025,0,0,1-.266-.535c-.068-.244-.162-.48-.265-.779Z" transform="translate(-0.06 -313.698)" fill="#192857"/>
      <path id="Path_602" data-name="Path 602" d="M489.65,153.861c-.041.217-.021.427-.266.522-.053.021-.092.13-.1.2a3.137,3.137,0,0,1-.338.942.451.451,0,0,0,.071.539.616.616,0,0,1,.152.3c.036.165.106.2.241.121a3.287,3.287,0,0,0,.524-.357,1.028,1.028,0,0,0,.213-.357c.067-.153.1-.319.169-.473.1-.23.149-.251.384-.2.094.022.187.052.279.083a.523.523,0,0,0,.455-.054c.332-.193.468-.164.7.121a.647.647,0,0,0,.678.14c.179-.083.33-.127.469.055a.087.087,0,0,0,.069.03c.22-.026.3.12.344.29.041.146.138.179.275.2a.516.516,0,0,1,.474.422.248.248,0,0,1-.227.316c-.209.031-.208.031-.212.253a.562.562,0,0,1-.031.15.172.172,0,0,1-.043.067c-.142.143-.069.407-.332.5a2.219,2.219,0,0,0-.492.379.544.544,0,0,0-.149.609.214.214,0,0,0,.169.091.476.476,0,0,1,.456.208.51.51,0,0,0,.519.241.168.168,0,0,1,.122.041.344.344,0,0,0,.435.06c.05-.028.155.041.239.068a1.061,1.061,0,0,0,.126.754c.358-.068.446.239.532.462a.441.441,0,0,0,.375.31,4.522,4.522,0,0,0,.515.033c.188.3.534.276.848.31a2.49,2.49,0,0,0,.52-.055,2.075,2.075,0,0,0-.014.274.96.96,0,0,0,.055.3.358.358,0,0,1-.043.435c-.018.019-.051.044-.048.06.052.273-.147.518-.083.794a1.986,1.986,0,0,1,.019.333c.175.1.291.341.576.3.058-.126.119-.25.173-.378.126-.306.3-.369.56-.179a.388.388,0,0,0,.318.076.293.293,0,0,1,.341.21.939.939,0,0,0,.088.216.241.241,0,0,0,.4.069.532.532,0,0,1,.382-.152.171.171,0,0,0,.114-.055.787.787,0,0,1,.477-.2.416.416,0,0,1,.4.135.205.205,0,0,0,.27.082.907.907,0,0,1,.174-.028c-.042.371.083.449.422.433a.483.483,0,0,1,.04.032c.064.067.025.234.151.218a.651.651,0,0,0,.342-.16c.081-.075.141-.153.265-.138a1.519,1.519,0,0,1,.136.827,5.692,5.692,0,0,1,.555.4,2.189,2.189,0,0,1,.278.4l.362-.06c.12-.179.034-.458.274-.573.163.119.321.236.482.35a.391.391,0,0,0,.141.067.58.58,0,0,1,.373.343c.043.077.054.2.155.177a.646.646,0,0,0,.257-.16c.036-.03.038-.107.075-.131a.808.808,0,0,1,.209-.063c.011.088.017.146.025.206s-.005.122.024.153a.894.894,0,0,1,.231.547l.642-.062a.32.32,0,0,0,.16.431c.051.026.078.132.088.205.014.11,0,.224.006.335.015.186.094.29.279.265a1.43,1.43,0,0,1,.747.2c.074.029.146.061.222.086.183.061.244.159.183.336a1.365,1.365,0,0,1-.161.3c-.055.083-.135.176-.066.261.089.111.169.264.351.243s.366-.052.55-.077a1.474,1.474,0,0,1,.336-.035.349.349,0,0,0,.328-.122c.111-.125.228-.245.348-.372a2.522,2.522,0,0,1,.962.183.62.62,0,0,0,.128.032c.107.014.179-.006.215-.133.072-.258.151-.273.4-.33s.519.046.8-.079a4.742,4.742,0,0,1-.006.909c.016.026.021.048.036.055.287.14.337.237.275.539a1.339,1.339,0,0,0,.181.98c-.062.287-.125.575-.2.918.014-.012-.017.021-.053.043a1.65,1.65,0,0,0-.55.527.673.673,0,0,1-.445.31,1.934,1.934,0,0,0-.666.312c-.238.152-.48.3-.713.46a2.814,2.814,0,0,1-.953.383c-.553.136-.724.349-.68.946a1.666,1.666,0,0,1,0,.212c-.012.206-.093.3-.3.281a.6.6,0,0,0-.541.211.631.631,0,0,1-.294.161,3.5,3.5,0,0,1-.494.089.452.452,0,0,1-.393-.116c-.3-.3-.6-.6-.893-.9a.445.445,0,0,1-.091-.216.664.664,0,0,0-.581-.566q-.908-.174-1.813-.359c-.224-.045-.444-.126-.67-.15-.409-.043-.822-.058-1.233-.08-.165-.009-.323-.029-.4-.2-.091-.2-.274-.231-.461-.25a.729.729,0,0,0-.212.01.592.592,0,0,1-.429-.075c-.16-.092-.166-.078-.269.088a.227.227,0,0,1-.07.067c-.322.2-.648.393-.966.6a.481.481,0,0,1-.589,0,1.257,1.257,0,0,0-.707-.248c-.218,0-.441-.1-.671-.111-.075,0-.15-.084-.218-.138-.152-.119-.3-.246-.451-.365a.475.475,0,0,0-.523-.071.349.349,0,0,1-.451-.088.355.355,0,0,0-.309-.108,3.98,3.98,0,0,1-.476,0,.6.6,0,0,0-.64.375,1.649,1.649,0,0,1-.677.755c-.365.233-.721.48-1.072.732a.378.378,0,0,1-.39.06,2.685,2.685,0,0,0-1.061-.177,1.237,1.237,0,0,0-.408.087q-.612.249-1.214.526a.964.964,0,0,0-.441.443q-.649,1.23-1.3,2.461c-.326.617-.632,1.245-.986,1.845a9.09,9.09,0,0,1-.893,1.273c-.4.464-.721.976-1.1,1.448-.571.707-1.105,1.444-1.667,2.159a5.637,5.637,0,0,1-.529.517l-.744-.856c.193-.207.376-.407.564-.6.079-.083.173-.151.252-.234.143-.149.1-.3-.109-.339a6.741,6.741,0,0,0-.679-.108.877.877,0,0,1-.589-.265,6.459,6.459,0,0,1-.58-.712c-.065-.1-.117-.166-.231-.181a2.628,2.628,0,0,0-.993-.091c-.052.012-.116-.031-.175-.045a.81.81,0,0,0-.227-.036c-.179.017-.3-.017-.37-.164-.1-.2-.183-.4-.285-.622l.761-.252c-.016-.107-.023-.2-.045-.293-.222-.927-.441-1.854-.673-2.779a.372.372,0,0,1,.1-.4c.258-.265.5-.546.747-.823.179-.2.179-.234.04-.462-.392-.64-.783-1.281-1.181-1.917a.718.718,0,0,1-.12-.447c.012-.218,0-.438,0-.656a1,1,0,0,0-1.052.366.312.312,0,0,0-.034.173,1.85,1.85,0,0,0,.039.208c.036.241-.007.292-.255.306-.05,0-.1,0-.177,0,0-.258-.014-.5,0-.744a.49.49,0,0,0-.317-.548c0-.027-.014-.079,0-.092a1.142,1.142,0,0,1,.648-.359c.107,0,.218-.028.223-.141a1.332,1.332,0,0,1,.279-.652c.2.04.3-.1.4-.249q.388-.553.791-1.1c.085-.115.117-.211,0-.325a.5.5,0,0,1-.1-.629.544.544,0,0,1,.565-.349.377.377,0,0,0,.089-.024c.079-.589.159-1.194.239-1.8a.429.429,0,0,0-.5.049c-.183.15-.375.293-.57.444-.249-.1-.493-.2-.736-.308a.521.521,0,0,0-.409-.017c-.316.114-.635.216-.954.32a.647.647,0,0,1-.542-.185.3.3,0,0,1-.021-.153c.009-.274.024-.547.033-.821,0-.13,0-.26,0-.409a1.225,1.225,0,0,0-.918.2,1.736,1.736,0,0,0-.773,1.171c-.044.355-.356.46-.6.615-.108.069-.217.021-.278-.112-.185-.407-.294-.293-.58-.1a1.585,1.585,0,0,0-.227.236l-.112-.089a.364.364,0,0,1,.258-.26.569.569,0,0,0,.318-.261,3.245,3.245,0,0,1,.958-.934,2.341,2.341,0,0,0,.253-.189c.133-.111.262-.227.424-.368a1.054,1.054,0,0,0-.123-.715.494.494,0,0,1-.035-.327,3.558,3.558,0,0,1,.146-.508,1.5,1.5,0,0,0-.035-1.085.361.361,0,0,0-.021-.049,1.485,1.485,0,0,1,0-1.3,1.144,1.144,0,0,1,.159-.237c.17.1.318.2.473.274a2.308,2.308,0,0,0,.345.13.39.39,0,0,0,.478-.166c.416-.548.85-1.084,1.28-1.622a6.5,6.5,0,0,1,.462-.545.712.712,0,0,0,.213-.439c.01-.079.014-.159.027-.236a.694.694,0,0,1,.2-.42,1.039,1.039,0,0,0,.274-.445.531.531,0,0,1,.382-.337,1.292,1.292,0,0,0,.517-.241,1.31,1.31,0,0,1,.464-.183,6.654,6.654,0,0,0,1.527-.66.233.233,0,0,1,.308.048q.355.3.712.594c.188.155.224.155.408.007.021-.017.041-.034.06-.052a2.4,2.4,0,0,1,.877-.519c.73-.261,1.444-.57,2.166-.854a.812.812,0,0,0,.37-.287c.094-.128.194-.251.3-.374a.9.9,0,0,1,.6-.351.372.372,0,0,0,.278-.219,5.241,5.241,0,0,1,.615-.826,1.053,1.053,0,0,1,.64-.274.147.147,0,0,1,.117.041c.2.222.489.365.58.675.056.191.224.169.4.2Z" transform="translate(-433.242 -140.304)" fill="#192857"/>
      <path id="Path_603" data-name="Path 603" d="M113.92,203.185a1.424,1.424,0,0,1-.088-.192.4.4,0,0,0-.257-.279.513.513,0,0,1-.208-.153,1.076,1.076,0,0,0-1.014-.383c-.024.138-.047.274-.073.409-.02.1-.041.207-.065.31a1.518,1.518,0,0,1-1.086,1.188,2.755,2.755,0,0,0-.956.651c-.136.121-.29.221-.455.343-.047-.088-.079-.138-.1-.192a2.567,2.567,0,0,0-1-1.173,4.573,4.573,0,0,1-.383-.284,1.3,1.3,0,0,1-.486-1.266c.024-.174.041-.351.067-.525a.9.9,0,0,1,.345-.632,3.127,3.127,0,0,0,.372-.338c.037-.038.075-.136.056-.157a.276.276,0,0,0-.176-.074.463.463,0,0,0-.2.044.356.356,0,0,1-.416-.077.39.39,0,0,0-.519-.086.574.574,0,0,1-.167.031,1.09,1.09,0,0,1-.074-.1c-.14-.228-.138-.224-.413-.145a.259.259,0,0,1-.2-.021.279.279,0,0,0-.417.063.633.633,0,0,1-.1.06.54.54,0,0,1-.024-.172.2.2,0,0,0-.162-.258c-.243-.077-.484-.16-.732-.217a1.916,1.916,0,0,0-.413,0c.017.161.031.281.04.4q.064.844.126,1.689a.321.321,0,0,1-.126.322c-.7.534-1.4,1.08-2.1,1.62-.047.036-.1.063-.171.106a2.463,2.463,0,0,1-.093-.4,1.574,1.574,0,0,0-.434-.829.417.417,0,0,1-.124-.371.526.526,0,0,0-.378-.594,4,4,0,0,0-1.08-.236,1.872,1.872,0,0,0-1.284.456c-.1.087-.207.157-.3.225a.389.389,0,0,1-.293-.415,2.234,2.234,0,0,0-.132-.64c-.137-.381-.316-.747-.456-1.128a4.81,4.81,0,0,1-.2-.737,1.26,1.26,0,0,1,.028-.365,5.15,5.15,0,0,0,.069-.653c0-.265-.079-.291-.342-.321a2,2,0,0,1-.492-.169c-.236-.1-.461-.22-.7-.293a.816.816,0,0,1-.687-.764,1.327,1.327,0,0,0-.389-.873,1.169,1.169,0,0,1-.2-.31,6.365,6.365,0,0,1-.573-1.276c-.013-.056-.074-.14-.117-.141s-.12.058-.155.11c-.21.308-.25.312-.635.25a1.642,1.642,0,0,0-.451.052,2.6,2.6,0,0,0,.233-.3,1.034,1.034,0,0,0,.117-.315.259.259,0,0,0-.146-.286c-.13-.075-.257-.155-.39-.225a.471.471,0,0,0-.409-.026c-.178.07-.259.065-.36-.081a.321.321,0,0,0-.374-.163c-.044-.128-.075-.237-.117-.342a.284.284,0,0,0-.283-.2,1.527,1.527,0,0,1-.288-.055,1.244,1.244,0,0,0,.015-.2.222.222,0,0,0-.192-.216c-.335-.077-.484-.058-.608.155a.681.681,0,0,0-.076.35.451.451,0,0,1-.211.448.546.546,0,0,0-.26.466,1.051,1.051,0,0,1-.212.613,5.439,5.439,0,0,0-.366.577.6.6,0,0,0-.033.229c-.021.227-.028.456-.066.68a.287.287,0,0,1-.163.184.629.629,0,0,0-.391.4.447.447,0,0,1-.281.292c-.063.021-.112.1-.151.168-.063.1-.112.216-.179.346a2.6,2.6,0,0,1-.4-.618.248.248,0,0,1,0-.153c.055-.266.032-.364-.205-.47-.164-.073-.325-.218-.542-.1-.045-.141.047-.35-.174-.336-.044-.186-.084-.353-.128-.538a2.24,2.24,0,0,0,.224-.17c.04-.037.086-.113.073-.151a1.655,1.655,0,0,0-.2-.4c-.027-.039-.146-.035-.214-.016s-.108.083-.169.134c-.113-.072-.21-.145-.222-.284s-.167-.17-.165-.33c0-.092-.151-.2-.252-.274a.833.833,0,0,0-.248-.083c-.017-.092,0-.224-.064-.3a1.78,1.78,0,0,0-.339-.285.091.091,0,0,0-.047-.023c-.07,0-.173-.037-.205,0-.153.16-.417-.027-.546.19a.309.309,0,0,1-.147.1.3.3,0,0,0-.2.229.2.2,0,0,1-.169.173c-.063.017-.117.094-.161.154-.085.114-.241.139-.3.021-.093-.187-.319-.307-.283-.567,0-.038-.117-.094-.193-.151.08-.172-.016-.358-.045-.549-.008-.051-.031-.1-.036-.151a.523.523,0,0,0-.741-.437,2.2,2.2,0,0,0-.8.511c-.167-.1-.33-.2-.487-.3-.092-.061-.169-.143-.26-.206a.5.5,0,0,0-.184-.085c-.4-.074-.8-.145-1.2-.208a1.359,1.359,0,0,0-.317,0c-.527.041-1.052.088-1.578.131a.11.11,0,0,1-.007-.028c0-.008,0-.02,0-.025a.982.982,0,0,1,.1-.088l18.61-13.378a16.437,16.437,0,0,1,.809,1.549,2.505,2.505,0,0,0,.823,1.207c.046.039.089.082.138.126a.8.8,0,0,1-.553.421c-.324.113-.648.227-.973.339a.358.358,0,0,0-.258.274.3.3,0,0,0,.17.331,2.911,2.911,0,0,0,.575.262.6.6,0,0,1,.387.33c.069.142.155.277.222.42a.412.412,0,0,1,.014.173c0,.262.137.365.4.294.1-.026.194-.154.284-.05.047.055.017.177.022.269a.323.323,0,0,0,.322.317c.052,0,.1,0,.162-.008a.42.42,0,0,0,.355.28.88.88,0,0,1,.288.125c.212.129.247.131.441-.019a.663.663,0,0,1,.069-.045c.167.065.315.127.466.181.3.1.416-.051.393-.3a2.131,2.131,0,0,1,.032-.365.78.78,0,0,1,.545.537,2.837,2.837,0,0,1,.2.953.385.385,0,0,0,.072.192.834.834,0,0,0,.115.145c.308.343.307.339.771.286.207-.024.417-.03.625-.036a.254.254,0,0,1,.271.235,1.44,1.44,0,0,1-.022.314c-.016.1-.057.206-.066.31-.035.4.172.468.465.485a1.093,1.093,0,0,0,.222-.036c.04-.126.076-.26.231-.312.043-.015.069-.091.093-.144a1.289,1.289,0,0,1,.091-.241c.324-.441.656-.876.987-1.313a.408.408,0,0,1,.07-.058c.03.034.06.063.086.1a.958.958,0,0,0,1.007.376,5.228,5.228,0,0,0,.517-.113.95.95,0,0,1,.717.088c.408.21.816.422,1.226.629a3.744,3.744,0,0,0,1.5.4,1.777,1.777,0,0,1,.775.231c.228.124.479.207.755.324.043.161.237.324.173.56-.432.446-1,.728-1.4,1.2a1.065,1.065,0,0,0-.167.2.656.656,0,0,1-.4.355.4.4,0,0,0-.257.4c0,.175.123.241.246.313a.17.17,0,0,0,.266-.07.527.527,0,0,1,.325-.3c.021.028.041.056.064.081.079.086.082.251.243.252a.861.861,0,0,0,.506-.088,1.08,1.08,0,0,0,.582-.794,1.116,1.116,0,0,1,.536-.808,1.472,1.472,0,0,0,.2-.171.541.541,0,0,1,.5-.141c0,.355.013.7,0,1.039-.014.284-.021.3.235.433a.889.889,0,0,0,.714.056c.243-.081.489-.155.727-.248a.532.532,0,0,1,.456.026c.183.088.376.153.559.241a.325.325,0,0,0,.389-.05c.134-.115.276-.221.417-.327.053-.04.112-.072.213-.136-.069.523-.131,1-.193,1.468-.711.136-.947.708-.559,1.36l-.639.89c-.026.036-.053.07-.079.106a.89.89,0,0,1-.535.349c-.088.229-.179.468-.277.727-.312-.038-.52.212-.77.364-.156.094-.09.285-.1.432.02.021.029.04.043.046.277.11.281.126.274.425-.007.238,0,.477.016.715.009.161.063.2.222.188.123-.009.246-.025.367-.044a.255.255,0,0,0,.255-.3c0-.044-.013-.088-.011-.131.006-.108-.1-.226.012-.325.144-.126.272-.284.489-.29.051,0,.1,0,.177,0-.013.219-.021.418-.041.617a.524.524,0,0,0,.086.348c.431.689.853,1.383,1.292,2.1-.183.208-.366.418-.552.627-.112.126-.223.25-.34.371a.4.4,0,0,0-.094.411c.236.95.466,1.9.7,2.854.008.034.015.069.031.14a7.759,7.759,0,0,1-2.336.537Z" transform="translate(-70.474 -163.025)" fill="#192857"/>
      <path id="Path_604" data-name="Path 604" d="M324.306,94.883c-.4.5-.786.985-1.17,1.467-.2.255-.41.508-.606.77a.238.238,0,0,1-.339.1c-.208-.114-.417-.226-.614-.355-.163-.107-.183-.126-.31.016a1.19,1.19,0,0,0-.241.37,1.8,1.8,0,0,0,.036,1.491,1.118,1.118,0,0,1,.038.877c-.068.209-.129.42-.2.644a.546.546,0,0,1-.417-.1,2.294,2.294,0,0,0-1.195-.372,3.777,3.777,0,0,1-1.5-.484q-.47-.246-.938-.494a1.281,1.281,0,0,0-.948-.127c-.154.04-.309.074-.465.1a.789.789,0,0,1-.879-.389c-.014-.022-.024-.047-.038-.07-.108-.177-.185-.185-.313-.017q-.523.685-1.035,1.376a1.424,1.424,0,0,0-.2.387l-.389.327c-.192-.06-.213-.111-.174-.342a2.97,2.97,0,0,0,.055-.627.4.4,0,0,0-.483-.364c-.288.035-.578.055-.867.077a.134.134,0,0,1-.1-.031c-.127-.135-.252-.272-.369-.415a.234.234,0,0,1-.036-.147,2.994,2.994,0,0,0-.216-.977.867.867,0,0,0-.618-.57c-.172-.055-.252-.009-.288.169-.031.154-.036.313-.056.494a.794.794,0,0,1-.363-.117.392.392,0,0,0-.547.054c-.175-.068-.332-.122-.484-.188a.419.419,0,0,1-.184-.131c-.12-.185-.113-.189-.317-.148a1.049,1.049,0,0,1-.112.007.807.807,0,0,1-.039-.208c.027-.36-.134-.493-.478-.382-.066.021-.131.046-.213.076.037-.424-.271-.691-.422-1.023-.032-.072-.15-.112-.236-.15-.161-.072-.331-.125-.49-.2a1.908,1.908,0,0,1-.254-.169c.062-.166.2-.173.307-.214.355-.131.718-.242,1.063-.4a1.05,1.05,0,0,0,.364-.331.241.241,0,0,0-.053-.375,2.987,2.987,0,0,1-.718-.872,1.3,1.3,0,0,1-.2-.432,3.216,3.216,0,0,0-.472-.942c-.112-.176-.206-.364-.316-.561l10.654-7.678c.322.179.639.351.95.534a1.987,1.987,0,0,0,.494.176,1.555,1.555,0,0,0,1.492-.252.255.255,0,0,1,.082-.021c.013.022.036.043.036.063a3.033,3.033,0,0,0,.5,1.542c.028.055.074.1.1.156a7.4,7.4,0,0,0,1.7,2.034c.213.21.4.447.586.66a.805.805,0,0,0-.546.832.183.183,0,0,1-.013.078,4.043,4.043,0,0,0-.348,1.022.719.719,0,0,1-.2.305.161.161,0,0,0,.008.269.638.638,0,0,0,.729.169.641.641,0,0,1,.77.15c.064.06.14.108.205.168a.737.737,0,0,1-.049,1.169.509.509,0,0,1-.135.084,1.033,1.033,0,0,0-.627.883c-.031.15-.012.2.139.223a2.485,2.485,0,0,1,1.267.675,2.493,2.493,0,0,0,1.027.633l.208.05Z" transform="translate(-280.048 -76.402)" fill="#192857"/>
      <path id="Path_605" data-name="Path 605" d="M436.6,6.818c.521-.377,1-.725,1.478-1.071q1.988-1.433,3.978-2.864a.622.622,0,0,0,.265-.35.4.4,0,0,1,.372-.347.224.224,0,0,0,.143-.063,1.29,1.29,0,0,1,.618-.341.331.331,0,0,0,.223-.262.562.562,0,0,1,.6-.438.452.452,0,0,0,.483-.289,1.033,1.033,0,0,1,.406-.4.172.172,0,0,1,.122-.037c.276.069.442-.11.615-.274.083.016.16.032.238.043a.7.7,0,0,1,.512.206c.135.166.358.188.526.305a.425.425,0,0,0,.279.007,3.053,3.053,0,0,0,.355-.106c.119-.036.2-.02.238.122a1.315,1.315,0,0,0,.123.25.954.954,0,0,0-.11.694l.309.2.531-.107a.827.827,0,0,0,.359.346.376.376,0,0,1,.045.6,1.027,1.027,0,0,0-.231.211c-.1.157-.02.3.156.362a.934.934,0,0,0,.681-.091.2.2,0,0,1,.184-.012c.27.106.417.036.539-.226.044-.094.093-.165.222-.128a1.043,1.043,0,0,0,.208-.007c.083,0,.165.023.284.041-.051.144-.084.26-.133.368a.409.409,0,0,0,.022.446.355.355,0,0,1-.008.475,1.149,1.149,0,0,0-.163.435c-.012.048.05.118.09.17.018.025.074.021.093.046a2.117,2.117,0,0,0,.249.358c.108.1.208.165.217.334s.293.23.461.131a1.3,1.3,0,0,0,.184-.164c.086.073.183.156.288,0,.077-.11.167-.1.272-.022a.345.345,0,0,0,.212.064.7.7,0,0,1,.616.225c.024.025.056.061.083.06.212-.008.259.174.367.293.321.356.185.7-.019,1.036-.134.218-.242.446-.365.668a.464.464,0,0,0,.312.64,5,5,0,0,1,.532.155.5.5,0,0,1,.269.275,2.867,2.867,0,0,0,.381.593.372.372,0,0,1,.1.354c-.006.034-.036.069-.032.1.059.527-.349.669-.7.856a.432.432,0,0,0-.047.037c-.062.169.03.322.073.479a.326.326,0,0,1-.021.3c-.163.22-.113.487-.2.773.133-.016.223-.025.313-.037.2-.028.4-.072.6-.082.231-.012.335.081.44.343a2.126,2.126,0,0,1-.3.067.728.728,0,0,0-.539.3c-.2.249-.385.5-.569.761a.526.526,0,0,1-.322.237,2.066,2.066,0,0,0-.518.3.3.3,0,0,0-.085.1,2.014,2.014,0,0,1-1.118.834c-.647.232-1.29.479-1.932.726a1.449,1.449,0,0,0-.319.181c-.135.1-.26.211-.408.335l-.665-.55c-.335-.278-.432-.294-.8-.08a9.02,9.02,0,0,1-1.538.639,1.337,1.337,0,0,0-.516.253.729.729,0,0,1-.319.115.7.7,0,0,0-.484.446,1.223,1.223,0,0,1-.237.374.7.7,0,0,0-.2.444c-.013.121-.044.24-.068.37a1.5,1.5,0,0,1-.811-.318c-.2-.15-.387-.308-.575-.467a2.153,2.153,0,0,0-1.049-.532.328.328,0,0,1-.09-.045.7.7,0,0,1,.434-.672.984.984,0,0,0,.594-.871.8.8,0,0,0-.222-.677c-.114-.11-.243-.2-.36-.312a.747.747,0,0,0-.881-.141.429.429,0,0,1-.5-.094,1.365,1.365,0,0,0,.279-.745.3.3,0,0,1,.021-.1,2.941,2.941,0,0,0,.31-.918.492.492,0,0,1,.433-.41,1.1,1.1,0,0,0,.155-.036.119.119,0,0,0,.074-.188.789.789,0,0,0-.167-.2,19.146,19.146,0,0,1-1.692-1.675,6.5,6.5,0,0,1-1.089-1.858.976.976,0,0,1-.092-.541.422.422,0,0,0,0-.079c-.012-.339-.141-.415-.43-.253-.146.082-.3.153-.437.248a.532.532,0,0,1-.427.084c-.13-.024-.261-.041-.392-.06a1.412,1.412,0,0,1-.565-.206c-.252-.158-.518-.3-.816-.464Z" transform="translate(-400.511 -0.08)" fill="#192857"/>
    </g>
  </g>
</svg>
