<svg xmlns="http://www.w3.org/2000/svg" width="84.165" height="123.278" viewBox="0 0 84.165 123.278">
  <path id="Path_583" data-name="Path 583" d="M25.225,163.641l-.283-.225-.011-.008-.013-.005-1.052-.444-.018-.008h-.02l-2-.01h-.039l-.029.027-.248.231-.066,0-.76-.245-.023-.007-.023,0-.62.1-.707-.2-1.261-.841-.015-.01-.018,0-1.225-.283-.294-.692L16.492,161l-.01-.012-.521-.6,0,0,0,0-.869-.888-.007-.007-.009-.006-.8-.531,0,0,0,0-.951-.5-.016-.009-.018,0L12.9,158.4l-.017,0-.017,0-.381.092-.034.008-.021.028-.17.221-.486-.518,0-.505v-.015l-.274-1.944-.019-1.073.2-.938.085.024.3.452.016.025.027.012.622.265.023.01.025,0,.5-.043H13.3l.012,0,.425-.154.008,0,.008,0,.174-.1.019-.011.013-.018,1.481-2.133.022-.031,0-.038-.227-1.756v-.007l-.386-1.907.016-.054.194.551,0,.012.007.01.145.217.056.084.083-.058.1-.068.044-.031,0-.053-.009-.323.237-.874,0-.018,0-.018-.153-1.541.119-.784,0-.015,0-.015-.09-.585.029-1.231v-.01l0-.01-.2-1.086,0-.009,0-.008-.125-.343,0-.007,0-.007-1.275-2.323-.359-1.073v0l0,0-.3-.7,0-.005,0,0-.744-1.3-.618-1.581.032-.134,0-.018,0-.018-.164-1.226v-.007l0-.007-.347-1.2-.008-.028-.022-.019-.071-.062.024-2.287.187-1.088,0-.022-.006-.022-.261-.912,0-.013-.007-.012-.124-.2-.079-.539,0-.012,0-.012-.275-.651-.006-.014-.01-.012L9.71,125.222l-.134-.408-.038-.961v-.021l-.009-.019-.425-.859,0-.006,0-.005-1.023-1.53-.012-.018-.019-.011-.378-.23-.382-.546-.305-1.376.063-.409.169-.4.011-.027,0-.028-.1-.613v-.006l0-.006-.256-.893,0-.008,0-.008-.714-1.481v0L5.41,114l0-.005,0,0-1.12-1.617,0-.006-.005-.005-1.582-1.682-.275-.871.188-.376.021.274v.019l.008.017.159.328.134.275.053-.3.126-.712.629.777.1.284.062.976v.013l0,.012.121.357.005.016.01.013.386.492.022.029.036.007.164.034.108.022.011-.11.01-.1.263-.181.179.043.067.016.038-.057.376-.56.016-.024v-.029l.029-.994v-.035l-.021-.028-.376-.5-.01-.014-.014-.01-.177-.116.037,0,.033-.036.179-.193.009-.01.006-.012.29-.561.219,1.085,0,.008,0,.008.145.371,0,.012.008.011.579.777.061.082.08-.063.656-.516.025-.019.009-.03.14-.468.014-.046-.028-.039-.149-.212-.092-.373.155-.974.035.017.075.132.084-.163.092-.179.011-.021v-.024l0-.709v-.04l-.027-.029-1.163-1.231-.614-1.151-.567-1.438-.012-.031-.028-.017-.525-.32-.458-1.3-.04-.234.056-.507,0-.033-.017-.029-.323-.536,0-.007-.005-.006-.649-.758-.177-.518-.028-1.1.205-.532,0-.01,0-.01.115-.7.444-1.433.348-.7.726-.57.026-.02.009-.032.13-.487,0-.007v-.008l.072-.651v-.013l0-.013-.112-.729.3-.9.007-.02,0-.021-.058-.55v-.012l0-.012-.285-.786,0-.012L5.167,90l-.416-.589L4.683,89l.739-1.5,0-.006,0-.006.7-2,.486-.723.273-.154.3-.052.012.023-.237.447-.007.014,0,.015-.256,1.481-.005.031.013.028.325.687-.159,1.012-.008.049.035.036.227.232.047.048.062-.026,1.144-.482.046-.019.012-.049.143-.6.313-.8.86-1.494.006-.01,0-.011.124-.424,1.475-.819.553-.042.019,0,.017-.009,1-.5,1.077-.413.024-.009.016-.019.872-1.03.3-.232.65-.28.027-.012.016-.025.607-.913,1.205-.562.037-.017.014-.038.122-.323.284-.157.3-.036H18.5l.01,0,.869-.309.01,0L19.4,79l.685-.425.006,0,.006,0,.494-.417.348.075.206.206.019.019.026.007.232.063.038.01.035-.019.96-.515.45.156.152.173.014.016.02.009.367.164.011,0,.012,0,.391.072.01,0h.01l.333,0h.009l.009,0,1.462-.3.01,0,.01,0,.864-.376.016-.007.013-.012,1.14-1.1.474-.283.024.046.027.052h.059l.222,0h.018l1.615-.268.577.033H30.8l.018-.006.753-.251.027-.009.018-.022.782-.936.011-.013.006-.016.144-.393.48-.366.524-.049,1.261.313.766.3.041.016.04-.02,1.052-.543,2.363-.345h.009l.008,0,.511-.169h.007l2.837-1.182,0,0,0,0,.782-.405.01,0,.008-.007,1.308-1.09.009-.008.007-.01,1.11-1.5.006-.008,0-.009.787-1.694.718-.967.024-.033-.006-.04-.059-.415.168-.371.073-.07.29.069.037.009.033-.018.261-.14.008,0,.007-.006.386-.309.012-.009.009-.012.265-.389.3-.148.009,0,.008-.007,1.1-.864.02-.016.01-.024.159-.386.009-.023,0-.025-.029-.3,0-.037-.027-.026-.154-.145-.018-.017-.023-.007-.38-.106-.2-.3-.056-1.006v-.015l-.006-.014-.3-.783.014-1.036.158-.626.415-.714.624-.592.325-.206.637,0h.152l-.062-.139-.242-.541.171-.23.059-.024.07.067.029.028h.182l.016-.005.589-.2.046-.016.016-.046.053-.154.016-.047-.028-.041-.11-.162.11-.459.111-.126.243-.051.032-.007.022-.024.275-.3.022-.024,0-.033.027-.276.081-.13.28-.1.25.25-.022.028L53.483,55,53.4,55l-.023.081-.174.6-.014.047.029.039.333.454.011.015.016.01.367.23.1.377,0,.012.006.011,1,1.877,0,0,0,0,1.28,2.047.112.434.193-.005.1-.478.007-.034-.016-.031-.166-.324.017-.39.285-.865.01-.031-.01-.031-.228-.7.073-.314.208-.006.635.768,0,.006.006,0,.386.347.012.011.015.006.188.082.045.02.043-.024.13-.072.168-.093L58.378,59l-.182-.087-.213-.265-.17-.681.463-.53.083-.094-.111-.059-.174-.092-.036-.019L58,57.189l-.354.107-.021-.015-.244-.522-.007-.014-.011-.011-.546-.592.027-.552,0-.1.014,0,.067.015.038-.057.357-.54.012-.018,0-.021.043-.28,0-.02,0-.019-.053-.212-.015-.061-.062-.012-.557-.111-.136-.122-.012-.412.041-.088.722-.158.322.251-.064.142-.225.06-.161.043.115.121.56.589.021.022.03.006.275.058.114.024.005-.117.008-.182.323-.439.564.081.26.116.108.071.176.421.011.027.024.016.145.1.023.016.028,0,.541.029.048,0,.032-.036.22-.252.41.2.016.008.018,0,.54.053h.012l.012,0,.758-.107.534.235.039.017.039-.016.3-.125-.029-.19-.388-.037-.6-.282-.009,0-.01,0-.43-.1-.008,0h-.008l-.275-.019h-.018l-.017,0-.416.121h-.267l-.043-.046-.117-.525.251-.571.1-.022.213.324.056.085.084-.058.391-.27.047-.033,0-.057-.037-.48.143-.523.57-.575.1-.105-.137-.056-.294-.121-.032-.013-.033.01-.285.082-.038.011-.02.034-.4.676-.153,0-.4-.346-.141-1,.422-.967.083-.037.444.255.047.027.048-.025.391-.2.022-.012.014-.021L62.4,49.6l.019-.028,0-.033-.053-.955.106-.025,1.04.532.414.4.011.011.014.007.984.478.109-.164-.527-.467-.013-.053.233-.425.035-.064-.05-.052-.111-.116-.029-.03h-.042l-.449,0h-.018l-.017.006-.411.152-.029-.152.154-.215.13-.062.1.067.087.056.052-.09.207-.357.065-.112-.126-.033-.164-.043-.043-.011-.037.025-.659.436-.047,0-.112-.3.12-.154.171-.08.273.081.029.008.029-.009.111-.034.015,0,.013-.009.275-.193.065-.046-.031-.074-.046-.11.15-.106.313.7.012.028.025.016.092.058.118.075L64.991,48l.053-.232,0-.018,0-.018-.038-.259.395.231.011.141,0,.057.051.025.208.1.023.011h.026l.487-.024.037,0,.027-.025.106-.1.08-.076-.085-.071-.092-.077-.032-.027-.041,0-.116.011-.028-.026.078-.076.086-.083-.1-.069-.57-.405-.006,0-.007,0-.4-.2.073-.085.115-.039.122-.042-.072-.107-.522-.773.518-.739.431-.358.219.092.017.007h.019l1.052.024.093,0,.008-.093.053-.656V44l0-.012-.1-.615.057-.307.056-.042.452.215-.435,1.843-.084.356.253-.265.1-.1.017-.018.007-.023.29-1,.46.236-.085.507-.006.033.016.03.1.188.012.023.022.014.309.193.071.044.056-.062.456-.508.237-.167.034-.024.007-.041.147-.907.394-.8.009-.018v-.02l.014-.248.043.141.016.052.052.015.2.056.261.266.088.089.067-.105L71,42.8l.026-.04-.015-.045-.084-.249.183-.425.471-.373.174-.025-.181.443-.022.053.035.045.594.767.02.026.031.009.169.048.058.017.041-.044.541-.569.009-.009.006-.011.449-.816.019-.034-.009-.037-.207-.862.5-.2.457-.108.276.223.256.33-.067.148-.025.056.038.048.371.458.087.108.074-.117.13-.208.014-.023v-.027l0-.081.348-.015.912.293.483.682.011.015.015.01.7.473L79.454,44.9l.049.068.075-.037.168-.082.812.7L80.64,46l-.227.328-.009.013,0,.015-.372,1.255-.005.018,0,.019.053.563-.033,1-.265.531-.148.3.286-.165.251-.145.019-.011L80.2,49.7l.145-.2.014-.019,0-.023.164-1.063.126.051.364.359.147.487.194-.024.024-.521v-.029l-.014-.025-.345-.6-.154-.617.518-.711.121.6.016.077.079,0,.5.014.083,0,.017-.081.053-.246.008-.036-.018-.033-.2-.364-.14-.6.661-.189,2.331.583v12.9l.029,49.023-.063,33.82-1.026.447-.005,0,0,0-1.245.726-1.938.88-.882.353-1.429.278-.009,0-.008,0-2.1.812-1.085.19-2.279.106-1.489-.143-1.144-.33-.037-.011-.035.017-.548.27-.473-.1-.036-.008-.033.018-.869.473-.008,0-.007.006-1.514,1.246-.35.155-.733.157-.014,0-.013.007-1.607.888-.01.005-.008.008-.6.539-.671.405-1.781.291-.011,0-.01,0-.632.251-.014.006-.012.01-.483.4-.008.007-.007.009-.439.56-.01.013-.005.016-.545,1.583,0,0v0l-.237,1-.471.331-.008.006-.007.007-.473.5-.01.011-.007.013-.178.357-.01.02v.022l0,.132-.2.22-.748.509-.868-.065-.023,0-.021.008-.135.053-.027.011-.017.023-.305.413-.216.165-.255.083-.317-.746-.016-.037L54.1,155.8l-.434-.183-.035-.015-.036.012-.885.3-.58-.084h-.018l-.714.029-.039,0-.027.028-.071.071-.7.072-.4-.079-.028-.006-.027.011-.294.116-.023.009-.016.018-.188.217-.018.021,0,.027-.045.245-.6.063-.076-.025.064-.136.016-.034-.01-.036-.155-.545-.005-.019-.012-.015-.3-.391-.017-.022-.027-.01-.106-.039-.025-.009-.026,0-.405.072-.029.005-.021.02-.272.258-.37.105-1.321-.476-.013,0h-.014l-.323-.024h-.005l-.656-.015h-.01l-.01,0L43.3,155.6H42.3l-.022.012-.356.189-1.3.181-.018,0-.016.009-.612.338-.821-.208-.009,0h-.01l-1.3-.068h-.018l-.017.005-1,.309-.026.008-.018.02-.374.412-.627.335-.016.009-.012.013-.275.314-.007.008,0,.009-.434.762-.008.014,0,.016-.066.355-.712.7-.563.332-.637-.226-.012,0h-.012l-.878-.082-.036,0-.03.02-.9.613-.016.011-.011.016-.106.159-.043.064.052.057.124.137-.115.13-.4.247-.833.271-.023.008-.017.018-.309.319-.014.015-.007.019-.149.393-.526.393-1.027.549-1.264.229-.07.013-.011.07-.019.13-.007.047.033.035.125.135.021.023.03.007.471.1-.067.038-.336-.061-.371-.293-.012-.01-.015-.006-.3-.111-.02-.007h-.021l-.328.019-.028,0-.023.016-.164.116-.029.02-.01.034ZM4.72,109.378l-.105-.069-.5-.523-.3-1.229,0-.015-.008-.013-.51-.826.081-.422.251-.4.046.034.477.859.009.016.013.012.535.46.175.5-.116.631-.126.138-.027.03v.04l.014.492v.015l0,.014Zm-2.533-.292-.047-.038-.765-1.16-.384-.772-.235-.882.031-.463.153-.221.082.02-.062.148-.01.024,0,.026.019.159v.011l0,.01.618,1.766,0,.008,0,.007.525.955.093.333ZM13.553,79.2l-.117-.1-.068-.057-.062.06,0-.106.505-.683.085-.052.055.289-.019.131-.283.441Zm42.64-23.7L56,55.323l.1,0,.739.166-.1,0Zm5.374-6.106-.013-.047-.008-.026-.02-.019-.24-.224.03-.169.1-.164.234-.1.348.582Zm3.106-4.308-.114-.062.027-.331.108-.277.158-.164.137.153-.1.492-.144.07-.038.018-.013.04Zm5.31-3.113-.186-.476-.012-.03-.027-.017-.131-.084.009,0,.386.058.287.145-.03.279-.217.093Z" transform="translate(-0.757 -40.363)" fill="#192857"/>
</svg>
