<svg xmlns="http://www.w3.org/2000/svg" width="99.326" height="117.761" viewBox="0 0 99.326 117.761">
  <path id="Path_594" data-name="Path 594" d="M273,299.281l-.542-.02-1.347-.721-1.411-1.418-.967-1.957,0-.009-.005-.008-.971-1.476-.016-.025-.024-.017-.6-.421-.044-.031-.054,0-.383.019-1.432-1.925-.479-.958.226-.466.018-.036,0-.041-.023-.421v-.026l-.01-.024-.374-.931.136-.855.543-.452.031-.026.015-.038.321-.826.011-.028v-.03l-.008-1.384v-.021l-.006-.02L265.3,283.6l0-.009,0-.009-1.4-3.413.065-.02-.092-.711,0-.017-.006-.016-.382-1.078-.007-.019-.011-.016-.314-.467-.005-.008-.006-.007-.987-1.139,0-.006-.005-.005-1.695-1.623.67-.072.11-.012.026-.108.214-.887,0-.013v-.013l.1-1.354v-.017l0-.017-.138-.971-.012-.082-.075-.037-1.193-.589-.1-.05-.08.079-.614.607-.4.119-.463-.021-.036,0-.034.015L258,271.8l-.059.026-.024.059-.168.413-.021.053.017.054.084.268.024.077.077.025.43.138.053.065-.246.316-2.155-.184-.038,0-.036.015-.589.245-.036.015-.025.03-.483.587-.4.276-2.9.155-.525-.4.406-.718,1.058-.529.025-.013.019-.021,1.269-1.369.032-.034.008-.046.237-1.338.006-.036-.01-.035-.091-.321.077-.587.4-.865.02-.044-.008-.048-.27-1.607.185-.873.006-.028,0-.029-.069-.443,0-.029-.015-.025-.5-.872-.006-.011-.008-.01-1.31-1.6-.45-1.62-.005-.02-.01-.018-1.055-1.8-.059-.1-.112.026-.2.046-.078.018-.031.073-.5,1.177-.029.067.033.065.194.388-.094.324-.76.782-.027.028-.011.038-.291,1,0,.017v.017l-.114,1.847-1.042,3.393-.007.022v.023l-.007.767-.479.389-1.089-.495-.013-.006-.013,0-.6-.153-.034-.008-.034.007-.321.061-.013,0-.013.005-1.56.589-.051.019-.028.046-.333.543-.119.078-1.1-.167-.073-.011-.055.048-.62.547-.384.142-.165-.08-.164-.275.246-.4.553-.545.023-.023.012-.03.2-.482.009-.021,0-.023.134-1.382.3-.436.579.229.048.019.05-.014.7-.187.625-.039.1.151.025.04.043.019.711.321.071.032.068-.037.413-.222.05-.027.021-.053.168-.42.007-.017,0-.018.367-2.4,0-.018,0-.018-.144-1.863.1-1.848,0-.025-.007-.025-.324-1.189.031-.043h.421l.044-.085.245-.474.007-.013,0-.014.421-1.392,0-.015,0-.015.064-.673,1.418-1.814.9-.882.313-.088.076-.022.028-.074.138-.359.017-.045-.011-.047-.268-1.17,0-.02-.009-.018-.81-1.554.214-.637.417-.3.4-.158.508-.014.053,0,.041-.033.229-.183.069-.055-.011-.087-.061-.5,0-.029-.014-.025-.252-.482-.026-.05-.052-.022-.376-.159-.464-2.108,0-.016-.007-.015-.428-.954-.226-1.167-.012-.059-.048-.036-.443-.336-.239-.181-.013.3-.069,1.6,0,.1.084.047.153.086.151.266.051.991-.248,1.283-.313.016h-.02l-.019.006-1.055.336-.04.013-.028.031-.887.964-.015.016-.01.02-.856,1.705-.015.029,0,.033-.045.8-.142.426-1.233,2.309-.5.42-.908.035-.548-.335-.129-.078-.084.125-.543.81-.086.128.126.088,0,0-.177.186-2.333,1.235-.012.007-.011.008-1.384,1.086-.008.007-.008.008-.474.49-.036.036-.007.051-.042.294-.4.751-.8,1.285-.629.279-.046.02-.026.044-.691,1.182-.824.515-.037.023-.02.039-.512,1.017-.005.01,0,.011-.589,1.782-.043.131.124.06.207.1.042.02L232,266.2l.367-.046.039-.005.032-.023.915-.643.06.274-.122,1.862-.175.074-.154-.293-.009-.017-.013-.014-.7-.772-.015-.017-.019-.012-.5-.306-.049-.03-.056.008-.52.076-.087.013-.034.081-.326.765-.1,0-.271-.522-.006-.012-.008-.011-1.094-1.43-.005-.008-.007-.007-.774-.8.067-.022.826-.268.414-.134-.4-.161-.774-.31-.08-.234-.035-.2.118-.262.02-.044-.008-.048-.367-2.065,0-.014-.005-.014-.627-1.67-.1-1.11,0-.039-.021-.033-.558-.864-.007-.01-.008-.009-1.331-1.5-.008-.01-.01-.008-1.521-1.237.206-.86.007-.028,0-.028-.084-.688,0-.017-.005-.016-.413-1.178,0-.008,0-.008-.841-1.736-.027-.056-.058-.022-.948-.367-.04-.015-.042.007-1.537.245-.028,0-.025.014-.547.312-.378-.424.006-.19v-.031l-.011-.029-.612-1.629,0,0,0,0-.9-2.056.35.024.253.235.1.45.077.335.2-.277.566-.772.014-.02.008-.024.168-.5.013-.039-.008-.041-.168-.872-.006-.033-.02-.028-.589-.834-.011-.015-.014-.013-.52-.451-.034-.029L218,242.4l-.237-.038-.036-.006-.036.011-1.315.413-.035.011-.026.025-.476.456-.1-.02.012-.632.164-.375.279.112.125.05.069-.115.138-.229.053-.089-.06-.084-1.032-1.438-.019-.027-.029-.017-.82-.481-.437-.392.068-.267.037-.145-.143-.044-.566-.176-.08-.025-.065.054-.207.168-.041.033-.013.051-.107.435-.583.367-2.582-.179-.193-.047-.549-.592-.026-.028-.036-.013-.734-.264-1.146-1.086-.015-.014-.019-.01-.4-.214-.026-.014-.03,0-1.667-.2-.025,0-.025.005-.8.161-.043.009-.032.03-.6.551-.669.235-.474.035-.506-.128-1.369-1.384-.009-.009-.01-.008-2.141-1.552-.009-.007-.011-.005-3.357-1.736-.008,0-.009,0-1.8-.673-.035-.013-.037,0-.275.031-.046.005-.036.029-.83.673-1.358.527-.386.049-4.389-.328h-.017l-.948.031H184.8l-1.766.138h-.014l-.013,0-.8.2-5.019.427h-.012l-1.729.284.046-53.325,7.269-.053,11.064.008,56.175-.008h24.749l.023,27.793-.038,48.243-.214-.283v.468l-.031,41.425-.8-.081-.031,0-.03.009Zm-9.956-20.306-1.521-2.028-.005-.007-.006-.006-.271-.292.307.269,1.48,2.032Zm-17.528-.336-.731-.744-.034-.035-.049-.009-1.093-.207-.039-.008-.038.013-.306.1-.083.027-.021.085-.076.31-.136.079-.936-.087-.02,0-.019,0-1.084.167-1.459.043-.22-.365-.014-.023-.02-.017-1.128-.938-.028-.261.353-1.037,2.944-.873.628-.007h.017l.017,0,.78-.184.014,0,.013-.006,1.6-.71,1.641.137.4.381-.007.758v.053l.032.043.115.153.039.053.065.009.765.1.792.451.031.018.035,0,.49.038.093.007.051-.078.45-.692,1.1.3.343.466.006.414-.472.424-.891-.435-.027-.013-.03,0-1.331-.1-.041,0-.037.018-1.17.551-.037.017-.024.034-.153.214-.037.052.009.063.1.625-.163.163Zm14.512-3.995-.738-.707-.012-.729.323-.13.5.429Zm-33.738-11.181.209-.58.2-.293.011.176,0,.056.038.042.466.5-.021-.007-.268-.084-.05-.016-.049.017Z" transform="translate(-175.452 -181.52)" fill="#192857"/>
</svg>
