<svg xmlns="http://www.w3.org/2000/svg" width="40.38" height="30.968" viewBox="0 0 40.38 30.968">
  <g id="noun-bandage-206179" transform="translate(84.203 -69.1)">
    <path id="Path_4" data-name="Path 4" d="M45.318,27.835A1.026,1.026,0,0,0,45,27.387a.619.619,0,0,0,.135-.179.5.5,0,0,0-.09-.673,85.251,85.251,0,0,0-9.555-8.254c-.179-.135-.493-.179-.628,0a37.266,37.266,0,0,1-2.153,3.364,15.524,15.524,0,0,1-2.288-1.884,17.988,17.988,0,0,0-4.172-3.409,2.1,2.1,0,0,0-2.422.224l-3.768,3.23a1.785,1.785,0,0,0-.9,1.346,1.987,1.987,0,0,0,.9,1.7,4.9,4.9,0,0,0,3.1,1.3h.179a.554.554,0,0,0,.359-.179l.852-1.032c.269.269.538.538.718.763A10.063,10.063,0,0,0,27.329,25.5a.723.723,0,0,0,.314.179l-.224.09a17.969,17.969,0,0,1-8.03,1.884h-.449a19.417,19.417,0,0,1-2.467-.135,1.37,1.37,0,0,0-1.121.359c-2.6-.987-3.813-2.422-7.043-4.441-2.961-1.929-5.024,6.55-1.391,11.035,2.2,2.692,5.069,3.813,8.03,4.755a1.317,1.317,0,0,0,.9.852l1.57.538,5.069,2.064,3.948,2.781a7.731,7.731,0,0,0,3.275,1.346h.135c.135,0,.269.045.4.045a16.466,16.466,0,0,0,1.75.179h0a5.854,5.854,0,0,0,5.877-4.082h0a27.551,27.551,0,0,0,1.346-5.024,21.823,21.823,0,0,1,2.422-5.293,2.194,2.194,0,0,0,1.121-.763l2.333-3.14A.861.861,0,0,0,45.318,27.835ZM23.068,23.08a4.218,4.218,0,0,1-2.243-1.032,1.087,1.087,0,0,1-.493-.763.648.648,0,0,1,.314-.449,5.134,5.134,0,0,1,3.14,1.391ZM17.236,39.409,16.2,39.05a.337.337,0,0,1-.224-.314V28.957a.386.386,0,0,1,.359-.359h.045a22.561,22.561,0,0,0,2.647.135,10.552,10.552,0,0,0,1.256-.045Zm5.024,1.974-3.993-1.57,3.14-11.17,1.391-.224Zm1.077.538.628-13.772L25,27.88l1.166,16.06Zm7.716,3.9A7.07,7.07,0,0,1,27.329,44.7l-1.256-17c.314-.135.628-.314.942-.449l3.454,6.684.987,11.888Zm1.525.135-.763-9.51,4.127,7.94A4.993,4.993,0,0,1,32.578,45.959Zm3.993-2.692L28.047,26.8l.628-.493C30.6,27.566,32.264,28.6,33.7,29.45l4.441,8.478A20.143,20.143,0,0,1,36.57,43.267ZM38.589,36.4l-3.14-5.966a25.136,25.136,0,0,0,4.979,2.153A27.344,27.344,0,0,0,38.589,36.4Zm3.364-5.2a.986.986,0,0,1-1.032.359C39.486,31.2,35.9,29.809,28,24.516A7.933,7.933,0,0,1,26.163,22.9a16.485,16.485,0,0,0-1.256-1.256h0a7.87,7.87,0,0,0-3.14-1.839l2.826-2.422a1.014,1.014,0,0,1,1.166-.09,16.54,16.54,0,0,1,3.9,3.23c2.422,2.692,9.959,6.415,14.49,7.671Z" transform="translate(-89.183 53.032)" fill="#fff"/>
  </g>
</svg>
