<svg xmlns="http://www.w3.org/2000/svg" width="39.481" height="39.499" viewBox="0 0 39.481 39.499">
  <g id="noun-syringe-6936275" transform="translate(23.481 -167.511)">
    <g id="Group_76" data-name="Group 76" transform="translate(-27 164)">
      <path id="Path_5" data-name="Path 5" d="M80.327,3.544a2.8,2.8,0,0,0-.635.584C77.8,6.063,75.892,7.979,74,9.91a3.287,3.287,0,0,0-2.8.834c-.443.425-.843.891-1.282,1.319a11.5,11.5,0,0,1,.876.829c.3.3.617.581.907.891.367.383.763.74,1.118,1.136.32-.362.685-.68,1.02-1.027v0a3.65,3.65,0,0,0,.836-1.072,2.6,2.6,0,0,0,.2-2.054c.587-.533,1.118-1.125,1.692-1.672.839-.826,1.656-1.674,2.492-2.5.524-.524,1.058-1.04,1.561-1.584.231-.249.6-.474.574-.858v0a.666.666,0,0,0-.873-.6Z" transform="translate(-38.2)" fill="#fff"/>
      <path id="Path_6" data-name="Path 6" d="M48.754,27.046c-1.148-1.1-2.253-2.245-3.386-3.359a2.765,2.765,0,0,0-.536-.478,1.36,1.36,0,0,0-1.541.254c-.735.78-1.513,1.52-2.245,2.3.465.373.861.82,1.289,1.233.377.392.783.751,1.158,1.143a.825.825,0,0,1,.3.617.683.683,0,0,1-.7.685.768.768,0,0,1-.561-.282c-.786-.824-1.632-1.591-2.405-2.427q-1.053,1.06-2.1,2.125v0a7.113,7.113,0,0,1,.65.615c.523.508,1.027,1.035,1.563,1.53a2.154,2.154,0,0,1,.415.478.8.8,0,0,1-.08.71.681.681,0,0,1-1.047.081c-.524-.524-1.045-1.052-1.574-1.571a8.985,8.985,0,0,1-.836-.886c-.255.249-.488.524-.742.775-.46.484-.954.937-1.385,1.448.04.017.121.051.161.07.756.758,1.536,1.5,2.279,2.271h0a.759.759,0,0,1,.07.989.807.807,0,0,1-.594.242.793.793,0,0,1-.474-.28c-.539-.513-1.065-1.038-1.6-1.558-.254-.26-.524-.506-.758-.786-.692.683-1.355,1.393-2.047,2.077h0a13.587,13.587,0,0,1,1.072,1c.388.4.8.776,1.188,1.171a1.5,1.5,0,0,1,.461.6.708.708,0,0,1-.436.844,1.285,1.285,0,0,1-.478,0,.972.972,0,0,1-.338-.257c-.756-.828-1.606-1.563-2.371-2.382-.586.567-1.13,1.176-1.712,1.745.886.776,1.685,1.644,2.528,2.467.9.879,1.793,1.765,2.687,2.651.264.274.552.526.793.824a1.69,1.69,0,0,1,.28-.335c2.143-2.16,4.333-4.272,6.471-6.437.894-.851,1.753-1.739,2.638-2.6,1.518-1.535,3.086-3.019,4.609-4.549l0,0a1.53,1.53,0,0,0,.189-1.875,11.686,11.686,0,0,0-.854-.889Z" transform="translate(-14.898 -11.255)" fill="#fff"/>
      <path id="Path_7" data-name="Path 7" d="M24.1,65.838c.5-.453.979-.924,1.448-1.405-.37-.426-.811-.788-1.211-1.188-.745-.737-1.5-1.46-2.235-2.208-.839-.844-1.71-1.656-2.532-2.517-.537.473-1.012,1.01-1.51,1.523-.433-.455-.888-.888-1.33-1.33l0,0a12.059,12.059,0,0,0-.969-.941,1.236,1.236,0,0,0-1.83,1.493,3.119,3.119,0,0,0,.659.742c1.866,1.841,3.787,3.626,5.652,5.47,1.249,1.279,2.528,2.528,3.782,3.8l0,0a2.139,2.139,0,0,0,.951.683,1.24,1.24,0,0,0,.687-.025,1.194,1.194,0,0,0,.883-1.166,1.261,1.261,0,0,0-.358-.873c-.7-.685-1.4-1.364-2.084-2.065Z" transform="translate(-5.94 -31.099)" fill="#fff"/>
      <path id="Path_8" data-name="Path 8" d="M12.6,74.558c-.392-.372-.785-.743-1.145-1.145-.609.6-1.2,1.226-1.8,1.838-.674.7-1.37,1.372-2.022,2.089-.478-.46-.957-.917-1.413-1.4v0a5.151,5.151,0,0,0-.756-.7,1.369,1.369,0,0,0-.815-.139,1.29,1.29,0,0,0-1.133,1.281,1.477,1.477,0,0,0,.61,1.085c1.1,1.055,2.162,2.148,3.253,3.21q1.1,1.117,2.223,2.215A1.242,1.242,0,0,0,11,83.1a1.272,1.272,0,0,0,.756-1.223,1.224,1.224,0,0,0-.337-.8c-.426-.456-.886-.879-1.312-1.335,1.3-1.267,2.556-2.57,3.867-3.821-.45-.461-.919-.9-1.367-1.365Z" transform="translate(0 -40.216)" fill="#fff"/>
    </g>
  </g>
</svg>
