<svg xmlns="http://www.w3.org/2000/svg" width="40" height="40" viewBox="0 0 40 40">
  <path id="ban-smoking-solid" d="M7.579,11.03l6.033,6.033,7.313,7.313,7.046,7.046A14.623,14.623,0,0,1,7.579,11.03ZM25.388,21.938,22.951,19.5h6.3v2.438Zm2.438,2.438h2.643a1.222,1.222,0,0,0,1.219-1.219V18.281a1.222,1.222,0,0,0-1.219-1.219H20.513L11.03,7.579A14.623,14.623,0,0,1,31.421,27.97ZM19.5,39A19.5,19.5,0,1,0,0,19.5,19.5,19.5,0,0,0,19.5,39ZM20.719,7.312A1.222,1.222,0,0,0,19.5,8.531a3.657,3.657,0,0,0,3.656,3.656h2.438a1.222,1.222,0,0,1,1.219,1.219,1.219,1.219,0,0,0,2.438,0A3.657,3.657,0,0,0,25.594,9.75H23.156a1.222,1.222,0,0,1-1.219-1.219A1.222,1.222,0,0,0,20.719,7.312ZM17.481,24.375l-7.312-7.312H8.531a1.222,1.222,0,0,0-1.219,1.219v4.875a1.222,1.222,0,0,0,1.219,1.219Z" transform="translate(0.5 0.5)" fill="#fff" stroke="#192857" stroke-width="1"/>
</svg>
