<svg xmlns="http://www.w3.org/2000/svg" width="31.248" height="41.667" viewBox="0 0 31.248 41.667">
  <path id="person-cane-solid" d="M51.553,3.906a3.906,3.906,0,1,0-3.906,3.906,3.906,3.906,0,0,0,3.906-3.906ZM50.9,19.149,54.76,23.8a2.606,2.606,0,0,0,4.012-3.328l-6-7.235a7.8,7.8,0,0,0-6.014-2.824H43.838a7.819,7.819,0,0,0-6.7,3.792L32.4,22.095a2.6,2.6,0,1,0,4.46,2.686l2.327-3.874V39.062a2.6,2.6,0,0,0,5.208,0V28.646h1.3V39.062a2.6,2.6,0,0,0,5.208,0ZM58.064,30.6a.651.651,0,0,1,1.3,0v9.115a1.953,1.953,0,1,0,3.906,0V30.6a4.557,4.557,0,1,0-9.115,0v.651a1.953,1.953,0,0,0,3.906,0Z" transform="translate(-32.024)" fill="#fff"/>
</svg>
