<svg xmlns="http://www.w3.org/2000/svg" width="58.6" height="66.971" viewBox="0 0 58.6 66.971">
  <g id="noun-urinary-tract-6282140" transform="translate(-8.4)">
    <path id="Path_15" data-name="Path 15" d="M374.279,0A6.285,6.285,0,0,0,368,6.279a11.252,11.252,0,0,0,.607,3.159c.145-.012.292-.02.439-.02h3.431l.808-2.424a1.047,1.047,0,1,1,1.986.662l-.587,1.762h.641a1.046,1.046,0,0,1,0,2.093h-.641l.587,1.762a1.047,1.047,0,0,1-1.986.662l-.808-2.424h-3.431a3.1,3.1,0,0,0-.457.034A11.142,11.142,0,0,0,368,14.65a6.285,6.285,0,0,0,6.279,6.279c4.616,0,8.371-4.695,8.371-10.464S378.895,0,374.279,0Z" transform="translate(-315.65 0)" fill="#192857"/>
    <path id="Path_16" data-name="Path 16" d="M42.173,11.511l-.808,2.424a1.047,1.047,0,1,1-1.986-.662l.587-1.762h-.641a1.046,1.046,0,0,1,0-2.093h.641l-.587-1.762a1.047,1.047,0,1,1,1.986-.662l.808,2.424H45.6c.148,0,.294.008.44.02a11.253,11.253,0,0,0,.607-3.159A6.285,6.285,0,0,0,40.371,0C35.755,0,32,4.695,32,10.464s3.755,10.464,8.371,10.464A6.285,6.285,0,0,0,46.65,14.65a11.123,11.123,0,0,0-.59-3.105,3.087,3.087,0,0,0-.457-.034H42.173Z" transform="translate(-23.6 0)" fill="#192857"/>
    <path id="Path_17" data-name="Path 17" d="M165.064,77.363a23.5,23.5,0,0,0,.548,4.759,14.1,14.1,0,0,1-.494,8.514c-1.368,4.1-.29,6.608.752,9.031a11.789,11.789,0,0,1,1.287,4.9,17.285,17.285,0,0,1-1.516,5.827,10.717,10.717,0,0,0-1.353-1.1,19.122,19.122,0,0,0-19.38,0,10.812,10.812,0,0,0-1.353,1.1,17,17,0,0,1-1.516-5.827,11.584,11.584,0,0,1,1.287-4.9c1.043-2.422,2.12-4.926.752-9.031a14.1,14.1,0,0,1-.494-8.514,23.4,23.4,0,0,0,.548-4.759,5.238,5.238,0,0,0-4.793-5.213l.017,2.106a3.142,3.142,0,0,1,2.683,3.105,21.359,21.359,0,0,1-.51,4.36,16.024,16.024,0,0,0,.564,9.575c1.116,3.347.28,5.291-.688,7.541a13.644,13.644,0,0,0-1.458,5.732c0,3.054,1.758,6.87,2.135,7.653a7.415,7.415,0,0,0-1.088,3.857c0,3.916,3.5,7.155,10.133,9.364a3.523,3.523,0,0,1,2.424,3.193,1.046,1.046,0,0,0,2.093,0,3.521,3.521,0,0,1,2.424-3.193C164.7,123.234,168.2,120,168.2,116.079a7.412,7.412,0,0,0-1.088-3.857c.377-.782,2.135-4.6,2.135-7.653a13.649,13.649,0,0,0-1.458-5.732c-.968-2.25-1.8-4.194-.688-7.541a16.024,16.024,0,0,0,.564-9.575,21.358,21.358,0,0,1-.51-4.36,3.143,3.143,0,0,1,2.683-3.105l.017-2.106a5.238,5.238,0,0,0-4.793,5.213Z" transform="translate(-116.899 -62.712)" fill="#192857"/>
  </g>
</svg>
