<svg xmlns="http://www.w3.org/2000/svg" width="123" height="127.286" viewBox="0 0 123 127.286">
  <g id="Icon" transform="translate(0.5 0.5)">
    <g id="Group_296" data-name="Group 296" transform="translate(1 1)">
      <path id="Path_607" data-name="Path 607" d="M47,18.143V11.714A10.718,10.718,0,0,1,57.714,1h0A10.718,10.718,0,0,1,68.429,11.714v6.429H55.571" transform="translate(51.571 -1)" fill="none" stroke="#fff" stroke-linecap="round" stroke-linejoin="round" stroke-width="3"/>
      <path id="Path_608" data-name="Path 608" d="M9,108.143v-90A17.138,17.138,0,0,1,26.143,1h77.143" transform="translate(8.143 -1)" fill="none" stroke="#fff" stroke-linecap="round" stroke-width="3"/>
      <path id="Path_609" data-name="Path 609" d="M99.571,35V75.714A10.718,10.718,0,0,1,88.857,86.429h0A10.718,10.718,0,0,1,78.143,75.714V69.286H1v6.429A10.718,10.718,0,0,0,11.714,86.429h75" transform="translate(-1 37.857)" fill="none" stroke="#fff" stroke-linecap="round" stroke-linejoin="round" stroke-width="3"/>
      <line id="Line_5" data-name="Line 5" y2="12.986" transform="translate(98.571 17.143)" fill="none" stroke="#fff" stroke-linecap="round" stroke-linejoin="round" stroke-width="3"/>
      <line id="Line_6" data-name="Line 6" x2="46.596" transform="translate(28.085 32.143)" fill="none" stroke="#fff" stroke-width="3"/>
      <line id="Line_7" data-name="Line 7" x2="46.596" transform="translate(28.085 49.377)" fill="none" stroke="#fff" stroke-width="3"/>
      <line id="Line_8" data-name="Line 8" x2="25.532" transform="translate(28.085 66.611)" fill="none" stroke="#fff" stroke-width="3"/>
      <g id="Group_295" data-name="Group 295" transform="translate(57.857 32.138)">
        <g id="Path_610" data-name="Path 610" transform="translate(-28 -15.998)" fill="none" stroke-linecap="round" stroke-linejoin="round">
          <path d="M42.293,70.9,28,76,33.1,61.71,76.729,18.081a6.7,6.7,0,0,1,9.45-.257h0a6.7,6.7,0,0,1-.257,9.45L42.293,70.9Z" stroke="none"/>
          <path d="M 28.0000057220459 76.00271606445312 L 42.29286193847656 70.90270233154297 L 42.29286193847656 70.90272521972656 L 85.92144012451172 27.27412796020508 C 88.60001373291016 24.59556198120117 88.7071533203125 20.35270690917969 86.17857360839844 17.82413864135742 C 83.62857055664062 15.29555511474609 79.40714263916016 15.40271091461182 76.72858428955078 18.08128356933594 L 33.09999465942383 61.7098503112793 L 28.0000057220459 76.00271606445312 M 28.00047874450684 79.00279998779297 C 27.21799087524414 79.00279998779297 26.45113945007324 78.69648742675781 25.87868309020996 78.12403869628906 C 25.05912780761719 77.30448150634766 24.78498458862305 76.08613586425781 25.17449569702148 74.99451446533203 L 30.27448463439941 60.7016487121582 C 30.42385101318359 60.28302764892578 30.66438484191895 59.90281677246094 30.97867202758789 59.58852767944336 L 74.60726165771484 15.95996189117432 C 75.566162109375 15.00106143951416 76.68050384521484 14.25611686706543 77.91934967041016 13.74581718444824 C 79.12456512451172 13.24936199188232 80.39017486572266 12.99763965606689 81.68101501464844 12.99763965606689 C 84.19004821777344 12.99763965606689 86.53749847412109 13.95518398284912 88.29093170166016 15.69389533996582 C 88.29391479492188 15.69686126708984 88.29690551757812 15.69983959197998 88.29988098144531 15.7028169631958 C 90.11178588867188 17.51470565795898 91.07128143310547 19.9544620513916 91.00162506103516 22.57266235351562 C 90.93352508544922 25.13245010375977 89.88272094726562 27.55549430847168 88.04274749755859 29.39545059204102 L 44.4141845703125 73.0240478515625 C 44.09989547729492 73.33834075927734 43.71968460083008 73.57887268066406 43.30106353759766 73.72824096679688 L 29.00820541381836 78.82823181152344 C 28.67906761169434 78.94567108154297 28.33825302124023 79.00279998779297 28.00047874450684 79.00279998779297 Z" stroke="none" fill="#fff"/>
        </g>
        <line id="Line_9" data-name="Line 9" x2="9.171" y2="9.171" transform="translate(43.886 6.948)" fill="none" stroke="#fff" stroke-linecap="round" stroke-linejoin="round" stroke-width="3"/>
        <line id="Line_10" data-name="Line 10" x2="9.171" y2="9.171" transform="translate(6.729 44.105)" fill="none" stroke="#fff" stroke-linecap="round" stroke-linejoin="round" stroke-width="3"/>
      </g>
    </g>
  </g>
</svg>
