<svg xmlns="http://www.w3.org/2000/svg" width="56.997" height="58.594" viewBox="0 0 56.997 58.594">
  <g id="noun-lungs-6936273" transform="translate(3.498 -194.223)">
    <path id="Path_13" data-name="Path 13" d="M28.539,2a1.065,1.065,0,0,1,1.119-.786c.947,0,1.895-.007,2.842,0a1.041,1.041,0,0,1,1.058.889c.04.34.012.685.019,1.027,0,6.165-.03,12.329-.021,18.495h0a10.79,10.79,0,0,0,.106,1.845,7.03,7.03,0,0,0,1.9,3.635,5.882,5.882,0,0,0,3.6,1.8,4.17,4.17,0,0,0,2.915-.858c.879-.624,1.573-1.632,2.715-1.775,1.149-.04,2.3,0,3.452-.03h0a1.286,1.286,0,0,0,1.276-1.123,1.244,1.244,0,0,0-1.156-1.24c-1.33.009-2.659-.038-3.986.021v0a1.01,1.01,0,0,0,.138-.518c-.007-.842,0-1.684-.016-2.523h0a1.176,1.176,0,0,0-1.376-1.022,1.077,1.077,0,0,0-.893,1.015,18.609,18.609,0,0,1-.07,2.4,4.934,4.934,0,0,1-1.093,2.558,2.252,2.252,0,0,1-2.251.642,3.648,3.648,0,0,1-2.429-2.415,8.036,8.036,0,0,1-.382-2.849c.009-1.531-.009-3.065.007-4.6a3.926,3.926,0,0,1,1.529-3.051,4.521,4.521,0,0,1,2.72-.917,11.973,11.973,0,0,1,5.349,2.232h0a22.978,22.978,0,0,1,3.972,3.475,29.793,29.793,0,0,1,4.3,5.9,29.5,29.5,0,0,1,2.382,5.063v0a40.024,40.024,0,0,1,1.895,6.72c.441,2.328.776,4.676,1.025,7.032.091,1.137.155,2.279.234,3.419q.007,1.421.1,2.842.014,3.24,0,6.481v0a4.547,4.547,0,0,1-5.288,3.956,25.849,25.849,0,0,1-4.378-.725,26.276,26.276,0,0,1-10.362-4.643,11.6,11.6,0,0,1-2.256-2.448,11.846,11.846,0,0,1-1.226-2.27,9.445,9.445,0,0,1-.718-3.839q0-5.652-.028-11.3l0,0a21.388,21.388,0,0,1,2.307,1.517,8.556,8.556,0,0,1,1.766,2.495,11.4,11.4,0,0,1,1.534,3.17,7.831,7.831,0,0,1-.387,3.248,1.229,1.229,0,0,0,.61,1.466,1.191,1.191,0,0,0,1.616-.9,10.821,10.821,0,0,0,.342-4.568A13.029,13.029,0,0,0,40.974,37a3.287,3.287,0,0,1-.476-.849,6.532,6.532,0,0,1,.764.675,15.746,15.746,0,0,0,3.152,2.11c1.672.781,3.374,1.5,5.07,2.232.511.213,1.083.584,1.644.3h0a1.127,1.127,0,0,0,.619-.671,1.142,1.142,0,0,0-.08-.91c-.368-.631-1.168-.692-1.773-.973a48.84,48.84,0,0,1-4.962-2.277,23.06,23.06,0,0,1-1.871-1.36v0a15.9,15.9,0,0,0,1.838-1.06c1.1-.739,2.23-1.416,3.363-2.1a1.155,1.155,0,0,0,.535-1.323,1.2,1.2,0,0,0-1.3-.835,2.156,2.156,0,0,0-.8.368c-1.123.774-2.251,1.548-3.419,2.256a6.281,6.281,0,0,1-4.2.952,7.621,7.621,0,0,1-2.5-1,13.158,13.158,0,0,1-4.282-3.367A10.594,10.594,0,0,1,31,26.7a4.774,4.774,0,0,1-.727,1.768,10.922,10.922,0,0,1-4.291,3.811,8.709,8.709,0,0,1-3.428,1.33,5.385,5.385,0,0,1-1.466-.063,7.949,7.949,0,0,1-2.638-1.165c-1.119-.652-2.157-1.426-3.238-2.132a1.272,1.272,0,0,0-1.374-.15,1.194,1.194,0,0,0-.46,1.679,2,2,0,0,0,.79.633c1.66.922,3.194,2.064,4.908,2.889h0a15.04,15.04,0,0,1-1.949,1.374,61.7,61.7,0,0,1-6.179,2.7,1.269,1.269,0,0,0-.706,1.294,1.089,1.089,0,0,0,1.346.865c.352-.106.68-.27,1.02-.406,2.171-.95,4.39-1.81,6.463-2.966v0a12.9,12.9,0,0,0,2.5-2,1.145,1.145,0,0,1-.232.469,18.582,18.582,0,0,0-2.183,3.836,9.413,9.413,0,0,0,.084,4.5,1.99,1.99,0,0,0,.61,1.36,1.15,1.15,0,0,0,1.63-.359,1.509,1.509,0,0,0,.094-1.259,7.9,7.9,0,0,1-.392-2.713,5.579,5.579,0,0,1,.947-2.479c.481-.8.933-1.611,1.43-2.4v0a10.01,10.01,0,0,1,3.156-2.521q-.007,4.629,0,9.255a18.637,18.637,0,0,1-.3,4.622,11.182,11.182,0,0,1-2.668,4.793,19.7,19.7,0,0,1-8.489,4.964,31.863,31.863,0,0,1-7.382,1.524,8.575,8.575,0,0,1-1.627,0,4.528,4.528,0,0,1-3.724-4.3c-.012-3.1-.014-6.2.122-9.3h0A67.012,67.012,0,0,1,4.735,32.3a43.155,43.155,0,0,1,2.117-5.663,30.1,30.1,0,0,1,9.021-11.344,13.564,13.564,0,0,1,5.077-2.568,4.514,4.514,0,0,1,3.161.539,4.293,4.293,0,0,1,1.974,3.764c0,1.641.014,3.283.009,4.924l0,0a5.782,5.782,0,0,1-1.252,3.508,3.353,3.353,0,0,1-2.19,1.079,2.132,2.132,0,0,1-1.86-1.079,6.274,6.274,0,0,1-.886-2.4c-.124-.8-.007-1.611-.091-2.413a1.169,1.169,0,0,0-2.279.429c0,.7,0,1.4,0,2.1h0a1.572,1.572,0,0,0,.169.729c-1.381-.021-2.76-.014-4.139-.007v0a1.135,1.135,0,0,0-1.081,1.128,1.2,1.2,0,0,0,1.081,1.226c1.311.052,2.631-.066,3.937.075,1.205.274,1.916,1.384,2.917,2.007h0a4.1,4.1,0,0,0,2.833.546,6.123,6.123,0,0,0,3.752-2.319A7.334,7.334,0,0,0,28.3,23.914a14.637,14.637,0,0,0,.239-3.386q0-9.265,0-18.529Z" transform="translate(-6.024 193.014)" fill="#192857"/>
  </g>
</svg>
