<svg xmlns="http://www.w3.org/2000/svg" width="181.131" height="170.28" viewBox="0 0 181.131 170.28">
  <g id="Map" transform="translate(-1726.496 -3047.479)">
    <g id="AU-NT" transform="translate(1798.217 3051.965)">
      <path id="Path_614" data-name="Path 614" d="M175.476,80.063l-.024-41.116V28.394l.25.216-.041.693-.006.109.07.085.073.09.219.267.217-.269.29-.359.078-.1-.019-.122-.121-.8.079.022.5.253.823.919.023.14.057.339.321-.123.244-.094.35-.134-.228-.3-.284-.373-.133-.277-.035-.207.056-.109.02-.04.007-.044,0-.025.4.069.07.012.067-.022.281-.094.061-.02.045-.044.355-.342-.28-.47-.665.209-.248-.159-.185-.242.143-.015.072-.008.06-.042.289-.2.1-.068.019-.116.016-.1.077-.461-.443.149-.428.144-.41-.076-.3-.175-.3-.284.025-.172.232-.443.228-.3,1.02-.641.1-.063.025-.116.24-1.133.01-.045-.006-.046-.019-.156.158-.623.133.077.089.052.1-.018.428-.077.058-.011.049-.033.542-.367.026-.017.021-.022.444-.469.108-.114-.041-.152-.045-.167-.013-.051-.031-.042-.277-.379-.02-.028-.026-.022-.151-.126-.053-.045-.027-.006.028-.541.054.025.086.04.093-.02.167-.037.056-.012.047-.033.285-.2.061-.043.031-.068.115-.249.03-.065-.005-.071-.036-.53.37-.165.271.309.092.1.14-.01.391-.029.059-.549-.223-.065-.061-.233.083-.2.016-.039,0-.042.02-.222.254.081.508.857.522.882V17.844l.193-.246.186-.238-.25-.169-.418-.282.006-.014.016-.008.552.018.219.007.06-.211.04-.143.016-.054-.007-.056-.044-.387-.006-.05-.015-.03.04,0,.377.244.063.041.075,0,.5.024.34.245.056.04.067.01.249.037.03,0,.03,0,1.887-.127.528.167.13.041.113-.077.639-.438.351.007.107.2-.093.2.455.315.24-.244.048-.049.02-.065.033-.106.02-.064-.011-.066-.071-.414.38-.136.369.136.058.022.062-.005.293-.024.01-.559-.1-.012-.171-.127-.017-.072.03-1.178.207-.325.14-.22-.209-.156-.2-.149.131.029.129.028.1-.081.2-.159.036-.028.025-.038.328-.492.2.213.647,1.172.026.049.044.035.163.13.043.034.053.016.3.09.127.038.109-.074.169-.113.136.2.047.068.076.032.627.265.049.021h.053l.3.008h.048l.045-.015.216-.069.025-.008.023-.013.33-.179.006.032.02.11.017.09.067.063.139.13.036.034.047.02.318.134.115.049.113-.053.244-.114.063-.029.042-.055.005-.007.267.2.006.035.061.363.017.1.083.067.086.069.1.077.122-.018.645-.095.157.064.04.016.042,0,.42.037.029,0,.029,0,.367-.045.076-.009.061-.046.257-.2.2-.011.35.486.039.054.06.031.532.275.359.3.067.055.086.008.434.04.129.058.552.25-.165-.578.124-.321.193-.193.066-.028.145.064.071.031.076-.009.656-.077.077-.009-.017.118-.011.075.028.07.086.212.023.057.045.042.208.2.135.127.17-.074.224-.1.111-.049.041-.115.039-.11.092-.075.039.058.15.228.087.132-.035.051-.086.125.057.14.122.3.023.057.045.042.13.122.16.15.184-.119.128-.082.086-.009.06.1.179-.017.306-.029.081-.008.065-.05.236-.183.061-.047L207.7,17l.31-.786.058-.147-.1-.126-.118-.155-.1-.128-.161.02-.191.024.156-.155.672-.449.026.072.277.778.012.035.021.03.314.456.085.125.152,0,.2,0,.087,0,.071-.05.171-.122.136-.1-.011-.09.055.028.241.326-.533.373-.029.02-.023.026-.261.3-.015.017-.012.019-.448.721-.028.045-.01.052-.04.218-.246-.091-.325-.121-.051.343-.044.3-.014.092.044.082.239.442,0,.341-.059.347-.089.133-.065.022.008-.4,0-.12-.085-.085-.069-.069-.111-.111-.152.036-.139.033-.147.034-.052.141-.151.406-.153.133L207,20.247l-.119-.047-.216-.086-.1-.041-.1.04-.46.179-.042.016-.035.028-.293.24-.039.032-.026.044-.159.273-.045.078.009.09.012.126.011.121.1.074,0,0,0,0-.145.121-.081.067-.017.1-.081.509-.011.069.023.066.191.566.035.1.1.053.171.094.1.053.095-.024-.041.14-.259.4-.034.051-.009.06-.115.773-.068.131-.454.306-.038.025-.027.036-.583.754-.012.015-.009.016-.359.619-.036.062,0,.072,0,.185-.361.244-.09,0-.4-.009.131.382.273.79.012.034.02.03.188.281.022.033.03.026.293.249.039.033.048.017.537.193.756.484.394.359.027.025.033.017,1.156.6.028.024.088.463.014.074.049.057.244.285.039.045.053.026,1.069.511.41.34.4.434.079.086.117,0,1.107.046.4.207,1.011.718.025.018.028.012.526.224.057.024.062,0,.195-.006.39.129.314.156.5.789.023.036.033.028.529.45V80.037l-29.652,0-5.9,0Zm33.472-55.051-.811-.2.1-.516.008-.041,0-.041-.028-.283.079-.293.043-.073.473-.09.066-.013.053-.041.087-.067.015.042.054.156.163.029.068.012-.031.069-.273.607-.026.058,0,.063.008.42,0,.124.073.063Zm-25.1-10.629-.261-.217-.033-.027-.039-.016-.775-.319-.723-.568-.3-.782-.173-.641.194.17.161.261.054.089.1.031.583.183.074.023.075-.018.619-.147.072-.017.054-.051.106-.1.3.127.152.065.131-.1.3-.235.009.03.026.038.228.326.387.554.119-.665.02-.114.014-.079-.03-.074-.118-.3.01-.043.089-.07.424.171.4.52.014.131-.971,1.021-.047.007-.06.009-.052.033-.546.35-.009.006-.008.006ZM181.811,14l-.668-.256-.083-.032-.086.022-.463.118.138-.134.087-.085,0-.122-.012-.623V12.84l-.017-.046-.026-.067.234-.407.038-.008.564,1.411.053.132.137.036.248.064.028.025Zm7.1-1.425-.264-.265-.066-.224-.033-.113-.1-.056-.464-.249-.009,0,.091-.11.255-.117.291.286.312.739.038.088Zm1.859-.133-.016-.01-.184-.114-.045-.028-.053-.01-.334-.061-.048-.009-.049.008-.317.053.006-.012.058-.106-.037-.115-.16-.5.1.033.107-.057.118-.063.5.422.024.1.014.061.039.049Z" transform="translate(-175.171 -10.625)" fill="#192857" stroke="#192857" stroke-width="1"/>
      <path id="Path_615" data-name="Path 615" d="M185.388,11.575l-.1.537.28-.294-.184-.242m-1.154.294-.325.251-.431-.185-.081.076-.915.217-.6-.188.148.39.631.5.818.337.157.13.412-.309.666-.428.063-.009-.544-.777m7.988.34-.167.25-.178.139.152.113-.445.7-.025,1.013.012.009.023,0v.014l.1.072-.1.136-.016.9-.417.035-.39-.144-.062.022.053.314-.112.365-.336.342-.7-.483-.048.025-.048-.091-.116-.08,0-.009h-.031l-.79.542-.739-.234-1.893.127-.443-.065-.384-.276-.564-.028-.034-.022v0l-.192.671-.071,0,.144.1-.506.644v2l-1.331-2.247-.012.113.029.108-.042.011-.085.8-.67.049-.319-.363h0l.033.477-.236.514-.5.357-.308.068,0,.073.175.146.38.519.153.572-.7.741-.691.467-.736.133-.056.22.023.2-.309,1.456-1.177.74-.183.243-.191.365.164.156.233.134.292.054L179.074,25l-.209,1.252-.328.231.422-.133.559.94-.446.431-.536.179-.276-.048,0,.016.1.215.722.946-1.587.608-.122-.737-.734-.819-.048-.024.079.522-.878,1.089-.285-.348v9l.024,40.833,3.4-.025,5.9,0,29.371,0V35.3l-.5-.422-.5-.795-.226-.112-.324-.107-.269.009-.7-.3-1.045-.742-.323-.169-1.277-.053-.543-.592-.369-.306-1.144-.547-.419-.489-.093-.487-1.126-.584-.43-.392-.71-.454-.6-.217-.431-.365-.271-.407-.56-1.622.807.018.166-.112,0-.184.449-.776.661-.855.47-.317.013-.026.126-.848.2-.31-.289-.158-.306-.905.137-.854.108-.091-.042-.431.3-.517.441-.361.749-.292.373.148.213-.576.672-.158-.127-.236.174-1.172.585.218.524-.843.243-.28-.4.008-.491-.714-.426,1.083-.487.378-.827.077-.021-.037-.315.2-.54-.506-.268-.66-.587.256-.568-.534-.153-.379-.572.068-.135-.06-.054.054-.069.178.305,1.07-1.19-.538-.56-.052-.47-.39-.624-.323-.324-.45-.281.214-.576.07L198.8,15.2l-.165-.068-.812.119-.442-.358-.084-.5-.011-.008-.46.215-.64-.271-.3-.286-.068.037-.357.115-.5-.014-.876-.37-.072-.1-.158.106-.66-.2-.335-.268-.633-1.145m16.416,10.9-.318.061-.039.143.031.315-.067.335.248.062-.008-.4.208-.462-.038-.007-.017-.049m.7-13.123-.216.831-.721,1.011-.1.09-.159.016.016-.208.6-.868.379-.766Zm-18.556,0,.212.7-.008.44-.126.306-.13-.139-.155-.428-.13-.746Zm-2.628.473.469.46.334.79.171.016.134-.244-.191-.595-.2-.367.155-.037.419.143.285-.151.721.6.045.2.7.9.24.053.2-.159.452-.676.191.016.346.371.664,1.2.163.13.3.09.249-.167h.22l.224.326.628.265.3.008.216-.069.428-.232.163-.22.481.082.049.139-.305.175-.07.106.021.11.138.13.318.134.245-.114.13-.171.1-.016.6.456-.053.086.061.363.085.069.721-.106.228.094.419.037.367-.045.326-.249.436-.024.44.611.559.289.383.318.481.045.171.077-.025-.086.18-.465.273-.273.228-.1.257.114.656-.077.338-.273-.1-.057-.253.151-.045-.11.094-.338.407-.11.3.008.563-.448-.016-.314.163,0,.151.175-.135.216-.754.64.187.22-.509.522-.02.143.085.212.208.2.224-.1.065-.183.363-.3.615-.179-.375.473.15.228.326-.151.077.134-.355.513.122.3.13.122.184-.118.334-.037.061.106.305-.029.236-.183.31-.786-.118-.155-.419.053-.269-.114-.021-.11.46-.456.75-.5.493-.09-.1.338.277.778.314.456.2,0,.171-.122-.012-.1-.289-.106.024-.086.359-.09.448.228.453.611-.77.538-.261.3-.448.721-.1.546-.558-.208-.045.3.273.505,0,.436-.074.428-.309.465L207.9,19.9l-.358.122.016-.8-.07-.069-.138.033-.175.473-.379.33-.18.012-.061-.175-.216-.086-.46.179-.294.24-.159.273.012.126.18.139-.118.265-.2.163-.081.509.191.566.171.094.245-.061.191-.216-.025.338-.138.473-.281.432-.122.819-.122.236-.514.346-.583.754-.358.619-.008.33-.554.375-.179,0,.273.79.188.281.294.249.566.2.8.513.412.375,1.186.615.126.11.106.558.245.285,1.1.526.453.375.411.448,1.17.049.469.244,1.026.729.526.224.244-.008.456.151.4.2.538.856.628.534V79.683l-29.932,0-5.9,0-3.956.029-.025-41.4V27.357l.4.13.424.367-.049.831.073.09.289-.359-.167-1.1.049-.1.456.126.57.289.912,1.019.037.22.244-.094-.3-.4-.163-.338-.057-.338.1-.192.049-.306.68.118.281-.094.354-.342-.791.249-.4-.257-.318-.416-.073-.212.163-.082.35-.037.289-.2.016-.1-.5.167-.529-.1-.375-.216-.428-.407.053-.363.265-.505.273-.363,1.063-.668.24-1.133-.024-.208.208-.819.314-.326.04.285.155.09.428-.077.542-.367.444-.469-.045-.167-.277-.379-.151-.126-.15-.033-.036-.1.04-.8.074-.2.183-.081.061.114.13.061.167-.037.285-.2.114-.249-.04-.6.044-.151.684-.306.408.464.391-.029-.375-.11-.126-.477.118-.289.033-.359-.135-.1.216-.09.627.2.563.949v-.147l.253-.322-.611-.412.139-.322.171-.086.623.02.041-.143-.045-.387-.122-.24.114-.167.4.02.44.285.578.029.408.293.249.037,1.939-.13.579.183.713-.489.607.012.249.473-.151.326.24-.244.033-.106-.089-.526.085-.159.591-.212.464.171.294-.024-.171-.02-.314-.232-.049-.208.033-1.292.249-.391-.668-.5-.224-.318-.184-.114-.334-.061-.632.106-.546.293-.085-.008-.428-.428-.086-.293-.464-.249-.415.037-.029-.049.485-.579Zm-7.033.159.615.538.183.3.583.183.619-.147.24-.224.464.2.518-.4.135-.012.089.306.229.326.02-.114-.151-.379.053-.224.293-.232.648.261.489.644.036.338-1.129,1.186-.143.02-.546.35-.75.562-.432-.359-.811-.334-.815-.64-.33-.868-.236-.876.033-.33Zm-.22.729.652,1.63.314.081.33.3-.1.224-.538.065-.733-.281-1.022.261-.245-.049-.069-.11-.033-.118.244-.444.2.122.167.008.163-.159-.012-.623-.073-.192.362-.632Zm27.15.632-.041.224-.444.338-.839.44v-.208l.4-.322.334-.016Zm-24.432,2.119Zm25.308,7.75.192.012-.033.208-.171.118.163.473.42.073.147-.155-.045-.155.081-.11.147-.041.13.094.033.167-.436.448-.232.151-.273.607.008.42.126.11.591.09.163-.151.069-.114.191-.012-.114.57-.232.09-.611-.163-.526.077-1.125-.281.154-.778-.033-.334.1-.379.126-.216.6-.114.143-.11-.126-.285Zm-2.123.024.188.033.2.265-.061.289-.146.236-.171.065.012-.163-.143-.249-.114.077.069.216h-.188l-.069-.086.041-.379Zm1.663,8.394.126.057-.077.5-.277.053-.114-.057.09-.383Zm1.919.367.2.249.167.542-.114.289-.057,0-.253-.187-.277-.412.081-.236Z" transform="translate(-174.952 -9.99)" fill="#192857" stroke="#192857" stroke-width="1"/>
    </g>
    <g id="AU-WA" transform="translate(1727 3064.119)">
      <path id="Path_616" data-name="Path 616" d="M22.494,143.905l-.005,0-.03-.024-.035-.015-.888-.375-.052-.022h-.056l-1.691-.008h-.111l-.081.076-.141.131-.572-.185-.064-.021-.066.011-.481.076-.526-.15-1.039-.693-.043-.029-.05-.012-.936-.216-.209-.492-.017-.04-.029-.033-.44-.509-.006-.007-.006-.006-.733-.75-.021-.021-.024-.016-.672-.448-.012-.008-.013-.007-.8-.42-.046-.024-.052-.006-.322-.037-.049-.006-.048.012-.322.077-.1.023-.06.079,0,0-.2-.211,0-.348v-.021l0-.021-.23-1.629-.015-.871.082-.381.055.083.046.069.077.033.526.224.065.028.07-.006.42-.037.037,0,.035-.012.359-.13.024-.009.022-.012.147-.086.054-.031.035-.051,1.251-1.8.062-.089-.014-.107-.191-1.483v-.01l0-.01-.133-.658.154-.107.082-.057.124-.086,0-.152-.007-.244.193-.71.014-.049-.005-.052-.127-1.277.1-.638.006-.043-.007-.042-.074-.477.024-1.022v-.029l-.005-.028-.167-.917,0-.024-.008-.022-.106-.289-.007-.02-.01-.019-1.068-1.946-.3-.889,0-.011,0-.011-.257-.6-.006-.015-.008-.014-.621-1.082-.494-1.264.013-.053.012-.051-.007-.051-.139-1.035,0-.021-.006-.02-.293-1.011-.023-.08-.054-.047.019-1.824.155-.9.011-.063-.018-.062-.22-.77-.011-.038-.021-.033-.083-.134-.061-.415-.005-.035-.014-.033-.232-.55-.017-.039L10.6,112.8l-.919-1.091-.093-.282-.031-.783,0-.06-.027-.053-.359-.725-.008-.016-.01-.015-.864-1.292-.034-.051-.053-.033-.284-.173-.277-.4L7.4,106.739l.044-.285.133-.314.032-.075-.013-.08-.086-.517,0-.016,0-.015-.216-.754-.007-.023-.01-.021-.6-1.251,0-.005,0-.005-.611-1.145-.008-.014L6.03,102.2l-.736-1.063.2.042.03-.307.074-.051.066.016.19.045.109-.162.318-.473.045-.067,0-.081.019-.654.425.569.172.231.226-.179.554-.436.07-.055.025-.085.118-.4.039-.13L7.9,98.857l-.1-.149-.059-.24.049-.306L8,97.732l.077-.15.031-.06v-.067l0-.6v-.113l-.078-.082-.964-1.02-.5-.939L6.1,93.5l-.035-.088-.081-.049L5.6,93.13l-.358-1.016-.026-.153.045-.4.011-.094-.049-.081-.273-.453-.012-.02-.015-.018L4.4,90.283l-.128-.373-.022-.859.159-.413.01-.027,0-.029.095-.576.366-1.182.267-.535.578-.454.074-.058.024-.09.11-.412.005-.02,0-.021.061-.55,0-.037-.006-.036-.088-.569.236-.719.019-.057-.006-.06-.049-.464,0-.034L6.1,82.677l-.24-.664-.013-.035-.022-.031L5.5,81.485l-.039-.234.6-1.207.008-.015.006-.017.579-1.665.32-.476-.215,1.243-.015.088.038.08.248.525L6.9,80.6l-.022.139.1.1.192.2.134.136.176-.074.966-.408.131-.055.033-.138.118-.491.254-.651L9.7,78.108l.017-.029.009-.033.082-.28,1.137-.632.424-.032.055,0,.049-.025.84-.418.9-.345.067-.026.046-.055.722-.853.217-.168.526-.226.077-.033.046-.07.482-.725.968-.451.1-.048.04-.107.077-.2.143-.079.215-.026.031,0,.029-.01.733-.261.028-.01.025-.016.579-.359.018-.011.016-.013.343-.29.143.031.133.133.053.053.072.02.2.053.108.029.1-.053.735-.394.249.086.094.107.04.046.056.025.31.139.031.014.033.006.33.061.027.005h.028l.281,0h.026l.026-.005,1.235-.253.029-.006.027-.012.729-.318.046-.02.036-.035.947-.911.2-.12h0l.167,0,.187,0h.026l.026,0,1.342-.223.466.027.054,0,.051-.017.636-.212L28.1,70.5l.051-.061.66-.791.031-.037.017-.046.1-.278.315-.24.353-.033,1.02.253.635.246.118.046.112-.058.859-.443,1.962-.287.024,0,.023-.008.432-.143.01,0,.01,0,2.4-1,.011,0,.01-.005.66-.342.027-.014.023-.02,1.1-.921.026-.022.02-.027.937-1.267.017-.023.012-.026.656-1.412.594-.8.069-.093-.016-.114-.042-.294.082-.18.118.028.1.025.094-.051.22-.118.023-.012.02-.016.326-.261.033-.026.024-.035.195-.285.207-.1.027-.013.023-.018.925-.729.058-.045.028-.068L43.977,60,44,59.932,44,59.862l-.024-.253-.01-.105-.077-.072-.13-.122-.05-.047-.066-.019-.251-.07-.1-.148-.045-.8,0-.044-.016-.041-.241-.626L43,56.707l.121-.48.322-.554.493-.467.211-.134.482,0,.43,0-.175-.392-.14-.314h.22L45,54.344l.5-.171.13-.045.045-.13.045-.13.046-.133-.079-.116-.044-.064L45.7,53.3l.018-.021.141-.03.089-.019.056-.062.076.1.281.383.032.043.045.029.243.152.062.242.008.033.016.03.848,1.585,0,.008.005.008,1.065,1.7.087.337.547-.015.081-.4.019-.1-.045-.088L49.266,57l.011-.25.232-.7.029-.087-.029-.088-.171-.523.413.5.013.016.015.014.326.293.034.03.042.018.159.069.127.055.121-.067.11-.061.476-.265-.492-.234-.113-.054-.125-.155-.108-.433.323-.37.233-.267-.314-.166-.147-.077-.1-.054-.11.033-.147.044-.142-.3-.018-.039-.029-.032L49.48,53.4l.014-.29.077-.116.3-.456.034-.051.009-.061.032-.208.065.069.06.063.085.018.232.049.323.068.015-.33,0-.094.168-.228.333.048.18.081.028.018.126.3.031.075.067.047.122.086.066.046.08,0,.456.024.136.007.09-.1.087-.1.211.1.045.022.05,0,.456.045.033,0,.033,0,.585-.083.4.176.11.049.111-.047.253-.106-.082-.538-.294-.028-.477-.224-.026-.012-.028-.007-.363-.086-.022-.005-.023,0-.232-.016-.05,0-.048.014-.324.095h-.067l-.059-.265.078-.177.025.038.158.24.236-.163.33-.228.133-.092-.012-.161-.029-.371.1-.358.445-.449.3-.3-.389-.159-.249-.1-.09-.037-.094.027-.24.069-.108.031-.057.1-.26.442-.189-.163-.1-.713.271-.62.229.132.133.076.136-.071.33-.171.063-.033.04-.059.077-.114.053-.079-.005-.095-.03-.533.64.327.329.317.032.031.04.02.831.4.309-.463-.351-.311.134-.245.1-.181-.142-.149-.094-.1-.082-.085h-.232l.116-.2.069.043.077.049.335.212.086-.377.127.062.175.086.065.032.072,0,.412-.02.1-.005.076-.072.09-.086.226-.216-.239-.2-.027-.022.084-.081-.275-.2-.481-.342-.016-.012.12-.041-.2-.3-.365-.541.344-.492.251-.209.075.032.049.021h.053l.865.02-.007.03L57.708,45.1l.715-.751.082-.086.047-.05.019-.066.178-.615.048.025-.048.286-.016.095.045.085.085.159.035.066.063.039.261.163.2.125.158-.176.37-.412.182-.128.1-.068.019-.116.12-.737.29-.59.029.008.184.187.247.252.19-.3.114-.179.072-.113-.043-.127-.047-.138.1-.239.088.113.5.648.057.073.088.025.143.041.164.047.117-.123.456-.481.025-.026.017-.032.378-.689.053-.1-.025-.106-.135-.563.253-.1.278-.065.14.113.129.166-.007.017-.072.158.109.135.313.387.248.3.208-.332.11-.175.016-.026.1,0,.674.217.369.523.03.042.043.029.565.379,1.295,1.8.139.192.213-.1.025-.012.535.459.042.232-.145.21-.025.037L69,45.153l-.314,1.059-.015.052.005.054.043.463-.026.789-.2.41-.418.835.809-.467.212-.122.053-.03.035-.05.122-.171.039-.054.01-.066.088-.57.1.094.109.364.549-.068.021-.44,0-.082-.04-.071L69.9,46.6l-.1-.405.12-.165.013.067.044.218.223.006.419.012.234.007.049-.228.044-.208.022-.1-.051-.092-.156-.284-.07-.3.327-.093,1.768.442V56.21L72.815,97.6l-.053,28.428-.748.326-.015.006-.015.008-1.043.608-1.623.737-.723.289-1.189.231-.024,0-.023.009-1.755.679-.884.155-1.9.088-1.225-.118-.949-.274-.1-.03-.1.048-.4.2-.332-.073-.1-.022-.092.051-.734.4-.023.013-.021.017-1.258,1.035-.252.111-.6.129-.041.009-.036.02-1.357.75-.028.015-.024.021-.494.443-.518.313-1.466.24-.03.005-.028.011-.534.212-.041.016-.034.028-.407.334-.024.02-.019.024-.371.473-.029.037-.015.045-.46,1.336,0,.013,0,.013-.183.773-.337.236-.023.016-.019.02-.4.419-.029.031-.019.038-.151.3-.028.055,0,.062v.039l-.1.115-.555.378-.664-.05-.064,0-.06.023-.114.045-.075.03-.048.065-.241.326-.134.1-.012,0-.2-.464-.044-.1-.1-.044-.367-.155-.1-.042-.1.035-.7.239-.443-.063-.026,0H45.3l-.6.025-.11,0-.078.077-.011.011-.49.051-.309-.061-.081-.016-.077.03-.249.1-.064.025-.045.052-.159.184-.05.058-.014.076-.011.062-.147.015-.008-.03-.13-.46-.015-.052-.034-.043-.257-.33-.05-.064-.076-.028-.09-.033-.071-.026-.074.013-.342.061-.083.015-.061.058-.194.185-.205.058-1.056-.381-.036-.013-.038,0-.273-.02h-.015l-.554-.012h-.027l-.027,0-1.235.216h-.881l-.062.033-.27.144-1.063.148-.051.007-.046.025-.449.248-.618-.156-.027-.007-.028,0-1.1-.057-.05,0-.048.015-.848.261-.073.023-.052.057-.293.322-.5.267-.045.024-.034.038-.232.265-.019.021-.014.025-.367.644-.023.041-.009.046-.045.239-.54.529-.375.222-.451-.16-.033-.012-.035,0-.742-.069-.1-.01-.083.057L27.49,141l-.045.031-.03.046-.09.134-.121.182.121.134-.244.149-.681.222-.066.021-.048.05-.261.269-.04.042-.021.054-.106.278-.386.289-.827.442-1.036.188-.2.036-.018.121-.125-.047-.055-.021-.059,0-.277.016-.08,0-.065.046-.139.1-.082.058ZM4.4,100.1l-.481-.512.1-.573.031-.176.237.293.062.182ZM5,97.879l-.05-.052-.239-.985L4.7,96.8l-.023-.038-.391-.632.047-.244.028-.044.268.483.024.044L4.7,96.4l.412.355.113.319-.078.426-.068.075L5,97.658l0,.113Z" transform="translate(-1.859 -40.058)" fill="#192857" stroke="#192857" stroke-width="1"/>
      <path id="Path_617" data-name="Path 617" d="M20.823,143.322l.27-.19.46-.027,0-.017,1.389-.252.769-.411.3-.227.118-.31.438-.452.695-.226-.026-.029.393-.59,1.02-.692,1.012.094.393.139.233-.138.453-.444.046-.245.442-.775.337-.385.546-.292.364-.4,1.089-.335,1.25.065.564.143.443-.245,1.117-.156.35-.186h.927l1.265-.221.638.015.35.026,1.043.376.052-.015.266-.253.657-.117.384.139.423.545.037.13.121-.14.53-.209.429.085.349-.036.1-.1.874-.035.427.062L45,136.71l.773.326.118.279.166-.224.384-.151.694.052.447-.3.012-.012,0-.06.244-.488.5-.521.295-.207.165-.7.5-1.452.467-.6.523-.428.672-.267,1.473-.241.449-.271.522-.468,1.485-.821.652-.14.19-.084L57,128.893l.964-.525.441.1.508-.25,1.133.327,1.18.113,1.86-.086.839-.147,1.776-.687,1.211-.236.692-.277,1.6-.729,1.059-.617.61-.266.052-28.243L70.9,55.972V45.454l-1.481-.37v0l.239.433-.188.87-.852-.025.277.482-.028.6-.829.1-.037.24-.271.379L65.8,49.287l1.013-2.026.024-.71L66.784,46l.37-1.25.13-.188,0-.019-.319-.274-.285.14-1.542-2.145-.609-.409-.375-.53-.458-.147-.446.711-1.026-1.266.081-.179-.006-.007-.008-.006-.131.032.129.539-.518.942-.741.78-.647-.185-.288-.372L59.56,43l-.424-.431-.1.212-.15.928-.349.246-.664.74-.769-.481L55.878,45.5l.489.349-.1.1.268.226-.694.662-.765.038-.114-.056-.025.111.042.043-.089.162-.023.1-.024-.015-.088.16.183.162-.618.925-.912-.443-.363-.35-.167-.085.013.234-.264.389-.729.378-.223-.128-.114.26.032.227.1-.168.643-.185,1.207.494-.985.993-.066.24.05.644-.257.178.314.074.486.228.245.023.164,1.077-.475.2-.547-.241-.572.081-.623-.061-.108-.053-.126.144-.889-.048-.387-.271-.149-.354-.068-.03-.127-.018-.018.024-.03.669-.845-.178-.364.55,0,.1.384.416.076.161.135-.041.978.516-.693.794.058.231.046.057,1.04.5-1.305.725-.5-.217-.24-.216-.19.578-.006.136.172.336-.12.6-1.094.029-.076-.3-1.061-1.7-.88-1.645-.051-.2-.239-.15-.135-.184-.215.627-.7.241.336.752-1.261.009-.12.076-.444.421-.282.485-.1.409-.01.726.254.658.045.8.282.079.385.361.058.6-.244.591-1.087.857-.194.1-.2.294-.432.345-.454.244-.035-.008.045.32-.714.962L38.7,64.874,37.69,66.241l-1.2,1-.735.381-2.437,1.016-.5.165-1.964.287-1.042.537-.854-.331L28,69.061l-.226.021-.186.142-.107.292-.825.988-.889.3-.542-.031L23.86,71l-.329-.007-.1.061-1,.958-.876.382-1.344.275-.39.006-.451-.083-.483-.216-.125-.143-.063-.022-.824.442-.555-.15-.138-.138-.238.2-.665.412-.849.3-.223.027,0,0-.122.322-1.1.515-.531.8-.646.278-.166.129-.8.941-1.022.392-.926.46-.472.036-.982.545-.068.234L7.63,79.241l-.24.613-.18.748-1.579.666-.656-.67.155-.988-.179-.378-.232.667-.571,1.156.014.082.332.471.289.8.069.652-.252.769.089.576-.074.666-.169.633-.676.531-.229.458-.354,1.142-.1.614-.16.414.019.759.1.281.518.606.4.655-.061.551.015.091.317.9.459.279.538,1.364.475.892,1.093,1.156-.007.958-.339.66-.033.206.033.134.23.328-.247.827-1.147.9L5,100.024v.01l-.626.931-.2-.048-.016.168.517.746.637,1.194.624,1.294.238.831.117.71-.183.432-.03.2.218.982.211.3.339.207.953,1.425.428.865.034.864.064.193.938,1.115.293.694.063.428.094.151.277.969-.173,1.007L9.8,117.363l.018.016.351,1.211.158,1.179-.016.069L10.763,121l.627,1.092.279.646.3.888,1.076,1.961.137.374.186,1.021-.025,1.055.083.537-.1.687.134,1.345-.209.769.014.5-.332.232.1.5.222,1.718L11.8,136.408l-.3.173-.475.173-.633.055-.522-.222.013.731.233,1.654,0,.223.428-.1.524.06.922.482.746.5.8.818.5.576.187.441.9.207,1.088.725.424.121.552-.087.542.175.183-.171,2.025.01.889.375M55.692,45.369l.3-1.276-.625-.014-.016-.007-.091.076-.212.3.6.885.047.033M21.045,144.151l-.338-.269-.888-.375-1.691-.008-.232.216-.1,0-.656-.212-.542.085-.628-.179-1.076-.717-1.076-.249-.265-.623-.44-.509-.733-.75-.672-.448-.8-.419-.322-.037-.322.077-.2.265-.5-.534,0-.46-.232-1.646-.016-.921.191-.888.187.053.273.407.526.224.42-.036.359-.13.147-.085,1.251-1.8-.192-1.483-.33-1.629.1-.355.338-.419-.016.167-.253.281-.008.212.179.509.122.183.081-.057-.008-.285.2-.75-.13-1.312.1-.673-.077-.5.024-1.047-.167-.917-.106-.289-1.08-1.969-.306-.912-.257-.6-.632-1.1-.534-1.365.033-.139-.139-1.035-.293-1.011-.09-.078.02-1.976.159-.925-.22-.77-.114-.184-.069-.472-.232-.55-.953-1.133-.122-.371-.033-.823-.359-.725L6.446,108.4l-.334-.2-.342-.489L5.5,106.51l.057-.371.147-.346-.086-.518-.216-.754-.6-1.251-.611-1.145-.945-1.365L1.9,99.326,1.65,98.54l.2-.408-.029-.452.016-.118.086-.061L2,98.454l.134.277.139-.783.656.811.09.264.053.835.1.3.326.415.139.029.012-.126.285-.2.187.045.318-.473.024-.839-.318-.424-.607-.4-.448-.464-.257-1.06-.448-.725.077-.4.269-.428.126.094.412.741.469.4.163.46L3.8,97.39l-.122.135.012.415.13.379.224.02.151-.163.354-.684.232,1.149.122.314.489.656.554-.436.118-.4-.134-.191-.086-.346.151-.949.155.074.077-.151,0-.6-.99-1.047-.526-.987-.481-1.218-.469-.285-.4-1.133-.037-.216.049-.44L3.1,90.838l-.558-.652-.159-.464-.024-.957.179-.465.1-.595.379-1.222.306-.611.627-.493.11-.412.061-.55-.1-.636L4.282,83l-.049-.464-.24-.664-.363-.513-.065-.387L4.2,79.682l.591-1.7.428-.636L5.48,77.2l.326-.057.057.114-.22.415-.216,1.251.285.6-.139.88.192.2.966-.408.122-.509L7.122,79l.729-1.267.114-.391,1.292-.717.485-.036.852-.424.913-.35.742-.876.269-.208.558-.24L13.6,73.7l1.039-.485.114-.3.281-.155.269-.033.733-.261.579-.359.448-.379.359.077.192.191.2.053.843-.452.436.151.143.163.31.139.33.061.281,0,1.235-.253.729-.318.97-.933.485-.289.061.118.187,0,1.373-.228.5.029.636-.212.66-.79.13-.355.444-.338.481-.045,1.084.269.652.253.9-.464,2.009-.293.432-.143,2.4-1,.66-.342,1.1-.921.937-1.267.668-1.438.611-.823-.053-.375.159-.35.106-.1.289.069.22-.118.326-.261.236-.346.273-.134.925-.729.134-.326-.024-.253-.13-.122-.35-.1-.2-.3-.049-.872-.261-.676.012-.9.139-.55.363-.623.542-.513.3-.192.562,0-.224-.5.187-.253.122-.049.1.094H43.3l.5-.171.045-.13-.114-.167.106-.444.126-.143.232-.049.232-.257.024-.253.094-.151.314-.114.3.3-.094.118-.22-.024-.147.509.281.383.338.212.09.35.848,1.585,1.088,1.74.1.379.081-.4-.151-.293.016-.363.244-.742-.2-.611.081-.35.281-.008.562.68.326.293.159.069.11-.061-.171-.082-.2-.253-.159-.636.42-.481L48.7,54.2l-.338.1-.069-.049-.216-.46-.485-.526.024-.5-.5.008-.338-.306.3-.012.652.147.3-.456.037-.236-.045-.179-.493-.1-.159-.143-.012-.4.061-.13.689-.151.354.277-.1.216-.228.061.473.5.232.049.008-.179.318-.432.538.077.236.106.118.077.159.379.122.086.456.024.228-.261.4.2.456.045.664-.094.473.208.253-.106L52.933,52l-.522-.244-.363-.086-.232-.016-.363.106h-.273l-.077-.082-.11-.493.24-.546.179-.041.212.322.33-.228-.033-.42.13-.477.5-.5-.249-.1-.24.069-.359.611-.208,0-.387-.334-.126-.9.379-.868.139-.061.412.236.33-.171.077-.114-.049-.876.187-.045.917.469.359.346.831.4-.464-.412-.024-.1.212-.387-.094-.1-.379,0-.44.163-.049-.261.163-.228.171-.082.126.082.175-.3-.139-.037-.579.383-.122,0-.13-.346.143-.183.192-.09.261.077.094-.029.232-.163-.065-.155.265-.187.306.689.077.049.045-.2-.057-.391.522.306.012.163.175.086.412-.02.09-.086-.077-.065-.134.012-.118-.106.13-.126-.481-.342-.436-.216.147-.171.118-.041-.473-.7.477-.68.412-.342.232.1.888.02.045-.554-.085-.534.057-.306.115-.086.488.232-.383,1.622.081-.086.273-.941.533.273-.081.489.086.159.261.163.391-.436.208-.147.126-.778.338-.689.016-.285-.289-.742-.281-.179.22-.049.354.053.306.155-.037.342-.228.1.15.5.188.053.236.24.114-.179-.081-.24.175-.407.432-.342.314-.045-.208.509.5.648.143.041.456-.481.378-.689-.191-.8.5-.2.432-.1.273.22.253.326-.077.171.314.387.11-.175,0-.147.387-.016.811.261.423.6.608.407,1.324,1.842.191-.094.75.644.082.444-.212.306-.314,1.059.045.481-.029.868-.232.465.212-.122.122-.171.155-1,.22.09.334.33.13.432.02-.44-.3-.517-.143-.57L68.4,45.2l.09.016.118.583.42.012.045-.208-.175-.318-.139-.6.656-.187,2.054.513V55.972l.024,41.394-.053,28.612-.917.4-1.055.615-1.642.746-.754.3-1.214.236-1.78.688-.929.163-1.935.09-1.271-.122-.974-.281-.489.24-.428-.094-.734.4-1.287,1.06-.314.138-.627.135-1.357.75-.513.46-.587.355-1.52.248-.534.212-.407.334-.371.472-.46,1.337-.208.876-.424.3-.4.419-.151.3,0,.143-.2.216-.664.452-.762-.057-.114.044-.265.359-.2.155-.3.1-.3-.7-.367-.155-.766.261L43.7,137.5l-.6.024-.082.082-.632.065-.35-.07-.249.1-.159.184-.049.269-.587.061-.171-.057.094-.2-.13-.46-.257-.33-.09-.033-.342.061-.244.232-.359.1-1.141-.412-.273-.021-.554-.012-1.259.22h-.835l-.314.167-1.112.155-.546.3-.725-.184-1.1-.057-.848.261-.326.359-.542.289-.232.265-.367.643-.061.326-.628.615-.517.305-.575-.2-.742-.069-.762.517-.09.135.155.171-.155.175-.359.22-.713.232-.261.269-.134.354-.469.35-.884.473-1.08.2-.016.11.106.114.611.134-.273.155-.334-.061-.33-.26-.253-.094-.277.016-.139.1ZM1.572,98.071l-.13-.106-.656-.994-.33-.664-.2-.766.029-.428.175-.253.22.053-.09.216.016.134.522,1.491.448.815.09.322ZM11.14,72.809l-.151-.126-.11.106-.033-.037,0-.249.452-.611.147-.09.053.029.061.322-.02.143-.257.4Zm40.49-25.165-.037-.126-.236-.22.037-.2.11-.175.289-.118.383.64Zm2.726-3.626-.232-.126.029-.346.1-.261.208-.216.2.228-.1.5-.159.077Z" transform="translate(-0.252 -39.82)" fill="#192857" stroke="#192857" stroke-width="1"/>
    </g>
    <path id="AU-ACT" d="M390.761,300.307l-.513-.26-.587-.876-.118-.322.008-.75.212-1.043,1.16-.856.518.293.232.273.408.151.273.175-.2.179-.412-.056-.33.159-.212.294-.253,1.015.1,1.123-.033.159Z" transform="translate(1496.102 2872.385)" fill="#192857" stroke="#192857" stroke-width="1"/>
    <g id="AU-NSW" transform="translate(1851.279 3132.28)">
      <path id="Path_618" data-name="Path 618" d="M344.731,256.029l-7.307-3.682-.049-.024h-.011l.136-.235.029-.051.007-.058.045-.4.009-.081-.036-.074-.408-.831-.013-.027-.018-.023-.234-.3-.219-1.724-.016-.131-.112-.071-.481-.305-.019-.012-.021-.009-.742-.318-.105-.046-.107.042-.3.118-.545-.1-.049-.009-.049.008-.412.069-.106.018-.067.084-.337.42-.281.026-.035,0-.033.011-.687.242-.5-.035-.906-.284-.355-.278-.058-.045-.073-.011-.456-.07-.04-.006-.039.006-.277.036-.1.013-.068.072-.115.121-.346.149-.833-.074-1.22-.232-.234-.1-.484-.465-.01-.01-.011-.009-.322-.253-.063-.049-.08-.008-.11-.012-.046-.005-.045.01-.334.073-.039.008-.035.02-.312.17-.217-.02-.085-.069-.077-.062h-.677l-.034.009-.554.143-.088.022-.058.07-.081.1-.039.047-.016.058-.154.563-.015.054.007.055.039.314-.476.134-.061-.016-.472-.275-.871-1.02-.211-.483-.02-.045-.035-.036-.1-.106-.049-.051-.067-.022-.2-.063-.381-.339-.325-.448-.038-.053-.057-.03-.738-.393-.663-.5-.034-.026-.04-.015-.313-.114-.077-.028-.08.018-.057.013-.1-.072.055-.166.042-.128-.072-.113-.171-.264-.06-.093-.108-.027-.316-.079-.22-.136-.154-.338-.1-.585.1-.482.005-.026v-.026l0-.338v-.087l-.048-.072-.057-.086-.039-.057-.061-.033-.941-.514-.054-.029-.062,0-.615-.042-.372-.151-.016-.038-.033-.079-.071-.047-.277-.184-.115-.076-.13.044-.253.085-.087.029-.053.075-.077.11-.032.045-.012.054-.129.569-.054.069-.111-.022-.007-.008.006-.05-.024-.063-.236-.632-.023-.062-.049-.045-.3-.274-.017-.648,0-.073-.038-.063-.615-1.035-.031-.053-.051-.035-.355-.245-.02-.014-.023-.01-.509-.232-.084-.038-.09.018-.628.13-.593-.154-.087-.023-.085.033-.391.151-.077.03-.049.067-.19.262L307.4,238l-.014-.008-.014-.007-.725-.339-.047-.021-.051,0-.735-.055-.038-.01-.071-.07.02-25.559.247,0,8.881,0h25.825l.059-.029.338-.167.056-.027.039-.049.5-.627,1.346-1.144.294-.081.044.093.121.035.387.114.05.015.053,0,1.36-.118.04,0,.037-.014.6-.232.51-.063.278.289.02.021.024.016.305.208.068.046.082,0,.738.02h.032l.032-.007.578-.12,1,.454,1.01.871.045.649,0,.05.021.045.179.4.043.1.1.044.1.045.089.041.095-.024.216-.053.08-.02.057-.06.212-.224.03-.031.019-.038.354-.723.427-.19.042.08.043.083.085.04.273.131.122.058.121-.058.848-.408.13-.062.025-.143.143-.819.015-.084-.034-.078-.312-.706.234-.185.453-.223.861-.283.038-.012.033-.023.18-.122.071-.048.031-.081.064-.162.09-.076.211.217.059.06.082.018.725.159.044.01.045,0,.8-.084.706.048.151.01.092-.121.273-.361.483-.09.026,0,.024-.01.485-.187.042-.016.034-.029.143-.116.069.063.036.193-.137,1.044-.005.038.006.038.081.571.01.07.042.057.142.193-.067.824-.647.847-.028.036-.015.043-.489,1.434-.031.092.031.091.1.286-.478,2.724-.21.8-.819,2.3-.014.04,0,.043-.057,1.365,0,.044.012.043.069.249.05.179.149.02.013.053-.43,1.442-.006.02,0,.02-.083.578-.451,1.494-.368.751-.878,1.109-.026.034-.015.04-.2.529-.029.075.015.079.124.652-.042.575-.68.576-.017.014-.015.017-.3.35-.644.4-.108.067-.02.125-.037.225-.014.085.016.034-.555.195-.019.007-.017.009-.624.322-.064.033-.04.061-.632.949-.016.024-.011.026-.385.953-.117.008-.087.006-.069.055-.208.167-.081.065-.019.1-.045.24-.029.156.119.106.06.054-.087.347-.472.631-.044.058-.01.072-.189,1.407-.075.27-.14-.016-.07-.007-.065.026-.346.139-.785.314.817.218.122.033-.2.318-.356.265-.038.029-.026.039-.4.582-.021.031-.012.036-.416,1.21-.051.148.1.121.094.115-.166.755-.185.117-.091.057-.029.1-.09.309-.025.085.029.084.127.372-.006,0-.281.175-.106.066-.022.122-.033.18-.015.081.031.076.047.114-.1.111-.431.238-.073.04-.039.074-.24.452-.026.048-.006.054-.021.2-.305.885-.208.336-.01.015-.007.016-.856,1.874-.018.04-.005.043-.11.933,0,.016v.015l-.007,1.088-.2.259-.042.054-.012.067-.234,1.3-.245.89-.276.695-.021.053v.057l.02.8,0,.1.066.076.387.448.026.175,0,0-.187.139-.116.085,0,.144.009.644v.03l.007.03Zm-3.583-12.668-.146.108-1.161.856-.087.064-.022.106-.212,1.043-.005.026v.027l-.008.754v.051l.018.048.118.322.012.032.018.028.591.876.021.032.03.025.106.09.04.034.05.017.444.15.208.071.119-.185.212-.33.029-.045.011-.052.033-.163.008-.04,0-.04-.093-1.074.228-.914.139-.195.193-.092.328.045.129.018.1-.087.2-.175.275-.246-.31-.2-.273-.175-.027-.017-.03-.011-.336-.121-.184-.219-.033-.039-.044-.025-.518-.293Z" transform="translate(-305.421 -207.389)" fill="#192857" stroke="#192857" stroke-width="1"/>
      <path id="Path_619" data-name="Path 619" d="M344.209,255.273l-.007-.564.256-.189-.422-.488-.029-1.118.312-.787.238-.863.255-1.421.225-.293.007-1.024.124-1.051.907-1.987.21-.339.285-.827.03-.273.37-.7.475-.262-.033-.08.107-.586.309-.193-.112-.328.2-.685.267-.168.111-.508-.2-.252.541-1.576.491-.723.332-.248-1.365-.364,2.047-.819.042,0,.005-.02.206-1.533.525-.7.033-.128-.17-.151.141-.756.506-.407.117-.008.341-.845.744-1.118.787-.407.413-.144.071-.439.824-.513.3-.351.623-.528.031-.421-.147-.774.292-.759.912-1.152.345-.7.439-1.452.085-.6.363-1.216-.034,0-.193-.692.064-1.538.844-2.372.2-.778.464-2.642-.138-.4.581-1.7.652-.855.051-.637-.163-.222-.112-.787.116-.884-.446.173-.428.08-.39.517-.985-.066-.869.09-.978-.214-.068-.07-.015.038-.388.264-.918.3-.408.2-.04.031.292.663-.221,1.271-1.35.649-.685-.327-.007-.012-.093.041-.347.709-.384.406-.567.139-.467-.214-.307-.683-.044-.632-.891-.769-.877-.4-.552.115-.967-.026-.49-.333-.222-.23-.337.041-.645.248-1.545.134-.717-.211-.017,0-1.278,1.087-.561.7-.568.281H314.63l-8.847,0-.02,25.092.687.052.847.395.277.17.135-.187.715-.276.7.184.744-.153.721.329.5.342.752,1.266.018.676.307.284.083.222.007-.03.247-.351.687-.232.649.43.037.089.221.09.693.047,1.171.639.23.345-.007.564-.1.481.088.5.1.228.111.068.489.122.437.676-.041.123.437.159.713.542.832.443.383.528.314.28.274.089.27.28.235.537.813.952.366.213.152-.043-.023-.186.217-.787.275-.33.8-.206h.812l.174.14.047,0,.307-.168.5-.11.36.04.47.369.467.448.159.067,1.177.224.748.066.228-.1.212-.223.553-.074.681.1.431.337.825.259.413.029.7-.246.231-.021.4-.495.722-.121.565.107.443-.172.994.426.742.472.242,1.908.222.283.505,1.031-.076.675-.044.075,6.671,3.362m-3.3-12.536.922.523.2.239.324.117.947.608-.939.841-.5-.07-.051.024-.066.092-.2.816.1,1.107-.069.346-.506.789-.961-.326-.246-.209-.673-1-.177-.482.01-.91.266-1.308,1.629-1.2m4.012,13.523Zm0,0-7.844-3.952-.4-.033.359-.619.045-.4-.408-.831-.281-.359-.228-1.8-.48-.305-.742-.318-.379.146-.623-.118-.412.069-.412.514-.4.037-.742.261-.6-.04-.986-.31-.4-.309-.456-.07-.277.037-.155.163-.464.2-.917-.082-1.263-.24-.31-.13-.522-.5-.322-.252-.11-.012-.334.073-.387.212-.387-.037-.151-.122H323.4l-.554.143-.082.1-.154.562.069.554-.782.22-.171-.045-.546-.318-.929-1.088-.228-.522-.1-.106-.253-.081-.448-.4-.343-.473-.757-.4-.681-.518-.314-.114-.184.04-.273-.2-.074-.114.1-.309-.171-.265-.359-.09-.329-.2-.2-.449-.118-.672.106-.534,0-.338-.057-.085-.942-.514-.66-.045-.522-.212-.061-.146-.277-.184-.253.086-.078.11-.143.631-.2.253-.375-.073-.151-.175.012-.106-.236-.632-.383-.354-.021-.766-.615-1.035-.355-.244-.509-.232-.692.143-.656-.171-.391.151-.249.342-.216.114-.078-.106-.493-.3-.725-.338-.762-.057-.135-.036-.208-.2.02-25.955.526,0,8.883,0h25.76l.339-.167.517-.648,1.414-1.2.489-.134.114.02.07.147.387.115,1.361-.118.636-.244.6-.074.122.029.338.35.305.208.738.02.668-.138,1.116.509,1.129.974.053.766.179.4.1.045.216-.053.212-.224.4-.815.762-.339.163.314.273.13.847-.407.142-.819-.4-.9.428-.338.5-.245.88-.289.179-.122.09-.228.253-.212.2.028.289.3.725.159.827-.085.729.049.338-.448.591-.11.484-.188.33-.269.318.289.061.33-.143,1.088.081.57.2.277-.081,1.011-.7.912-.489,1.435.122.354-.493,2.807-.216.823-.823,2.314-.057,1.365.069.248.155.021.078.314-.453,1.516-.085.6-.465,1.536-.391.8-.9,1.133-.2.53.131.688-.053.729-.77.652-.33.383-.68.424-.036.224.11.236-.848.3-.623.322-.632.949-.419,1.039-.1.081-.224.016-.208.167-.045.241.188.167-.143.567-.505.676-.192,1.426-.106.383-.159.122-.257-.029-.346.139.244.065.179.167-.358.582-.4.3-.395.583-.416,1.21.18.22-.22,1-.285.18-.09.309.155.453.309.322-.069.359-.118.1-.147-.159.053-.11-.061-.249-.119-.012-.281.175-.033.179.114.277-.249.277-.473.261-.24.453-.024.228-.326.946-.224.363-.856,1.874-.11.933-.008,1.181-.257.334-.236,1.312-.253.917-.281.709.02.8.44.509.057.383,0,.184-.13-.041-.187.139.008.644Zm-3.973-12.855-1.162.856-.212,1.043-.008.754.118.322.591.876.106.089.444.151.212-.33h0l.033-.163-.1-1.121.253-1.011.212-.3.335-.159.411.057.2-.175-.273-.175-.408-.146-.232-.277Z" transform="translate(-305.202 -207.1)" fill="#192857" stroke="#192857" stroke-width="1"/>
    </g>
    <g id="AU-SA" transform="translate(1798.217 3121.654)">
      <path id="Path_620" data-name="Path 620" d="M227.209,243.874l-.21-.008-.652-.349-.708-.712-.5-1.014-.007-.016-.01-.015-.518-.786-.029-.044-.043-.031-.318-.224-.079-.056-.1,0-.1.005-.691-.928-.2-.408.078-.161.031-.065,0-.072-.012-.224,0-.047-.017-.043-.179-.445.052-.328.233-.194.056-.046.026-.068.171-.44.019-.049v-.054l0-.737v-.038l-.01-.036-.163-.583,0-.016-.006-.015-.727-1.771.028-.008-.049-.379,0-.03-.01-.028-.2-.574-.012-.033-.02-.03-.167-.248-.01-.015-.011-.013-.526-.607-.008-.01-.01-.009-.6-.572.133-.014.046-.192.114-.473.006-.022,0-.023.053-.721,0-.03,0-.03-.074-.518-.021-.146-.133-.066-.636-.314-.179-.088-.142.14-.293.289-.132.039-.213-.01-.065,0-.06.026-.224.1-.1.045-.043.106-.089.22-.038.094.03.1.045.143.014.044-.778-.066-.069-.006-.063.026-.314.13-.065.027-.044.054-.24.292-.143.1-1.415.076-.084-.063.1-.18.51-.255.045-.023.035-.037.677-.729.056-.061.015-.081.126-.713.011-.063-.018-.062-.037-.132.032-.243.2-.435.036-.078-.015-.085-.138-.819.091-.428.011-.051-.008-.051-.037-.236-.008-.052-.026-.045-.269-.465-.011-.019-.015-.017-.672-.823-.229-.823-.01-.035-.019-.031-.562-.958-.1-.177-.2.046-.106.025-.139.032-.056.131-.269.627-.051.12.058.116.069.138-.015.051-.371.382-.049.051-.019.067-.155.534-.009.03,0,.031-.059.961-.549,1.786-.012.039v.041l0,.316-.089.072-.469-.213-.023-.01-.025-.006-.322-.081-.06-.015-.061.011-.171.033-.024,0-.023.009-.831.313-.09.034-.05.082-.138.225-.489-.074-.13-.02-.1.087-.3.267-.013.005.022-.036.277-.273.04-.04.022-.053.106-.257.016-.038,0-.042.066-.687.041-.06.162.064.086.034.09-.024.352-.095.2-.012.034.053.076.035.379.171.126.057.122-.066.22-.118.09-.048.038-.095.09-.224.012-.03.005-.032.2-1.279.005-.032,0-.033-.076-.98.052-.972,0-.045-.012-.044-.111-.407h.109l.079-.152.13-.253.012-.023.007-.025.224-.741.008-.027,0-.028.029-.3.713-.911.432-.426.118-.034.135-.038.051-.131.073-.191.031-.08-.019-.083-.143-.624-.008-.035-.017-.032-.393-.754.067-.2.15-.107.159-.063.236-.006.094,0,.074-.059.122-.1.122-.1-.018-.156-.033-.269-.006-.051-.024-.046-.134-.257-.047-.089-.093-.039-.107-.046-.225-1.024-.006-.028-.012-.026-.219-.488-.116-.6-.02-.106-.086-.065-.236-.18-.427-.324-.023.536-.037.852-.007.172.151.085.033.018.03.053.024.458-.1.509h-.013l-.036,0-.034.011-.563.179-.071.022-.051.055-.473.513-.026.029-.018.035-.456.909-.026.052,0,.058-.022.4-.062.186L211.287,220l-.186.156-.357.013-.241-.148-.23-.14-.149.224-.29.432-.153.229,0,0-1.093.578-.022.012-.02.016-.737.578-.015.012-.013.014-.252.261-.063.066-.013.09-.018.123-.193.364-.389.627-.28.124-.083.037-.046.078-.344.588-.4.248-.066.042-.035.07-.273.542-.01.019-.007.02-.313.949-.025.076-.1.015-.156.023-.062.145-.035.081-.006-.007-.582-.762-.01-.014-.012-.012-.192-.2.175-.057.738-.239-.721-.289-.328-.131-.008-.025-.006-.031.038-.084.035-.079-.015-.085-.2-1.1,0-.026-.009-.024-.325-.864-.049-.565-.006-.07-.038-.058-.3-.46-.012-.018-.014-.016-.709-.8-.015-.017-.017-.015-.715-.581.081-.338.012-.049-.006-.05-.045-.367,0-.03-.01-.029-.22-.628-.005-.015-.007-.015-.449-.925-.048-.1-.1-.04-.505-.2-.071-.027-.075.012-.819.13-.05.008-.044.025-.153.087-.043-.048v-.023l0-.055-.02-.052-.326-.867,0-.007,0-.007-.126-.287.149-.2.3-.412.026-.035.014-.042.09-.269.023-.07-.014-.072-.089-.464-.012-.06-.035-.049-.314-.444-.019-.027-.026-.023-.277-.24-.06-.052-.079-.013-.126-.02-.065-.011-.063.02-.395.124.093-.155-.108-.15-.55-.766-.035-.048-.051-.03-.42-.247-.13-.116.007-.026.066-.259-.254-.079-.3-.094-.144-.044-.117.095-.11.09-.072.06-.022.091-.038.155-.189.119-1.295-.09-.029-.007-.252-.272-.047-.051-.064-.023-.352-.127-.581-.55-.027-.026-.033-.017-.212-.115-.047-.025-.053-.006-.888-.106-.044-.006-.044.009-.424.085-.077.016-.058.054-.287.266-.293.1-.194.015-.186-.047-.691-.7-.016-.016-.019-.013-1.141-.827-.017-.012-.019-.01-1.788-.925-.015-.007-.016-.006-.957-.358-.063-.024-.067.007-.146.016-.082.009-.064.052-.418.339-.673.261-.162.021-2.318-.173h-.03l-.505.016h-.013l-.941.073-.024,0-.024.006-.409.1-2.658.226h-.011l-.011,0-.692.113.024-27.987,3.678-.026,5.893,0,29.933,0h12.991l.012,14.612-.02,25.12-.114-.151v.835l-.016,21.855-.208-.021-.056-.006-.054.016ZM212.63,232.833l-.29-.3-.061-.063-.087-.016-.582-.11-.071-.013-.068.022-.163.053-.149.048-.037.152-.012.048-.39-.036-.035,0-.034.006-.565.087-.65.019-.058-.1-.024-.04-.036-.03-.54-.449,0-.017.142-.415,1.445-.428.308,0h.031l.03-.007.416-.1.026-.006.024-.011.806-.358.755.063.1.1,0,.318v.1l.057.076.061.081.071.094.116.016.37.049.189.108-.535.252-.066.031-.043.06-.081.114-.066.093.017.113.035.231Zm2.482-.878-.355-.173-.048-.024-.054,0-.062-.005.12-.185.381.1.1.143v.067Z" transform="translate(-175.171 -181.239)" fill="#192857" stroke="#192857" stroke-width="1"/>
      <path id="Path_621" data-name="Path 621" d="M226.954,243.372l.368-.111h.011l.017-23.215.114.151.019-24.284-.012-14.332h-12.71l-29.933,0-5.894,0-3.4.025-.024,27.377.387-.063,2.656-.226.434-.111,1.015-.078.535-.017,2.32.173.1-.012.6-.232.511-.416.444-.049,1.114.417,1.856.96,1.212.879.668.675.066.016.112-.008.2-.071.36-.334.667-.135,1.084.129.372.2.592.561.426.153.275.3,1.117.077.016-.01.056-.227.49-.4,1.1.341-.1.373.478.281.683.95.161-.051.415.067.449.39.423.6.14.728-.164.492-.406.555.073.168.283.754,1.013-.161.853.33.558,1.153.251.715.065.528-.063.264.613.5.768.865.4.613.058.665.33.877.235,1.321-.008.019,1.053.421.345-.685.472-.3.4-.685.366-.162.339-.545.166-.312.036-.255.406-.419.807-.633,1.068-.565.706-1.054.628.384.177-.007.071-.059.595-1.113.043-.128.027-.477.544-1.083.627-.681.632-.2.058-.3-.016-.306-.228-.128.1-2.268,1.262.957.151.778.23.511.207.939.158.067.276.526.083.681-.513.411-.374.011-.081.032-.048.034.371.712.2.86-.235.614-.32.09-.369.363-.65.832-.026.275-.255.844-.254.491.068.251-.056,1.044.08,1.026-.216,1.407-.189.474-.068.036.237.06.209.1v-.078l.563-1.832.061-.99.211-.728.357-.367-.108-.216.484-1.129.785-.181.809,1.376.232.837.663.811.345.6.068.442-.1.477.157.937-.252.552-.019.144.057.2-.177,1-.83.895.549-.029.046-.031.3-.37.57-.237.51.044.245-.6.553-.242.3.014.019-.006.527-.521,1.26.622.124.871-.061.827-.161.668.395.378.565.653.225.336.248.7.057.438-.019.006.711,1.733.192.687.005.92-.263.675-.263.219-.024.148.185.459.025.462-.081.167.131.262.586.787.142-.007.563.4.595.9.5,1,.646.65.558.3.1,0m-14.509-11.125-.033-.219.276-.387-.02,0-.316-.422,0-.335-.525-.044-.789.35-.527.124-.33,0-1.268.376-.036.106.47.391.023.036.469-.013.617-.095.218.02.029-.116.6-.194.9.17.246.251m-1.588-4.437.141-.23.7-.263-.371-.167-.026,0-.5.135-.021-.008-.046.472-.015.036.148.022m-6.48-1.96.167-.025.18-.545-.627.2.28.366m22.649,18.087-.322-.012-.746-.4-.77-.774-.522-1.056-.517-.786-.318-.224-.248.012-.794-1.067-.277-.554.139-.285-.012-.224-.208-.518.081-.509.314-.261.171-.44,0-.737-.163-.583-.774-1.887L220.832,232l-.806-.868-.473-.383.216.07,1.206,1.055.8,1.1.338.7-.049-.379-.2-.574-.167-.249-.526-.607-1.54-1.475-.008-.481.273-.11.334.289-.04.68.069.094.416-.045.114-.473.053-.721-.074-.518-.636-.313-.343.338-.244.073-.26-.012-.225.1-.089.22.045.143.253.081.085.106-.2.257-1.194-.1-.314.131-.264.322-.241.167-1.6.086-.363-.273.265-.469.587-.293.676-.729.126-.713-.053-.187.045-.343.216-.473-.147-.872.1-.481-.036-.236-.269-.464-.709-.868-.244-.88-.562-.958-.106.025-.269.627.118.236-.065.224-.419.432-.155.533-.061.994-.558,1.818,0,.448-.326.265-.627-.285-.322-.082-.171.033-.832.314-.188.305-.106.07-.615-.094-.343.3-.253.094-.143-.069-.126-.212.163-.265.3-.3.106-.257.074-.758.208-.306.371.147.379-.1.391-.024.078.122.379.171.22-.118.089-.224.2-1.28-.077-1,.053-.99-.183-.673.065-.089h.216l.131-.253.224-.742.036-.383.774-.99.5-.488.188-.053.074-.191-.143-.623-.449-.86.135-.4.253-.179.236-.094.285-.008.122-.1-.033-.269-.134-.257-.24-.1-.257-1.165-.232-.518-.122-.632-.236-.179-.037.851.1.057.1.179.029.559-.147.757-.232.012-.563.179-.473.514-.456.908-.025.436-.081.244-.668,1.251-.3.253-.538.02-.314-.191-.289.432.081.057-.171.179-1.255.664-.737.578-.253.261-.025.171-.22.415-.44.709-.359.159-.379.647-.457.285-.273.542-.314.949.11.053.2-.025.591-.416.061.281-.07,1.055-.212.09-.118-.224-.371-.412-.265-.163-.277.041-.2.46-.159,0-.167-.322-.583-.762-.656-.677-.346-.277-.143-.044-.456.159.175-.485.253-.363.021.334.578.619.232.159.44-.143-.449-.179-.057-.167-.025-.138.074-.163-.2-1.1-.338-.9-.053-.6-.3-.46-.709-.8-.851-.693.122-.509-.044-.367-.22-.628-.449-.925-.5-.2-.819.13-.35.2-.269-.3,0-.135-.326-.868L197.391,215l.354.025.175.163.061.265.3-.412.09-.269-.09-.464-.314-.444-.277-.24-.126-.021-.7.22-.285.273-.167-.033.008-.423.126-.29.225.09.073-.122-.55-.766-.444-.261-.277-.249.049-.191-.3-.094-.11.09-.065.264-.363.228-1.41-.1-.134-.033-.31-.334-.407-.146-.624-.591-.212-.114-.888-.106-.424.085-.33.306-.383.134-.277.02-.305-.077-.746-.754-1.141-.827-1.789-.925-.957-.359-.147.016-.452.367-.746.289-.224.029-2.347-.175-.505.016-.942.074-.432.11-2.681.228-1.018.167.024-28.6,3.957-.029,5.9,0,29.932,0h13.271l.012,14.893-.02,25.955-.114-.151-.016,22.166-.518-.053Zm-14.673-10.982-.432-.44-.583-.11-.163.053-.049.2-.126.074-.526-.049-.582.09-.832.024-.143-.236-.627-.522-.02-.191.208-.611,1.622-.481.346,0,.416-.1.872-.387.925.078.261.248,0,.44.061.081.424.057.436.248.261.021.273-.42.672.184.216.293,0,.285-.322.289-.526-.257-.709-.053-.623.293-.081.115.057.374-.126.126Zm2.017-1.935Zm-7.1-8.222Z" transform="translate(-174.952 -181.02)" fill="#192857" stroke="#192857" stroke-width="1"/>
    </g>
    <g id="AU-VIC" transform="translate(1851.132 3162.36)">
      <path id="Path_622" data-name="Path 622" d="M329.049,309.347l-.059-.089-.239-.627.052-.036.346-.243.035.826Zm-1.909-1.586-.061-.005-.22-.444.024-.039.085-.137-.076-.143-.139-.26-.066-.124-.139-.021-.391-.061-.108-.017-.091.061-.255.17-.066.011-.064-.037-.54-.547.032-.23.243-.1.089-.037.048-.084.154-.273.07-.122-.056-.129-.31-.709-.034-.077-.071-.046-.183-.118-.079-.051-.094.007-.836.061-.193.014-.055.186-.168.561-.7.719-.256.051-.028,0-.161-.187.036-.016.465-.208.084-.038.046-.08.648-1.141.057-.1-.03-.112-.143-.525-.012-.042-.024-.036-.546-.844-.042-.063-.067-.034-.256-.13-.12-.061-.124.056-.411.188-.044.02-.034.033-.578.554-.65.486-.547.057-.1.011-.07.07-.078.077-.1.1.016.135.025.2.025.207.206.036.611.106.071.012.068-.024.342-.119.041-.014.035-.025.093-.069.016,0-.015.078-.151.232-.236-.056-.062-.015-.062.013-.68.147-.045.01-.04.024-.143.086-.007,0-.006,0-1.332.9-.034.023-.026.032-.913,1.124-.4.111-.047.013-.039.028-.163.115-.069.048-.031.079-.068.174-.378.278-.191-.225-.03-.036-.041-.024-.249-.146-.027-.016-.03-.01-.851-.272-.159-.162-.024-.024-.029-.018-.375-.232-.051-.032-.06-.008-.3-.04-.677-.274-1.156-.893-.031-.025-.037-.015-.689-.273-.083-.033-.086.021-.489.118-.087.021-.054.062-.2,0-.349-.2-.413-.343-.053-.044-.067-.015-.636-.139-.027-.006h-.029l-.309,0h-.041l-.039.011-.318.09-.058.016-.046.039-.261.22-.1.084v.324l-.275-.134-.344-.417-.012-.014-.013-.012-.77-.722-.017-.016-.02-.013-.4-.261-.017-.012-.019-.009-.436-.2.016-21.353.1.028.026.007.027,0,.711.053.665.31.432.265.045.061.143.2.214-.114.216-.114.057-.03.039-.053.2-.275.23-.089.568.149.063.016.065-.013.6-.125.4.184.284.2.546.92.019.693,0,.118.086.08.334.309.189.506,0,.039-.014.122.08.093.151.175.063.074.1.018.374.074.169.033.106-.134.2-.253.04-.05.014-.062.128-.569.03-.01.091.06.029.068.045.108.108.044.522.212.042.017.045,0,.6.041.8.435,0,.2-.1.508-.01.052.009.052.118.672.006.035.015.033.2.448.035.078.073.045.33.2.037.023.042.011.251.063.038.059-.059.182-.042.127.072.112.074.114.027.043.041.03.273.2.1.077.126-.028.1-.023.2.071.647.492.018.014.02.011.7.373.3.42.018.025.022.02.449.4.044.039.057.018.185.06.018.019.208.476.017.038.027.031.929,1.088.031.036.041.024.546.318.033.019.037.01.171.044.074.02.073-.021.782-.22.233-.065-.03-.24-.062-.5.12-.435.421-.108h.407l.073.059.066.054.084.008.387.036.086.008.076-.042.351-.193.239-.053.243.191.512.491.038.036.048.021.31.13.027.011.029.006,1.263.24.013,0h.014l.917.081.071.006.065-.028.464-.2.053-.023.04-.042.087-.091.139-.019.344.052.338.264.04.031.049.015.986.31.031.01.033,0,.6.041.058,0,.055-.019.709-.249.365-.034.118-.011.075-.093.345-.43.257-.043.574.109.079.015.075-.029.272-.1.615.263.35.223.212,1.67.01.077.048.061.263.335.359.731-.029.256-.329.569-.222.385.442.036.345.028,7.234,3.645-.19.017-.135.012-.075.114-.456.7-.331.169-.491.241-.588.059-2.127.012h-.019l-.019,0-.716.1-.7-.027h-.03l-.819.057-.031,0-.029.009-1.528.452-.024.007-.021.011-.905.448-.024.012-.021.016-.966.733-.011.008-.011.01-.746.7,0,0,0,0-.7.7-.008.007-.007.008-1.063,1.236-.344.3-.9.116-.017,0-.016,0-.892.225-.27-.086-.05-.016-.052,0-.4.025-.048,0-.045.018-.183.078-.078.032-.047.07-.155.232-.094.141.082.149.025.046-.207-.088-.1-.042-.1.032-.216.07-.133.043Z" transform="translate(-305.061 -281.415)" fill="#192857" stroke="#192857" stroke-width="1"/>
      <path id="Path_623" data-name="Path 623" d="M326.976,306.863l.443-.142h0l.291-.436.427-.18.6-.036.294.093.847-.214.852-.108L331,305.6l1.064-1.238.733-.729.766-.716,1.031-.783,1-.494,1.633-.483.911-.063.709.028.729-.1,2.151-.012.525-.052.443-.219.263-.134.413-.629-6.674-3.363-1.175-.1.745-1.286.013-.116-.309-.631-.341-.435-.214-1.693-.22-.14-.49-.21-.315.122L333.7,292l-.1.017-.427.532-.568.052-.786.276-.776-.053-1.147-.36-.359-.281-.232-.035h0l-.1.1-.7.3-1.086-.1-1.349-.257-.46-.194-.576-.554-.128-.1-.071.016-.467.256-.728-.069-.128-.1h-.272l-.229.059-.061.224.115.923-1.394.392-.392-.1-.695-.4-1.046-1.224-.2-.452-.189-.061-.582-.519-.3-.417-.683-.364-.649-.494-.08-.029-.275.061-.561-.419-.273-.425.064-.2-.1-.024-.55-.34-.3-.669-.149-.846.116-.588-.594-.324-.627-.043-.632-.257-.053.236-.491.621-.9-.176-.438-.509.025-.216-.142-.38-.459-.424-.022-.856-.478-.8-.213-.147-.3-.136-.641.132-.608-.158-.067.026-.227.314-.761.4-.3-.408-.371-.227-.6-.281-.513-.039-.016,20.845.312.144.47.31.832.779.207.251.491-.414.513-.144.448.006.825.18.5.416.261.15.024-.028.837-.2.928.368,1.187.918.608.245.387.052.535.331.158.161.844.27.384.227.083.1.1-.075.1-.256.381-.267.409-.113.909-1.119,1.329-.9-.06-.01-.107-.89.411-.411.668-.07.574-.429.635-.609.744-.339.633.321.676,1.044.2.754.947-.07.484.312.49,1.122-.388.685-.22.092.3.307.307-.2.884.139.422.793-.112.18.015.03m1.874,2.31-.208-.1-.122-.183-.322-.844-.464-.582-.342-.147-.216.07-.061.175-.436-.037-.359-.725.106-.171-.139-.261-.391-.061-.305.2-.224.037-.184-.106-.664-.672.073-.526.391-.163.154-.273-.309-.709-.184-.118-.835.061-.187.627-.807.831-.391.078-.179-.029-.619-.722h.526l.464-.208.648-1.141-.143-.526-.546-.843-.257-.13-.411.188-.591.566-.725.542-.624.066-.077.077.024.2.611.106.342-.118.2-.151.306.085.065.163-.049.248-.228.35-.11.082-.379-.09-.681.146-.143.086-1.332.9-.97,1.194-.489.134-.163.114-.1.249-.574.424-.167-.045-.273-.322-.249-.147-.917-.293-.208-.212-.375-.232-.339-.045-.746-.3-1.185-.917-.689-.273-.489.118-.081.094-.4-.008-.432-.249-.432-.358-.636-.139-.31,0-.318.089-.26.22v.175l.134.265-.35.1-.518-.253-.383-.464-.77-.721-.4-.261-.6-.277.016-22.166.114.15.208.2.135.037.762.057.725.339.494.3.077.106.216-.114.249-.343.391-.151.656.171.692-.142.509.232.355.245.615,1.035.02.766.383.355.236.632-.012.106.151.175.375.074.2-.253.143-.632.077-.11.253-.085.277.183.061.147.522.212.66.045.941.513.057.086,0,.338-.106.534.118.672.2.448.33.2.358.09.171.264-.1.31.073.114.273.2.184-.041.314.115.681.517.758.4.342.472.448.4.253.082.1.105.228.522.929,1.088.546.318.171.045.782-.22-.069-.554.154-.562.082-.1.554-.143h.542l.151.123.387.036.387-.212.334-.074.11.012.322.253.522.5.31.13,1.263.24.917.082.464-.2.155-.163.277-.036.456.069.4.31.987.309.594.041.742-.261.4-.037.411-.513.412-.069.623.118.379-.147.742.318.481.306.229,1.8.281.358.407.832-.045.4-.358.619.4.033,7.844,3.952-.346.22-.5.044-.5.758-.4.2h0l-.538.265-.652.065-2.139.012-.742.106-.729-.028-.819.057-1.528.453-.905.448-.965.733-.746.7-.705.7L331.4,306l-.423.375-.99.126-.97.244-.346-.11-.4.025-.184.077-.155.232.493.9.509-.359.094-.342.159.073.065,1.532-.261.33Zm-4.592-3.259h0l-.15-.184-.216-.094-.684.057.012-.061.309-.3.411-.081.118.078.236.566Zm.009-.783-.318-.122-.057-.257.11-.363.709.146.179.212-.049.081-.285,0Z" transform="translate(-304.842 -280.92)" fill="#192857" stroke="#192857" stroke-width="1"/>
    </g>
    <g id="AU-QLD" transform="translate(1838.02 3048)">
      <path id="Path_624" data-name="Path 624" d="M332.1,91.556l-.085-.19-.049-.716-.008-.117-.089-.076-1.129-.974-.03-.026-.036-.017-1.117-.509-.084-.038-.09.019-.636.132-.623-.017-.213-.145-.318-.33-.057-.06-.081-.019-.122-.029-.048-.011-.049.006-.6.074-.034,0-.033.012-.6.23-1.268.111-.216-.064-.016-.033-.062-.131-.143-.025-.114-.02-.062-.011-.061.017-.489.134-.06.017-.048.04-1.414,1.2-.02.018-.017.021-.479.6-.224.111H295.573l-8.882,0h-.007l-.243.006-.008-14.6v-.28H273.162V32.1l.4.327.035.028.042.016.423.163.017.007.018,0,.868.208.04.01.042,0,.576-.035.13.1.026.019.03.013.688.289.034.014.035.005.623.089.47.651.083.529.007.045.021.041.224.432.021.04.032.031.212.208.045.044.06.021.338.118.029.01.03,0,.378.045.356.236.338.342.052.052.071.02.841.243.247.147.408.365.035.032.044.018.175.073.044.019.048,0,.5.029.034,0,.033-.006,1.17-.212.024,0,.023-.008.607-.224.019-.007.017-.009.379-.2.021-.011.019-.014.575-.445.291-.1.1-.036.052-.094.232-.424.017-.031.009-.034.249-.962.006-.022,0-.022.058-.608,1-1.3.021-.027.013-.031.408-.921.013-.029.006-.031.126-.645.485-1.273.026-.068-.011-.072-.108-.728.252-1.609.756-1.731.01-.022.006-.023.139-.558.021-.083-.029-.081-.427-1.172-.189-1.211.053-.3.242-.622.016-.04,0-.043.033-.505,0-.047-.012-.046-.1-.354-.016-.059-.039-.047-.385-.46-.028-.412.3-1.262.632-1.229.048-.093-.025-.1-.049-.2-.017-.068-.047-.052-.158-.177-.164-.643.007-.026.006-.011.392-.247.038-.024.029-.035.171-.208.031-.038.017-.046.08-.222,0,.22v.082l.046.069.188.285.38.579.13-.68.036-.191.014-.073-.024-.071-.249-.725-.028-.084-.071-.052-.156-.113-.368-.553.21-.17-.284-.216-.085-.065-.067-.051-.084-.006H289.4l.062-.135.371-.512.1-.131-.066-.148-.024-.053.116-.332.056.271.274-.054.472-.094.161-.032.052-.155.036-.11.056-.167-.126-.123-.284-.278,0-.041.087-.463.673-1.936.008-.024,0-.025.159-1,.006-.038,0-.038-.08-.7.027-.02.637-.111.109-.019.067-.089.248-.33.008-.01-.031.394-.073.928.574-.732.158-.2.43.366.155.339.321,1.305-.1.475-.01.047.007.048.118.89-.031.5-.008.137.1.091.481.424.07.062.093.007.306.024.072.006.066-.03.162-.073.085.094-.316.508-.024.039-.011.045-.09.379-.006.026v.027l-.02.493-.009.221.212.061.229.065.074.021.075-.02.037-.01.249.122.017.019.012.37,0,.107.074.077.2.2.072.075.1.01.088.009.062.047-.157.364-.016.037-.005.04-.057.477-.023.194.175.089.192.1.075.038.084-.009.153-.017-.053.749,0,.025,0,.025.1.929,0,.012,0,.012.032.163.017.087.064.061.137.131.06.128-.029.328L297.08,18.7l-.02.085.031.081.314.815.02.052.039.04.306.323.049.634,0,.028.007.027L298,21.4l.006.022.01.021.2.428.019.04.03.032.151.163.031.034.042.022.318.171.061.033h.07l.55,0h.1l.077-.06.6-.469,1.217-.557.1-.044.043-.1.035-.079.053.079-.041.329-.008.067.024.064.212.575.017.046.031.037.277.33.047.056.068.026.668.257.039.015.042,0,.134.009.208.462.043.1.1.044,1.061.479.336.262-.006.056-.305.54-.041.072.005.083.016.269,0,.069.035.059.148.243.036.215-.157.458-.038.112.053.105.237.47.222.756v.9l.083.082.186.186.183.429-.062.79-.121.169-.047.066-.005.081-.029.473,0,.05.015.048.04.134.03.1.089.056.193.122,1.482,1.85.179.223.22-.183.037-.031-.143.271-.043.081.013.09.02.143.008.054.027.047.3.523.332.777.226.83.073.577-.073.4-.008.045.006.045.061.44-.021.224-.386.819-.031.067.005.074.033.444.006.083.051.066.9,1.174.048.064.075.028.344.13-.017.262-.18.42-.016.038,0,.041-.057.493-.006.053.013.051.041.155.014.053.033.044.257.342.022.03.03.023.339.264.082.157.034.065.062.04.518.338.016.01.017.008.4.187.054.025.06,0,.373.009.462.463.078.078.109,0,.263.011.428.14.252.238.058.055.078.016.505.106.039.008.04,0,.791-.061.038,0,.219.4.167.853.007.036.016.033.106.216.018.037.028.03.224.24.058.062.083.02.241.057.065.015.065-.016.2-.049.084-.02.073.07.212.2.036.034.045.02.265.114.06.025.064,0,.508-.022.418.122.05.061-.021.009.071.244.037.126.016.054.035.044.261.322.018.023.023.018.35.285.133.108.157-.069.233-.1.157-.069.01-.172,0-.057.442.4.059.053.078.014.313.057.061.084.152.429-.066.027-.216.09-.066.027-.045.055-.326.4-.1.124.056.15.273.733.02.054.04.042.533.558.02.021.023.016.318.22.031.021.035.013.43.152.524.407.146.186-.03.234-.007.054.014.053.154.587.022.085.067.057.157.134.147.484.009.03.016.027.253.444.02.036.03.029.158.15-.049.77,0,.048.013.046.4,1.442,0,.016.006.015.305.742.012.028.017.025.281.4.023.033.031.025.09.073.007.267-.086.13-.583.884.944-.479.3-.15.028-.014.024-.02.172-.142.408.506v.094l.087.083.273.261.754.72-.291-1-.228-.787-.007-.023-.011-.021-.259-.534,0-.108.139-.368.092-.12h0l.268.413.189.535.042.118.116.048.51.209.676.464.02.014.022.01.5.228.655.3-.023-.055.189.268-.264,1.792-.013.085.038.078.216.445-.047.609-.006.077.034.069.294.595.039.08.078.043.359.2.044.024.05.007.176.026.065.147.029.067.058.044.234.177.184.531.035.1.1.052.313.171.063.034h.129l.1.073.444.549.055.067.083.025.25.074,0,0,.021.1.029.135.031.147.139.056.123.049.17.068.131-.128.216-.212.08-.079v-.035l.28.322.011.013.014.012.589.525.314.936.01.03.016.027.538.88.028.044.042.032.643.493.031.024.037.014.559.22.145.166.1.23.042.538.005.067.034.057.725,1.2.056.093.1.031.607.184.031.009.032,0,.229.015.112.467-.035.287-.113.115-.085.087.006.121.024.57,0,.043.015.04.1.273.022.063.049.047.147.138.051.048.067.019h0l.184.45.042.1.1.046.437.2-.136.3-.011.025-.006.026-.29,1.182-.017.068.018.068.075.294.108,1.43,0,.044.017.042.1.25.052,1.476-.068.021-.09.029-.054.077-.269.379-.07.1.024.118.134.676.021.1.083.065.458.354.3.378.262.9.013.045.027.039.353.5.093.252-.087.593-.011.075.028.07.219.554.013.031.02.028.051.071-.091.074-.419.162-.566.1-.107.02-.066.087-.246.327-.578-.039-.024,0-.023,0-.783.081-.6-.131-.231-.237-.066-.069-.094-.013-.2-.029-.125-.018-.1.081-.253.212-.054.046-.026.066-.058.148-.075.051-.842.277-.019.006-.017.009-.5.244-.026.013-.024.019-.428.338-.171.135.088.2.365.827-.1.593-.6.286-.067-.032-.12-.23-.122-.234-.241.107-.762.338-.093.042-.045.092-.381.777Zm7.266-17.214-.091-.332.192-.47.286-.474L339.8,73v-.079l0-.42v-.074l-.024-.042.092-.193.411-.331.047-.038.028-.053.2-.4.018-.034.012.008-1.035,2.437-.006.013,0,.014ZM331.4,65.033l-.014-.013-.148-.328-.024-.053-.043-.039-.254-.229-.064-.145.229.145.047.078.259.5Zm-2.7-5.845L328.617,59l0-.23.158.236-.07.161Zm-50.45-27.173.045-.181.2-.273.277-.21.333-.041.105.23,0,.008-.146.242-.379.144ZM292.679,5.528l.076-.189.079,0,.036.017-.184.169Z" transform="translate(-272.881 -2.486)" fill="#192857" stroke="#192857" stroke-width="1"/>
      <path id="Path_625" data-name="Path 625" d="M332.034,88.492l.176-.36,1.431-.635.265.509.26-.126.064-.367-.507-1.147.816-.645.586-.288.817-.268.074-.188.555-.465.633.092.3.313.472.1.785-.081.474.032.287-.38.753-.14.208-.081-.24-.605.1-.672-.055-.149-.386-.541-.272-.934-.248-.309-.6-.463-.222-1.12.518-.73.045-.014-.042-1.212-.118-.287-.113-1.494-.1-.406.336-1.371.04-.089-.384-.175-.216-.528h0l-.346-.327-.172-.48-.038-.9.216-.221.017-.143-.051-.216-.087-.006-.875-.264-.906-1.5-.048-.626-.061-.147-.07-.08-.569-.223-.79-.605-.625-1.023-.311-.925-.559-.5-.092-.106-.362.355-.741-.3-.078-.366-.259-.077-.528-.652h-.111l-.63-.344-.227-.655-.282-.214-.061-.139-.121-.018-.6-.328-.44-.892.053-.687-.258-.533.274-1.852-.034-.048-1.154-.526-.692-.475-.615-.252.745,2.568-1.955-1.868v-.115l-.167-.207h0l-2.242,1.137,1.2-1.824v-.049l-.052-.042-.362-.519-.342-.829-.438-1.566.047-.734-.123-.117-.325-.57-.141-.465-.229-.195-.228-.863.029-.226-.053-.067-.46-.358-.458-.162-.427-.3-.653-.683-.425-1.142.617-.763.168-.07-.036-.1-.343-.063-.258-.232-.718.315L318,46.335l-.369-.455-.116-.4-.235-.068-.59.026-.474-.2L315.969,45l-.27.065-.536-.127-.4-.425-.175-.357-.172-.882-.111-.2-.729.056-.739-.155-.321-.3-.332-.108-.444-.018-.538-.538-.38-.01-.537-.255-.673-.44-.121-.234-.349-.272-.368-.49-.1-.363.079-.68.194-.451V38.81l-.3-.114-1.1-1.434L307.5,36.5l.428-.908.013-.143-.068-.5.082-.443L307.894,34l-.216-.793-.317-.743-.352-.6-.047-.324-1.646-2.055-.329-.208-.131-.431.044-.735.17-.237.05-.643-.135-.315-.312-.312V25.62l-.2-.693-.332-.658.21-.614-.016-.092-.192-.316-.035-.573.292-.516-.136-.107-1.224-.553-.226-.5-.051,0-.883-.339-.433-.516-.271-.734-.985.45-.729.569-.885-.007-.523-.282-.274-.3-.256-.549-.2-.7-.045-.59-.315-.332-.416-1.081.279-1.172.02-.233-.006-.012-.227-.216-.072-.361-.11-1,.033-.472-.677-.345.113-.946.056-.131-.482-.5-.015-.426-.02-.01-.085.023-.8-.229.041-.988.123-.521.1-.162-.4-.032-.827-.729.046-.745-.128-.958.108-.507-.3-1.218-.118-.258-.159-.136-1.127,1.438.12-1.511-.451.079.06.526-.179,1.123-.683,1.963-.061.327.438.428-.251.753-.9.179.024.052-.454.626.591.45-.287.234.2.3.258.188.354,1.034-.325,1.7-.841-1.28-.061.074-.315.2.1.4.205.23.133.539-.713,1.386-.286,1.187.019.278.4.483.156.563-.044.686-.264.676-.04.228L289,20.965l.476,1.307-.191.77-.76,1.742-.24,1.531.123.83-.528,1.388-.133.683-.46,1.04-.994,1.29-.054.572-.277,1.073-.369.673-.452.16-.577.446-.454.244-.69.255-1.284.233-.664-.038-.351-.147-.457-.41-.193-.115-.948-.273-.421-.426-.277-.183-.372-.044-.514-.18-.365-.358-.307-.592-.087-.553-.361-.5-.577-.082-.816-.343-.1-.074-.558.034-.985-.236-.542-.208-.013-.011V73.356h13.271l.008,14.876,8.851,0h25.641l.108-.054.473-.592,1.55-1.318.732-.2.524.094.085.181.044.013,1.176-.1.626-.241.766-.094.381.089.413.428.121.083.508.014.784-.163,1.357.619,1.367,1.179.023.32m-.236,1.162-.1-.045-.179-.4-.053-.766-1.129-.974-1.116-.509-.668.139-.738-.021-.305-.208-.339-.35-.122-.029-.6.074-.636.244-1.361.118-.387-.114-.07-.147-.114-.02-.489.135-1.414,1.2-.517.648-.339.167H295.353l-8.883,0-.53.012-.008-14.888H272.662V29.28l.86.7.424.163.868.208.676-.041.212.155.688.289.742.106.578.8.094.595.224.432.212.208.338.118.444.053.436.289.359.363.876.253.3.179.428.383.175.073.5.029,1.17-.212.607-.224.379-.2.611-.473.334-.118.232-.424.249-.962.065-.689,1.051-1.365.408-.921.13-.668.493-1.3-.114-.77.265-1.687.77-1.764.139-.558-.436-1.2-.2-1.284.065-.375.253-.648.033-.505-.1-.354-.444-.53-.037-.546.322-1.337.647-1.259-.049-.2-.2-.228-.2-.782.036-.13.057-.1.452-.285.171-.208.216-.6.265.081.142.244,0,.363.188.285.036-.192-.249-.725-.2-.143-.538-.807.13-.106-.085-.065-.289-.02-.037.265.139.187-.257.082-.155-.069.009-.1.415-.9.387-.534-.069-.155.2-.57.191-.285.192-.086.109.538.473-.094.037-.11-.359-.35-.016-.183.1-.522.681-1.956.159-1-.09-.786.041-.11.163-.118.7-.122.249-.33.2-.5.33-.012.416.2-.139.212-.294.269-.033.412.281-.359.159.012.6.509.192.42.342,1.394-.114.538.122.917-.033.526.481.424.306.024.289-.13.126.049.3.326-.428.689-.09.379-.02.493.228.065.139-.037.391.192.122.134.016.473.2.2.167.016.3.228-.244.566-.057.477.192.1.436-.049.044.09-.069.99.1.929.032.163.175.167.115.244-.037.424-.248,1.043.313.815.375.4.057.733.171.607.2.428.151.163.318.171.55,0,.628-.489,1.247-.57.184-.412.175.041.277.416-.053.432.212.575.277.33.668.257.3.02.277.615,1.092.493.485.379-.029.269-.334.591.016.269.175.289.057.338-.179.526.248.493.24.819v.827l.224.224.232.542-.074.937-.167.232-.029.473.041.134.232.147,1.512,1.887.147-.122.411-.069.106.13-.343.648.02.143.314.538.347.811.236.868.081.64-.081.44.065.473-.029.306-.408.864.033.444.9,1.174.538.2-.033.517-.2.465-.057.493.04.155.257.342.387.3.11.212.517.338.4.187.485.012.542.542.3.012.526.171.3.281.505.106.791-.061.065-.139-.2-.346.253.289.428.77.175.9.106.216.224.24.24.057.2-.049-.07-.379.033-.163.268,0,.131.139.053.517.212.2.265.114.554-.024.546.159.35.424-.142.057.037.126.26.322.35.285.232-.1.016-.277-.139-.126.061-.163.305.114.669.6.423.077.151.208.281.79.167.045.134.375L320.8,47.7l-.212-.216-.179-.086-.216.09-.326.4.273.733.534.558.318.22.473.167.587.456.24.306-.045.35.155.587.22.187.171.562.252.444.253.24-.057.9.4,1.442.305.742.281.4.192.155.012.485-.134.2.3-.15.236-.2.11-.184.693.86v.074l.273.261-.228-.786-.289-.6,0-.224.171-.452.175-.228.2-.053.155.065.338.522.2.566.538.22.7.481.5.228-.256-.607,0-.359.122-.248.322.057.314.469-.131.3.033.232.6.852-.281,1.9.248.513-.053.684.293.6.359.2.33.049.126.29.3.228.212.611.314.171h.146l.208.147.469.578.3.09.236.188-.07.109.029.135.122.049.216-.212.008-.261.106-.1.2.057.46.53.643.574.339,1.006.538.88.643.493.624.244.219.253.131.314.045.583.725,1.2.607.183.436.029.171.717-.053.432-.179.184.025.57.1.273.147.139.135.036.236.579.636.289.016.118-.212.46-.289,1.182.081.318.11,1.455.122.3.061,1.74-.273.085-.269.379.135.677.484.375.359.448.277.949.375.526.13.354-.1.664.22.554.2.285-.33.269-.485.188-.591.11-.338.448-.729-.049-.827.085-.725-.159-.289-.3-.2-.029-.253.212-.09.228-.179.122-.88.289-.5.245-.428.338.4.9-.143.819-.847.408-.273-.131-.163-.314-.762.339-.4.815-.212.224Zm9.013-7.2-.078-.171.025-.423.171-.97.171-.04.306.053-.294.97-.094.559Zm.081-1.825-.293-.823v-.668l.379-.208.1.073-.228.864Zm-1.519-7.709-.192-.041-.18-.24-.24-.876.236-.578.3-.494,0-.419-.061-.106.183-.383.46-.371.2-.4.036-.216-.044-.167L339.8,68.2l-.086-.049.167-.309.379-.249.036.994.1.224.212.138.045.171-1.08,2.543-.2.64.065.4Zm-8.2-9.738h0Zm0,0-.241-.224-.171-.379-.3-.269-.171-.383-.041-.334.2-.045.619.391.085.143.285.546.053.375-.119.143ZM309.33,38.219l-.306-.118-.085-.424-.2-.265-.2-.1-.11-.2.183-.045.628.293.367.53-.13.253Zm-30.352-6.226-.126-.265.453-.424.228.163.073.338-.521-.012Zm-1.239-1.768-.045-.269.119-.469.253-.35.37-.281.766-.094.24-.13.852.139.025.269-.192.09-.29.061-.191-.155-.407.163.065.143-.273.452-.494.187-.64.118ZM291.165,3.1l-.277-.224-.02-.281.265-.175.184-.037.216.326-.029.167-.212.053Zm.427-2.257-.306-.13-.094-.147L291.365.3l.244-.045.147.069.1.179Z" transform="translate(-272.662 -0.26)" fill="#192857" stroke="#192857" stroke-width="1"/>
    </g>
    <g id="AU-TAS" transform="translate(1863.829 3193.049)">
      <path id="Path_626" data-name="Path 626" d="M349.625,380.211l-.025-.054-.151-.024-.5-.079-.327-.247-.049-.037-.06-.013-.375-.081-.022-.005h-.022l-.852-.043-.024-.063-.049-.133-.135-.039-.126-.037-.08-.024-.08.024-.448.137-.138-.046-.241-.38.248.037.2.107.036.02.04.008.334.069.331.068.007-.337.008-.4,0-.135-.1-.086-.314-.261-.261-.217-.164.3-.079.143-.906-.116-.448-.915-.007-.013-.008-.013-.582-.929-.017-.027-.022-.022-.093-.094-.088-.088-.124.006-.113.005-.133-.213-.145-.309-.3-1.1-.018-.067-.047-.051-.192-.208-.053-.057-.075-.022-.052-.015-.215-1.383.446.341.17.787.208.962.331-.927.367-1.027.072-.2-.175-.123-.233-.163-.084-.059-.1.009-.045,0-.654-.718-.049-.143.007-.308v-.036l-.009-.036-.065-.269-.007-.03-.013-.027-.281-.574-.022-.046-.038-.035-.544-.513-.414-.734-1.151-2.828.025-.125.011-.055-.011-.054-.122-.619-.008-.041-.02-.036-.111-.209-.054-.391.249-.226.09-.082,0-.122.006-.528.06-.039.814.1.519.383.1.07.117-.019.573-.093.17.144.042.036.053.017.871.284,1.448.86.011.007.012.005,1.418.668.045.021.049,0,.937.085.055.005.052-.016.3-.092.278.157.471.266-.053-.538-.008-.076.212-.224.156-.055.058.231.031.124.114.058.232.118.063.032.071,0,.37-.008.523-.012-.3-.429-.131-.187-.062-.09-.107-.024-.191-.043v0l.066-.061.535-.242.471.157.071.024.073-.015.787-.16.164.147.154.138.177-.107.318-.192.062-.037.036-.063.409-.71h0l.048-.012.04.059.072.033.46.208.062.028.068,0,.155-.008.068,0,.058-.034.281-.163.063-.036.037-.063.143-.24.024-.039.01-.044.046-.211.179.084.573.423.188.248.19.427-.255.905-.015.052.006.054.033.3.008.078.047.062.13.17.011.312-.18.66-.012.044,0,.046.029.5,0,.039.013.037.126.366-.207,1.117-.007.041,0,.042.034.3-.084-.137-.227.451-.513,1.019-.021.042-.006.046-.322,2.325-.135.138-.059.061-.016.083-.065.343-.007.037,0,.038.039.493-.23.239-.047.05-.02.066-.177.595-.7-.424-.089-.054-.1.016-.15.025-.068.011-.055.042-.245.184-.143.107.006.027-.353-.227-.734-.472.321.811.11.279-.074.477-.208.254-.038.047-.016.058-.119.44-.017.065.014.066.079.372-.028.169-.225-.144-.244-.288-.048-.305-.025-.158-.15-.059-.094-.036-.217-.085-.124.2-.094.15-.041.067v.079l0,.408v.125l.093.085.414.378-.1.243-.218.34-.018.029-.011.031-.22.64-.009.024,0,.026-.049.333Zm1.807-.806-.033-.016-.086-.039-.092.02-.064.014-.06-.125.365-.449.078.2Zm2.265-1.7-.149-.184-.259-.529v-.005l.187.2.092.1.135-.01.379-.028.068-.006.025.055.073.167-.157.069-.318.138-.075.033Zm2.127-16.434.271-.137.078.093-.152.019Zm-.6-.992-.166-.092-.067-.253.012-.058.02-.1-.047-.089-.505-.949-.024-.044-.038-.033-.437-.39.336-.444.108-.046.743.992.025.034.034.025.163.118.042.03.051.014.172.046.2,1.086-.464.084-.038.007-.035.017Zm-18.466-.928v-.517l-.058-.075-.191-.25.008-.206.066-.792.244-.181.069-.051.029-.081.053-.151.021-.06.055.033.1.152.056.855v.016l0,.015.1.557-.03.23-.086.193Z" transform="translate(-336.225 -356.565)" fill="#192857" stroke="#192857" stroke-width="1"/>
      <path id="Path_627" data-name="Path 627" d="M349.229,379.524l.013-.094.259-.752.24-.375.015-.038-.456-.417.008-.816.423-.681.828.324.025.158.1-.36.236-.289.051-.326-.724-1.83,1.634,1.051.359-.269.492-.08.562.343.112-.376.237-.247-.035-.443.111-.583.189-.193.321-2.325.8-1.589-.005-.051.208-1.126-.127-.369-.038-.671.193-.706-.007-.18-.17-.223-.061-.565.255-.912-.135-.305-.144-.19-.383-.284-.225.378-.524.3-.426.023-.517-.234-.352.609-.8.481-.368-.329-.8.161-.508-.17-.021.01.723,1.039-1.558.034-.487-.248.081.806-1.116-.63-.291.089-1.145-.1-1.532-.722-1.445-.858-.946-.308-.156-.132-.679.11-.65-.48-.488-.058-.006.506-.321.291.028.194.126.239.16.809-.03.152,1.113,2.733.385.681.587.554.353.721.1.4-.007.33.014.04.522.573.111-.01.75.527-.865,2.423.151.559.128.272.038.06.2-.009.313.313.632,1.008.394.806.568.072.315-.57,1.044.868-.017.846.05.134.714.036.54.117.37.279.39.061m5.833-19.908.235-.043-.116-.635-.1-.027-.317-.23-.181-.242.513.965-.038.191.005.02m-18.263-1.23.012-.1-.1-.545-.03-.457-.056.041-.055.66,0,.1.228.3m12.466,21.882-.081-.184-.571-.089-.383-.29-.375-.081-.966-.049-.094-.065-.065-.175-.126-.037-.533.163-.318-.106-.469-.737.261-.183.489.073.241.13.334.069.008-.4-.314-.26-.171.309-1.178-.151-.1-.07-.485-.99-.583-.929-.094-.093-.277.012-.229-.367-.163-.346-.305-1.129-.192-.208-.225-.065-.277-1.784.032-.339.082-.105.118.212.778.595.192.888.367-1.026-.233-.163-.183.016-.787-.864-.085-.244.008-.359-.065-.269-.281-.574-.574-.542-.444-.787-1.19-2.921.041-.208-.122-.619-.134-.253-.082-.587.359-.326.008-.676.269-.18.99.118.578.428.7-.114.268.228.9.293,1.475.876,1.418.668.937.085.416-.126.383.216-.02-.2.346-.367.313-.11.232.073.1.387.232.118.37-.008-.13-.187-.31-.069-.089-.086-.02-.281.2-.184.677-.305.574.191.925-.187.269.24.318-.192.444-.77.1-.061.281-.069.106.155.46.208.155-.008.281-.163.142-.24.078-.354.09-.1.188.008.289.135.628.464.232.305.245.55-.281,1,.033.3.183.24.016.444-.191.7.029.5.151.436-.22,1.19.147,1.3.269.436.025.677-.232.33-.159-.135-.02-.142.118-.151.053-.391-.313-.843-.192-.314-.514,1.018-.334,2.417-.2.2-.066.342.049.619-.318.33-.18.6.061.1.191-.012-.081-.175.13-.1.281.171.114.224.025.42-.167.11-.069.526.236.533-.041.343-.11.008-.314-.277-.318.139-.167.248-.408-.505-.289-.591-.057-.289.245-.436.143-.04.105.1.021.146-.07.143.273.294.379-.029.139-.118-.326-.57-1.035-.632-.15.024-.245.183.086.412.138.3-.118.236-.436.143-.1-.253.086-.053-.066-.611-.4-.257.139.35-.1.627-.256.314-.119.44.09.424-.065.4-.151.1-.155-.021-.354-.228-.322-.379-.061-.383-.094-.036-.094.151,0,.408.558.509-.179.448-.232.363-.22.64-.065.44-.094.081Zm2.074-.819-.281-.13-.281.061-.232-.485.782-.966.285.746-.2.709Zm.261-1.52-.306-.639.285-.5.175.269.159.737-.012.07Zm2.889-3.072.021-.8.257-.2.228.02.2.391-.02.061-.31,0ZM340.663,362.9l-.078-.057-.02-.281.265-.314.4.457Zm15.26-1.312-.012-.281-.078-.115-1.026.131-.4-.171.008-.224.294-.24.3-.016.309.093.619-.313.6.717-.008.061-.306.118Zm-.929-1.324-.4-.22-.114-.432.025-.122-.505-.95-.632-.562.538-.709.379-.163.876,1.169.163.118.338.09.037.167.208,1.137-.016.155-.122.114-.558.1Zm-18.609-.795-.155-.114-.057-.3.081-.061v-.4l-.253-.33.012-.314.078-.925.346-.257.053-.151-.045-.33.188-.053.4.24.183.265.061.933.106.6-.041.314-.134.3Z" transform="translate(-336.002 -356.24)" fill="#192857" stroke="#192857" stroke-width="1"/>
    </g>
  </g>
</svg>
