<svg xmlns="http://www.w3.org/2000/svg" width="35.383" height="32.731" viewBox="0 0 35.383 32.731">
  <g id="noun-health-1639099" transform="translate(-64.284 -82.697)">
    <g id="Group_75" data-name="Group 75" transform="translate(63.346 77.997)">
      <path id="Path_2" data-name="Path 2" d="M25.962,22.234H20.478v5.484H16.8V22.234H11.315v-3.68H16.8V13.07h3.68v5.484h5.484ZM33.538,7.694A8.4,8.4,0,0,0,26.972,4.7a9.169,9.169,0,0,0-6.71,2.994l-1.587,1.7-1.587-1.7a9.075,9.075,0,0,0-13.6.144A10.882,10.882,0,0,0,3.81,22.2l13.673,14.72a1.434,1.434,0,0,0,2.2,0L33.5,22.017a10.557,10.557,0,0,0,.036-14.323" fill="#fff"/>
    </g>
  </g>
</svg>
