<svg xmlns="http://www.w3.org/2000/svg" width="60.008" height="60.036" viewBox="0 0 60.008 60.036">
  <g id="noun-syringe-6936275" transform="translate(47.539 -198.54)">
    <g id="Group_77" data-name="Group 77" transform="translate(-51.059 195.029)">
      <path id="Path_9" data-name="Path 9" d="M85.738,3.562a4.252,4.252,0,0,0-.966.888C81.9,7.389,79,10.3,76.121,13.236A5,5,0,0,0,71.868,14.5c-.673.645-1.281,1.354-1.949,2A17.471,17.471,0,0,1,71.25,17.77c.456.454.938.883,1.379,1.354.557.582,1.16,1.125,1.7,1.727.487-.55,1.041-1.034,1.551-1.561v0a5.547,5.547,0,0,0,1.271-1.629,3.948,3.948,0,0,0,.31-3.122c.893-.809,1.7-1.71,2.572-2.542,1.276-1.256,2.516-2.544,3.787-3.8.8-.8,1.609-1.581,2.373-2.408.35-.378.908-.721.872-1.3v0a1.012,1.012,0,0,0-1.326-.915Z" transform="translate(-23.539 0)" fill="#192857"/>
      <path id="Path_10" data-name="Path 10" d="M58.809,29.111C57.064,27.439,55.385,25.7,53.663,24a4.2,4.2,0,0,0-.814-.726,2.067,2.067,0,0,0-2.342.386c-1.117,1.185-2.3,2.31-3.412,3.5.706.567,1.309,1.246,1.959,1.873.572.6,1.19,1.142,1.76,1.737a1.254,1.254,0,0,1,.454.938,1.038,1.038,0,0,1-1.062,1.041,1.167,1.167,0,0,1-.852-.429c-1.2-1.253-2.481-2.418-3.656-3.689q-1.6,1.611-3.192,3.23v0a10.811,10.811,0,0,1,.988.935c.794.772,1.561,1.573,2.375,2.325a3.275,3.275,0,0,1,.63.726,1.212,1.212,0,0,1-.121,1.079,1.035,1.035,0,0,1-1.591.124c-.8-.8-1.588-1.6-2.393-2.388a13.656,13.656,0,0,1-1.271-1.346c-.388.378-.741.8-1.127,1.178-.7.736-1.45,1.425-2.105,2.2.061.025.184.078.245.106,1.15,1.152,2.335,2.277,3.464,3.452h0a1.154,1.154,0,0,1,.106,1.5,1.227,1.227,0,0,1-.9.368,1.206,1.206,0,0,1-.721-.426c-.819-.779-1.619-1.578-2.431-2.368-.386-.4-.8-.769-1.152-1.2-1.051,1.039-2.06,2.118-3.111,3.157h0a20.654,20.654,0,0,1,1.629,1.523c.59.605,1.21,1.18,1.805,1.78a2.287,2.287,0,0,1,.7.913A1.075,1.075,0,0,1,36.86,46.8a1.954,1.954,0,0,1-.726,0,1.477,1.477,0,0,1-.514-.391c-1.15-1.258-2.441-2.375-3.6-3.621-.89.862-1.717,1.788-2.6,2.653,1.346,1.18,2.562,2.5,3.843,3.749,1.369,1.336,2.726,2.683,4.085,4.029.4.416.84.8,1.205,1.253a2.569,2.569,0,0,1,.426-.509c3.258-3.283,6.586-6.493,9.836-9.783,1.359-1.294,2.665-2.643,4.009-3.951,2.307-2.332,4.69-4.589,7-6.914l0,0a2.325,2.325,0,0,0,.287-2.849,17.764,17.764,0,0,0-1.3-1.352Z" transform="translate(-9.18 -6.935)" fill="#192857"/>
      <path id="Path_11" data-name="Path 11" d="M29.436,70.139c.756-.688,1.488-1.4,2.2-2.136-.562-.648-1.233-1.2-1.841-1.805-1.132-1.12-2.282-2.219-3.4-3.356-1.276-1.283-2.6-2.516-3.848-3.825-.817.719-1.538,1.536-2.295,2.315-.658-.691-1.349-1.349-2.022-2.022l0,0a18.331,18.331,0,0,0-1.472-1.43,1.879,1.879,0,0,0-2.781,2.269,4.74,4.74,0,0,0,1,1.127c2.837,2.8,5.756,5.512,8.591,8.313,1.9,1.944,3.843,3.843,5.749,5.782l0,0a3.252,3.252,0,0,0,1.445,1.039,1.885,1.885,0,0,0,1.044-.038A1.815,1.815,0,0,0,33.148,74.6a1.917,1.917,0,0,0-.545-1.326c-1.059-1.041-2.131-2.073-3.167-3.139Z" transform="translate(-3.66 -19.163)" fill="#192857"/>
      <path id="Path_12" data-name="Path 12" d="M17.327,75.153c-.6-.565-1.193-1.13-1.74-1.74-.925.918-1.823,1.863-2.736,2.794-1.024,1.059-2.083,2.085-3.074,3.175-.726-.7-1.455-1.394-2.148-2.126v0a7.829,7.829,0,0,0-1.15-1.069,2.081,2.081,0,0,0-1.238-.212A1.961,1.961,0,0,0,3.519,77.92a2.245,2.245,0,0,0,.928,1.649c1.672,1.6,3.285,3.265,4.945,4.879q1.676,1.7,3.379,3.366a1.888,1.888,0,0,0,2.113.328,1.934,1.934,0,0,0,1.15-1.858,1.861,1.861,0,0,0-.512-1.218c-.648-.693-1.346-1.336-1.994-2.03,1.969-1.926,3.886-3.906,5.878-5.807-.683-.7-1.4-1.372-2.078-2.075Z" transform="translate(0 -24.781)" fill="#192857"/>
    </g>
  </g>
</svg>
