<svg xmlns="http://www.w3.org/2000/svg" width="30" height="34.285" viewBox="0 0 30 34.285">
  <path id="prescription-solid_1_" data-name="prescription-solid (1)" d="M2.142,0A2.14,2.14,0,0,0,0,2.142v17.14a2.142,2.142,0,1,0,4.285,0V15H7.68l8.57,8.57L9.2,30.624a2.145,2.145,0,0,0,3.033,3.033l7.05-7.057,7.057,7.05a2.145,2.145,0,1,0,3.033-3.033l-7.057-7.05,7.05-7.057a2.145,2.145,0,1,0-3.033-3.033l-7.05,7.057L13.538,14.79A7.5,7.5,0,0,0,11.784,0Zm9.641,10.712h-7.5V4.285h7.5a3.214,3.214,0,0,1,0,6.427Z" fill="#fff"/>
</svg>
